<svg id="Слой_1" data-name="Слой 1" xmlns="http://www.w3.org/2000/svg" viewBox="0 0 200.57 36.48"><defs><style>.cls-1{fill:#343196;}.cls-2{fill:#3ab911;}.cls-3{fill:#e10585;}.cls-4{fill:#f49301;}.cls-5{fill:#00a3d3;}.cls-6{fill:#3579bb;}.cls-7{fill:#8e2bb2;}.cls-8{fill:#59aed9;}</style></defs><title>10</title><polygon class="cls-1" points="44.65 27.26 44.65 9.16 46.56 9.16 53.1 17.95 59.7 9.16 61.55 9.16 61.55 27.26 59.64 27.26 59.64 12.07 53.69 19.99 52.57 19.99 46.56 12.07 46.56 27.26 44.65 27.26"/><path class="cls-1" d="M281.89,172.92h8.26L286,163.81Zm-4.82,6.67,8.06-18.23H287L295,179.59h-2l-2.25-5h-9.51l-2.25,5Z" transform="translate(-211.15 -152.34)"/><path class="cls-1" d="M301.37,169.69h6.08c2.51,0,3.9-1.12,3.9-3.24s-1.45-3.24-3.9-3.24h-6.08Zm-2,9.91V161.5h8.12c3.57,0,5.75,1.92,5.75,4.89a4.75,4.75,0,0,1-4.29,4.89l5.88,8.32H312.6l-5.68-8.12h-5.55v8.12Z" transform="translate(-211.15 -152.34)"/><polygon class="cls-1" points="110.82 9.16 110.82 17.02 119.21 9.16 121.78 9.16 112.87 17.42 123.17 27.26 120.46 27.26 110.82 18.08 110.82 27.26 108.91 27.26 108.91 9.16 110.82 9.16"/><rect class="cls-1" x="127.2" y="9.16" width="1.92" height="18.1"/><path class="cls-1" d="M345.22,178V175.9a10.35,10.35,0,0,0,2.84,1.59,10.78,10.78,0,0,0,3.76.66c2.84,0,4.89-1.32,4.89-3.43a2.7,2.7,0,0,0-1.45-2.44,9.5,9.5,0,0,0-1.12-.53l-1.12-.4-1.39-.4c-.79-.26-1.45-.4-1.92-.59a7.41,7.41,0,0,1-1.59-.66,6.34,6.34,0,0,1-1.39-.86,4.51,4.51,0,0,1-1.12-3,4,4,0,0,1,1.65-3.37,7.4,7.4,0,0,1,4.62-1.32,10.16,10.16,0,0,1,5.68,1.52v1.92A11.24,11.24,0,0,0,352,163c-2.91,0-4.42,1.32-4.42,3-.13.86.59,1.59,1.19,2a2.62,2.62,0,0,0,.86.4l.86.33,1.12.33,1.12.33c.73.2,1.32.4,1.78.53s1,.4,1.58.73a6.28,6.28,0,0,1,1.39,1,4.21,4.21,0,0,1,1.25,3.1,4.4,4.4,0,0,1-2,3.83,7.8,7.8,0,0,1-4.76,1.39,11.81,11.81,0,0,1-6.74-1.92Z" transform="translate(-211.15 -152.34)"/><path class="cls-2" d="M377.25,176.36c.2.2.33.33.33.46a1,1,0,0,1,.13.53,1.51,1.51,0,0,1-.53,1.12,1.59,1.59,0,0,1-1.12.59,1.93,1.93,0,0,1-1.32-.66,10.25,10.25,0,0,1-1.39-1.52c-.4-.59-.92-1.45-1.65-2.51v4.42a1.63,1.63,0,0,1-.53,1.12,1.88,1.88,0,0,1-1.12.59,1.65,1.65,0,0,1-1.58-1.19c-.59-.4-1-1.85-1.25-4.36s-.33-5-.33-7.59c0-1.32,0-2.38.07-3.1a4.38,4.38,0,0,1,.59-2,1.61,1.61,0,0,1,1.39-.79,1.39,1.39,0,0,1,.92.13l.73-.2a1.59,1.59,0,0,1,1.19.46,1.33,1.33,0,0,1,.4,1.19l-.07,1.72v1.85a3,3,0,0,0,0,1.12l2-2.51a1.7,1.7,0,0,1,1.25-.66,1.44,1.44,0,0,1,1.25.46,2.17,2.17,0,0,1,.4,1.39,3,3,0,0,1-.86,1.65c-.59.73-1.52,1.65-2.64,2.84l.33.53.33.53c.26.4.4.66.59.92a9.05,9.05,0,0,0,.66.92l.79,1.06a9.9,9.9,0,0,0,.66.92Z" transform="translate(-211.15 -152.34)"/><path class="cls-3" d="M383.86,160.31a1.15,1.15,0,0,0-.92-.2,1.61,1.61,0,0,0-1.32.73,2.46,2.46,0,0,0-.59,1.52,1.55,1.55,0,0,0,.79,1.39,2.54,2.54,0,0,0,1.59.53,2.37,2.37,0,0,0,1.39-.73,2.2,2.2,0,0,0,.59-1.52,1.59,1.59,0,0,0-.46-1.19,1.38,1.38,0,0,0-1.06-.53Zm1.52,17.24c0,1.12-.73,1.78-2.18,1.85a2.4,2.4,0,0,1-1.45-.26,1.31,1.31,0,0,1-.59-1.25l.07-1.78c0-1.39.07-2.44.07-3.1,0-.86-.07-2-.13-3.43V169a1.37,1.37,0,0,1-.33-.79,1.7,1.7,0,0,1,.46-1.06,2,2,0,0,1,1.19-.53l1.25-.07a2.28,2.28,0,0,0,.59-.07,1.47,1.47,0,0,1,.59.07,1.24,1.24,0,0,1,.26.59,4.06,4.06,0,0,1,.07.86v.33c0,.13.07.4.07.79Z" transform="translate(-211.15 -152.34)"/><path class="cls-4" d="M396.34,179.2l.07-.07h-.07v.07Zm-.2-3.63a1.24,1.24,0,0,1,.53-.13l.13-1.59c0-.86.07-2,.07-3.5a2.47,2.47,0,0,0-.79-.46,2.74,2.74,0,0,0-1.06-.2.9.9,0,0,0-.4.53,3.11,3.11,0,0,0-.4,1l-.26,3.24c.26.53,1,.92,2.18,1.12Zm4.82-10.3a61.87,61.87,0,0,1-.4,6.67c0-.33-.07.59-.26,2.64s-.26,3.3-.33,3.7l.2.2c.07.07.13.07.13.13s.07.13.07.26c0,.33-.33.59-1,.86a5.8,5.8,0,0,1-1.85.46c-.73.07-1.12-.26-1.19-1.06a5.92,5.92,0,0,1-1.59.46,6.25,6.25,0,0,1-4.23-1.06,4.39,4.39,0,0,1-1.59-3.63,10.17,10.17,0,0,1,.79-4.29,7.68,7.68,0,0,1,2.44-3,1.62,1.62,0,0,1,1-.33,3.32,3.32,0,0,1,1.92-.79,5.56,5.56,0,0,1,1.78.26v-3A11.36,11.36,0,0,1,397,162a1.78,1.78,0,0,1,.73-1,1.8,1.8,0,0,1,.59-.79,2.15,2.15,0,0,1,.92-.26,1.38,1.38,0,0,1,1.19.46,2.82,2.82,0,0,1,.4,1.59,24,24,0,0,1,.13,3.3Z" transform="translate(-211.15 -152.34)"/><path class="cls-5" d="M408.23,178.87a5.42,5.42,0,0,1-1.19.2c-1.39.07-2-.4-2-1.45a1.79,1.79,0,0,1,.4-1.12,2.09,2.09,0,0,1,1.12-.73h.26a.72.72,0,0,0,.07-.33,4.58,4.58,0,0,0-.2-1.06c-.2-.46-.33-.92-.59-1.45-.46-1.25-.79-2.38-1.06-3.24a10,10,0,0,1-.4-2.71,2.33,2.33,0,0,1,.46-1.39,3.57,3.57,0,0,1,1.19-1.25,2.45,2.45,0,0,1,1.45-.53,1.8,1.8,0,0,1,.59,0l1.72-.2a1.59,1.59,0,0,1,1.19.46,1.63,1.63,0,0,1,.53,1.06v.07a2,2,0,0,1-.53,1.19A1.5,1.5,0,0,1,410,167c-.73.07-1.19.13-1.32.13v.13a3.57,3.57,0,0,0,.2,1.25,11.9,11.9,0,0,0,.66,1.19,9.3,9.3,0,0,1,1.12,2.31,9.57,9.57,0,0,1,.4,3.1,4.31,4.31,0,0,1-.66,2.51,3.28,3.28,0,0,1-2.18,1.25Z" transform="translate(-211.15 -152.34)"/><path class="cls-4" d="M228,188.58l1-.2c.2-.07.26-.26.13-.4a2.9,2.9,0,0,1-.79-1.19,5.1,5.1,0,0,0-.79-1.59,4.22,4.22,0,0,0-1-.86.15.15,0,0,0-.2.2,6.52,6.52,0,0,1,.2,1.59,7.08,7.08,0,0,0,0,2,2.84,2.84,0,0,0,1.45.4Z" transform="translate(-211.15 -152.34)"/><path class="cls-2" d="M228.72,185.47a.29.29,0,0,0-.07.33,14.55,14.55,0,0,0,1.39,2.11,2.93,2.93,0,0,0,2.51.53,1.31,1.31,0,0,0,.46-1.06,15.57,15.57,0,0,0,0-4.29,12.52,12.52,0,0,0-.66-3c-.07,0-.07-.07-.07-.13a.26.26,0,0,0-.46.07c-.53,2.18-1.39,4.56-3.1,5.48Z" transform="translate(-211.15 -152.34)"/><path class="cls-6" d="M231.56,178.67a1.15,1.15,0,0,0-.13-.73,4.48,4.48,0,0,0-1.19-.86c-.26-.26-.59-.13-.59.2a1.64,1.64,0,0,0-.07.53,9.29,9.29,0,0,1-2.44,5.48c-.13.13-.13.46.07.53a2.51,2.51,0,0,1,.86.59.29.29,0,0,0,.33,0c1.85-.86,2.64-3.43,3.17-5.75Z" transform="translate(-211.15 -152.34)"/><path class="cls-7" d="M233.67,188.31c-.13.59.33.59.59.33a2.34,2.34,0,0,0,.26-.59c.2-.59.59-6.54-.13-9.31s-3.1-4.36-4.09-4c-.26.07-.53.2-.46.59a.75.75,0,0,0,.2.53,9.43,9.43,0,0,0,1.32.92,6.38,6.38,0,0,1,2.38,4.29,20.13,20.13,0,0,1-.07,7.26Z" transform="translate(-211.15 -152.34)"/><path class="cls-7" d="M245.76,163.68c-1.39.2-1.72,1.72-7.26,2.84-5.35,1.06-4.76,2.71-4.56,3s1.85-.92,4.16-1.78c2.77-1.06,7.73-2,8.65-2.91.13-.07.59-1.32-1-1.12Z" transform="translate(-211.15 -152.34)"/><path class="cls-4" d="M244.51,172.66a1.41,1.41,0,0,0-.2-1.06.82.82,0,0,0-.92-.2,2.1,2.1,0,0,0-.66.66,7.22,7.22,0,0,1-.66.73.8.8,0,0,0-.2.66c0,.07.07.13.13.2a2,2,0,0,0,1.25.79c.4,0,1.19-1.45,1.25-1.78Z" transform="translate(-211.15 -152.34)"/><path class="cls-4" d="M241.2,172.86a20.45,20.45,0,0,0,.4-2.25,1.22,1.22,0,0,0-.33-.79.8.8,0,0,0-.86-.07,1.49,1.49,0,0,0-.59.79l-.2,1v.33c.07.13,1.45,1.59,1.59,1Z" transform="translate(-211.15 -152.34)"/><path class="cls-6" d="M242.85,168.43a4.21,4.21,0,0,1-1.59.26,2.2,2.2,0,0,0-2.11,1.39c-.07.4-.2.92-.53.92a.5.5,0,0,1-.26-.13c-1-.4-2,.26-3,.4a1.12,1.12,0,0,1-.66,0c-.4-.07-.46-.73-.13-1a17.84,17.84,0,0,1,4.36-2.11,24.89,24.89,0,0,1,4.42-1.19c.59,0,0,1.19-.53,1.45Z" transform="translate(-211.15 -152.34)"/><path class="cls-2" d="M248.34,172.13c-.2-1.78-.4-3.5-.66-5.28,0-.33.13-1.12-.66-.86-1.06.33-1.78.33-2.25.53s-.73,1.52-1,1.92-1,.46-1.32,1a1.9,1.9,0,0,0-.2,1.39.24.24,0,0,0,.07.2c.07.13.2.07.33,0a5.46,5.46,0,0,1,1.06-.59,1.33,1.33,0,0,1,1.12.26,2.06,2.06,0,0,1,.46,1.85,7.12,7.12,0,0,1-.79,1.59c-.07.13-.2.26-.13.46a.36.36,0,0,0,.33.2.66.66,0,0,0,.33-.26,6,6,0,0,1,2.44-1.19c.26-.07.66-.2.86-.26a4.13,4.13,0,0,0,0-.92Z" transform="translate(-211.15 -152.34)"/><path class="cls-3" d="M220.66,185.54a.83.83,0,0,1-1.06.26,4,4,0,0,1-1-.79c-.53-.53-.92-1.06-1.45-1.52a8.51,8.51,0,0,0-2.11-1.25.43.43,0,0,1-.13-.59,14.48,14.48,0,0,0,1-1.06.92.92,0,0,1,1-.2c1.65.66,3.5,1.39,5,2.18a.63.63,0,0,1,.2,1,4.24,4.24,0,0,0-.66.86,11.66,11.66,0,0,1-.79,1.12Z" transform="translate(-211.15 -152.34)"/><path class="cls-6" d="M217,179.86a21.16,21.16,0,0,1,4.82,2.18.36.36,0,0,0,.53-.26,4,4,0,0,1,1.32-2.44c.26-.33.33-1.45-.53-.79a5.93,5.93,0,0,1-2.91,1.19,7.57,7.57,0,0,1-2.58-.73.43.43,0,0,0-.59.13l-.2.26a.29.29,0,0,0,.13.46Z" transform="translate(-211.15 -152.34)"/><path class="cls-8" d="M222.58,177.68c1.45-.86,2.84-1.39,3.63-2.71.13-.2.2-.46.4-.59a.5.5,0,0,1,.66.07c.13.13.07.33.07.46a12.28,12.28,0,0,1-2,4.69A15.39,15.39,0,0,1,223.5,182c-.2.26-.53.07-.59-.26-.13-1.06,1.25-1.78,1.39-2.77,0-.26,0-1.06-.46-1s-2,1.12-2.84,1.25a4.18,4.18,0,0,1-2.84-.53c-.2-.13-.4-.2-.53-.46a.39.39,0,0,1,.33-.46s2.71,1,4.62-.07Z" transform="translate(-211.15 -152.34)"/><path class="cls-7" d="M222.38,187.19a.48.48,0,0,0,.73-.13,12.42,12.42,0,0,0,1.72-3c.13-.53,0-1.19.33-1.52a10.71,10.71,0,0,0,2.18-2.44c.66-1.25,1.65-4.36,1.52-5.15s-.79-.46-.86-.2a18.4,18.4,0,0,1-1.85,5c-1.19,1.72-3.7,5.42-4.42,6.54a.4.4,0,0,0,.07.53c.13.07.46.33.59.4Z" transform="translate(-211.15 -152.34)"/><path class="cls-4" d="M231.36,159c-.33-.26-.53-.73-.92-.86s-.73.26-.92-.26.4-1.45,1-1.78,2,.33,2,1.25-.79,2-1.12,1.65Z" transform="translate(-211.15 -152.34)"/><path class="cls-6" d="M230.64,164.6c-.33-3,.86-4.69.13-5.28s-.73,1.45-.86,2.11a2.33,2.33,0,0,1-.4,1.25c-.4.46-1.52.86-1.65,1.19-.26.86,1.52,2.58,2.38,2.58s.4-1.85.4-1.85Z" transform="translate(-211.15 -152.34)"/><path class="cls-7" d="M225,161.89c-.73-4-1.65-7-1.39-7.59a1.25,1.25,0,0,1,1.45-.73c.4.2,0,4.16.92,8.12,1,4.23,3.7,4.56,3.3,5.48s-3.57-1.32-4.29-5.28Z" transform="translate(-211.15 -152.34)"/><path class="cls-2" d="M227,162.62a.68.68,0,0,0,.92.33,3.18,3.18,0,0,0,1.06-.79c.53-.73.4-1.58.66-2.51s-1.06-1.45-.59-2.58.79-1.25.79-1.78-.73-.53-1-1.19.59-.86.46-1.59c-.13-.53-2.71.2-3.17.92s-.07,4.29.07,5.35a28.26,28.26,0,0,0,.79,3.83Z" transform="translate(-211.15 -152.34)"/><path class="cls-6" d="M229.51,153.71a1.07,1.07,0,0,1,1.25-1c.53.2.86,2.25.33,2.38s-1.59-.73-1.59-1.39Z" transform="translate(-211.15 -152.34)"/><path class="cls-8" d="M214.19,161.3a1,1,0,0,0,.07,1,6.83,6.83,0,0,0,1.52,1.59.48.48,0,0,0,.66-.26c.2-1.78-.13-4.56-.46-5s-1.45,1.85-1.78,2.64Z" transform="translate(-211.15 -152.34)"/><path class="cls-6" d="M218.09,157.21a.52.52,0,0,0-.73,0l-.86.86c-.07.13-.2.2-.2.4a.37.37,0,0,0,.4.33.93.93,0,0,0,.59-.07,6.41,6.41,0,0,1,4.16.2c.33-.33.07-.66-.2-.86a2.1,2.1,0,0,0-.92-.13c-.26,0-.59.07-.92.07a2.32,2.32,0,0,1-1.32-.79Z" transform="translate(-211.15 -152.34)"/><path class="cls-3" d="M217.23,161.89c0,1.19-.33,2.31-.26,2.51s.13.26.26.4c.53.4,1,.66,1.52,1.12.07.07.13.07.26.13s.4-.07.59-.13a4.55,4.55,0,0,1,2.64-.53c.2.07.46.07.53-.13a.24.24,0,0,0-.07-.2,18.76,18.76,0,0,1-1.12-3.24,4.31,4.31,0,0,0-.4-1.59c-.86-1.39-3.63-.73-4-.46s0,.92.07,2.11Z" transform="translate(-211.15 -152.34)"/><path class="cls-7" d="M213,164.07c.59.92,2.38,1.72,3.1,2.31s1.12,1,1.85,1.59a11.76,11.76,0,0,0,5.55,2.31c1.72.2,3.1-.33,3.17-.66s.07-.73-.33-.66-2.64,1.06-7.4-1.85c-3.9-2.38-5.35-4.76-5.68-4.62s-.79.73-.26,1.59Z" transform="translate(-211.15 -152.34)"/><path class="cls-6" d="M220.27,166.91c-.2-.07-.13-.46.26-.66a6.59,6.59,0,0,1,2.58-.33c.33.07.79,0,.86-.33a.94.94,0,0,0-.13-.4,9.67,9.67,0,0,1-1.72-5.28c.07-.2.07-.4.26-.46s.33.07.4.2a1.12,1.12,0,0,1,.07.46,9.25,9.25,0,0,0,.66,3,10.83,10.83,0,0,0,1.58,2.84c.4.46.92.86,1.32,1.32a2,2,0,0,1,.26.53c.07.33-.26.66-.59.73-1.85.59-4.82-1.06-5.81-1.65Z" transform="translate(-211.15 -152.34)"/><path class="cls-6" d="M215.12,167.51a.6.6,0,0,0-.66,0c-.26.2-.92,1-1.12,1.12-1.32,1.12-.53,2.25.33,2.11.66-.13,1.78-1.72,2.11-2.25a.41.41,0,0,0-.07-.46c-.2-.13-.4-.4-.59-.53Z" transform="translate(-211.15 -152.34)"/><path class="cls-6" d="M216.57,170.35a3.5,3.5,0,0,0-.46,1.85,1.05,1.05,0,0,0,.59.79.54.54,0,0,0,.66-.2,1.7,1.7,0,0,0,.33-.79,5.76,5.76,0,0,1,1.19-2c.07-.13.2-.26.13-.4s-.13-.13-.2-.2a3,3,0,0,0-.79-.4.91.91,0,0,0-.79.26,9.93,9.93,0,0,0-.66,1.12Z" transform="translate(-211.15 -152.34)"/><path class="cls-4" d="M212,171.74a8.31,8.31,0,0,1,2.38,3c.2.46.73.59,1.32.59a1.53,1.53,0,0,0,1.32-.46,4.85,4.85,0,0,1,1.25-1.06c.4-.2.73-.4,1.12-.59a1.49,1.49,0,0,0,.73-.53c.13-.2-.07-.92-.2-1.58s-.33-1.12-.59-.73c-1.25,1.72-.86,2.18-1.45,2.91-.33.33-.73.66-1.12.59a1.33,1.33,0,0,1-1.19-.92,3.5,3.5,0,0,1,.07-1.65c.2-.53.66-1.32.79-1.85v-.26c-.13-.2-.4,0-.53.13a7,7,0,0,1-1.06,1.39,2.61,2.61,0,0,1-1,.66,1.18,1.18,0,0,1-1.19-.33,3.66,3.66,0,0,1-.4-.53.58.58,0,0,0-1.06.2.06.06,0,0,0-.07.07c0,.4.66.79.86,1Z" transform="translate(-211.15 -152.34)"/><path class="cls-6" d="M212.61,175.43h1c.33,0,.53-.26.4-.53a9.11,9.11,0,0,0-1.12-1.65,11.82,11.82,0,0,0-1-.92.2.2,0,0,0-.33.13L212,175a.58.58,0,0,0,.59.46Z" transform="translate(-211.15 -152.34)"/><path class="cls-2" d="M218.35,175.1a.26.26,0,0,1-.2-.46c.66-.73,1.58-.79,2.51-1.45a.68.68,0,0,0,.33-.4,1.12,1.12,0,0,0-.07-.46,7.88,7.88,0,0,0-.53-1.32c-.13-.26.07-.46.33-.4a.94.94,0,0,1,.4.13,6.14,6.14,0,0,0,2.64.4c.46-.07,1-.33,1.32-.2a.85.85,0,0,1,.59.92c0,.46-1.06,1.72-3,2.51a14.42,14.42,0,0,1-4.36.73Z" transform="translate(-211.15 -152.34)"/><path class="cls-7" d="M214.39,177.42c2.91-.13,2-.59,3-.79s2.84.13,4.49-.4a10.65,10.65,0,0,0,4.42-2.51c.66-.73.2-1.78-.46-1a9.28,9.28,0,0,1-5.94,2.91,37.31,37.31,0,0,1-7.4.33c-.26,0-.4.26-.33.53s.2,1.06,2.25.92Z" transform="translate(-211.15 -152.34)"/><path class="cls-8" d="M238.56,180.32a.36.36,0,0,0,.33.46,2.69,2.69,0,0,1,.46-.13,2.17,2.17,0,0,1,.92,0,.78.78,0,0,1,.66.59c.13.4.07,1.39-1.52,2.11a.44.44,0,0,0,0,.79,3.85,3.85,0,0,1,1,.73.7.7,0,0,0,.79.13c.92-.59,2.84-2,3.37-3.9a.4.4,0,0,0,.07-.26.21.21,0,0,0-.2-.2,2,2,0,0,0-.53-.26c-.07-.07-.13-.07-.26,0a.23.23,0,0,0-.07.13c-.26.53-.26.66-.66.92-.46.46-.92.26-1-.4a1.69,1.69,0,0,1,.4-1.25.63.63,0,0,0-.13-.86l-.2-.2a.53.53,0,0,0-.59-.13l-2.51,1.19a.84.84,0,0,0-.33.46Z" transform="translate(-211.15 -152.34)"/><path class="cls-3" d="M234.47,176.16a10.53,10.53,0,0,1,1.65,4.36.51.51,0,0,0,.53.46,3.49,3.49,0,0,0,.79-.07.6.6,0,0,0,.46-.79c-.07-.26-.2-.53-.26-.86,0-.07-.07-.13,0-.2l.13-.13c.86-.4,1.78-.59,2.64-1.06a.72.72,0,0,0,.13-1.12.06.06,0,0,1-.07-.07.34.34,0,0,0-.26-.13c-.13,0-.26.13-.46.26a2.07,2.07,0,0,1-1.78.53c-.2,0-.4-.07-.4-.26a.57.57,0,0,1,.2-.4,5.74,5.74,0,0,1,.86-1c.07,0,.13-.07.13-.2a.23.23,0,0,0-.07-.13c-.2-.2-.46-.73-.92-.59s-.4.92-1.19.92c-.13,0-.2,0-.26-.13a1.12,1.12,0,0,1,.13-.33c.13-.13.26-.13.33-.46a.62.62,0,0,0-.33-.73,1,1,0,0,0-1.06-.2c-.4.2,0,.92-.86,1.72a.42.42,0,0,0-.07.59Z" transform="translate(-211.15 -152.34)"/><path class="cls-6" d="M240.35,181.71a.52.52,0,0,0-.59-.53,11.39,11.39,0,0,0-1.39.46c-.86.2-1.39.2-1.92.33a.38.38,0,0,0-.26.46l.13.59c.07.2.33.26.53.26a12.26,12.26,0,0,0,1.72-.26c.92-.2,1.78-.79,1.78-1.32Z" transform="translate(-211.15 -152.34)"/><path class="cls-7" d="M246,178.6a1.44,1.44,0,0,0-.46-.59,2.77,2.77,0,0,0-1.78-.92h-.4a1.25,1.25,0,0,1-.59-.2,11.81,11.81,0,0,1-1.78-1.85c-4.09-3.7-6.67-3.24-7.59-2.18a1.11,1.11,0,0,0,.4,1.92c.92.07.59-1.25,1.78-1.45a5.15,5.15,0,0,1,1.45.2,7.41,7.41,0,0,1,3.7,2.64,32.26,32.26,0,0,0,3.5,3.24,1.39,1.39,0,0,0,.92.46,1,1,0,0,0,.86-1.25Z" transform="translate(-211.15 -152.34)"/><path class="cls-8" d="M243.19,158.46a.6.6,0,0,0,0-.79c-.07-.07-.13-.13-.2-.13a.92.92,0,0,0-.66-.33,2.4,2.4,0,0,0-1.25.92c-.53.73-.66,1.92-.33,2.18s.53.33.73.2a1.76,1.76,0,0,0,.73-.66c.2-.26.66-.92,1-1.39Z" transform="translate(-211.15 -152.34)"/><path class="cls-8" d="M239.95,160.9a2.63,2.63,0,0,0-1.25,1.59,3.39,3.39,0,0,0,.2,1.52c.07.07.07.13.13.2a.2.2,0,0,0,.26,0,16.61,16.61,0,0,0,1.78-.26c.07,0,.13,0,.13-.07s.07-.2.07-.26a4.28,4.28,0,0,1,.13-1.32c.07-.26.2-.46.13-.73-.13-.53-1.19-.73-1.58-.66Z" transform="translate(-211.15 -152.34)"/><path class="cls-6" d="M238,164.54c.2-.66,0-.86-.33-1.06s-.46-.07-.73-.07c-.53.13-2.64.92-3.17,1.12-.07.07-.13.07-.2.13s-.07.2-.13.26a5.35,5.35,0,0,0,.07,2,.37.37,0,0,0,.53.2c.4-.26,1.06-.86,1.78-1.32,1-.53,2-1,2.18-1.32Z" transform="translate(-211.15 -152.34)"/><path class="cls-7" d="M239.42,155.16c-.2.46-1.45.4-4.49,4s-1.92,7.33-2.25,7.93-.73.2-.92-.59a12.2,12.2,0,0,1,1.06-6.27,16,16,0,0,1,5.09-5.61c.53-.13,1.65.2,1.52.53Z" transform="translate(-211.15 -152.34)"/><path class="cls-3" d="M241.4,156.22c0-.4-.46-.53-.73-.53a2,2,0,0,0-.86.33,21.32,21.32,0,0,0-4.23,3.9,8.15,8.15,0,0,0-2,3.63c0,.07-.07.26.07.33h.2a5.58,5.58,0,0,0,2.18-.86,10.93,10.93,0,0,0,2-1.45c1.25-1.32,1.65-3.3,2.77-4.56.13-.13.59-.4.59-.79Z" transform="translate(-211.15 -152.34)"/><path class="cls-6" d="M244.44,159.39c0-.53-.26-.46-.4-.46a1.16,1.16,0,0,0-.33.26,7.79,7.79,0,0,0-.86,1.19,7.51,7.51,0,0,0-.92,2.77c.13.53.92-.46,1.39-1.06a7.18,7.18,0,0,0,1.12-2.71Z" transform="translate(-211.15 -152.34)"/></svg>