<svg id="Слой_1" data-name="Слой 1" xmlns="http://www.w3.org/2000/svg" viewBox="0 0 213.41 24.56"><defs><style>.cls-1,.cls-2{fill-rule:evenodd;}.cls-2{stroke:#000;stroke-miterlimit:10;stroke-width:0.23px;}</style></defs><title>01</title><path class="cls-1" d="M103.17,419.75H105v-23h-1.78Zm56.14-23-9.64,10.43V396.7h-1.78v23h1.78v-10l1.59-1.78,8.19,11.76h2.11l-9.11-13.08,9.25-10Zm-82.62,1.65a9.42,9.42,0,0,1,6.14,2.18l1.25-1.32a11.55,11.55,0,0,0-7.4-2.71,11.82,11.82,0,0,0,0,23.64,11.49,11.49,0,0,0,7.4-2.64l-1.25-1.32a9.37,9.37,0,0,1-6.14,2.11,10,10,0,0,1,0-19.95Zm87.57,21.4h1.65v-23h-1.65ZM124,396.63a1.09,1.09,0,0,0-1.06,1.06,1.06,1.06,0,1,0,2.11,0,1.09,1.09,0,0,0-1.06-1.06ZM98.22,407.86a7.45,7.45,0,0,0-6-3,7.63,7.63,0,1,0,0,15.26,7.5,7.5,0,0,0,6-3v2.64H100v-14.4H98.22Zm-6,10.57a5.94,5.94,0,0,1,0-11.89,5.94,5.94,0,1,1,0,11.89Zm21.53-1.85-5.09-11.23h-2l7.07,15.32,7.07-15.32h-1.92Zm9.31,3.17h1.78v-14.4h-1.78Zm10.7-14.86a5,5,0,0,0-4.09,1.85v-1.39h-1.78v14.4h1.78v-9.11a3.92,3.92,0,0,1,4.09-4.09,4.06,4.06,0,0,1,4,4.09v9.11h1.72v-9.11a5.75,5.75,0,0,0-5.75-5.75Zm53.83-8.26a1.09,1.09,0,0,0-1.06,1.06,1.06,1.06,0,1,0,2.11,0,1.09,1.09,0,0,0-1.06-1.06Zm9.91,8.26a5,5,0,0,0-4.09,1.85v-1.39h-1.72v14.4h1.72v-9.11a3.92,3.92,0,0,1,4.09-4.09,4.06,4.06,0,0,1,4,4.09v9.11h1.72v-9.11a5.75,5.75,0,0,0-5.75-5.75Zm-21.13,0a7.6,7.6,0,1,0,6.8,11l-1.52-.73a5.81,5.81,0,0,1-5.28,3.3,5.93,5.93,0,0,1-5.94-5.81h13.54v-.13a7.6,7.6,0,0,0-7.59-7.59Zm5.68,5.94H170.6a6,6,0,0,1,5.75-4.29A5.88,5.88,0,0,1,182,410.9Zm4.62,8.92h1.72v-14.4h-1.72Zm87.64-8.19c-1.92-.92-3-1.39-3-3.1a1.92,1.92,0,0,1,.53-1.19,2.23,2.23,0,0,1,1.92-.73,2.87,2.87,0,0,1,2.38,1.72l1.39-.79a3.94,3.94,0,0,0-3.76-2.44,4.33,4.33,0,0,0-3.1,1.19,4.53,4.53,0,0,0-.86,2.38c0,2.77,1.92,3.63,3.76,4.49,2.25.86,3.1,1.72,3.1,3,0,1.59-1.39,2.44-3.1,2.44a4,4,0,0,1-3.76-2.91l-1.52.66c1.19,2.71,3,3.76,5.28,3.76,2.77,0,4.62-1.72,4.62-4.09s-1.39-3.3-3.9-4.42Zm-12.88-6.74a4.5,4.5,0,0,0-4.09,1.92v-1.39H255.6v14.4h1.72V410.5a3.85,3.85,0,0,1,4.09-4,3.89,3.89,0,0,1,4,4v9.25h1.72V410.5a5.77,5.77,0,0,0-5.68-5.68Zm-10.57,3a7.59,7.59,0,1,0-6,12.28,7.48,7.48,0,0,0,6-3.1v2.64h1.85v-14.4h-1.85Zm-6,10.57a6,6,0,1,1,6-6,6.08,6.08,0,0,1-6,6ZM217,412c0,2.25-.13,6.21-4.29,6.21a4.27,4.27,0,0,1-3.9-2.25l-1.19,1.39a6.25,6.25,0,0,0,10.57-.73,11.32,11.32,0,0,0,.53-4.42V396.63H217Zm11.1-7.2a7.63,7.63,0,0,0,0,15.26,7.66,7.66,0,0,0,6.87-4.29l-1.52-.66a6,6,0,0,1-11.36-2.58h13.54v-.2a7.48,7.48,0,0,0-7.53-7.53Zm-5.61,6a5.82,5.82,0,0,1,11.29,0Z" transform="translate(-64.89 -396.39)"/><path class="cls-2" d="M103.17,419.75H105v-23h-1.78Zm56.14-23-9.64,10.43V396.7h-1.78v23h1.78v-10l1.59-1.78,8.19,11.76h2.11l-9.11-13.08,9.25-10Zm-82.62,1.65a9.42,9.42,0,0,1,6.14,2.18l1.25-1.32a11.55,11.55,0,0,0-7.4-2.71,11.82,11.82,0,0,0,0,23.64,11.49,11.49,0,0,0,7.4-2.64l-1.25-1.32a9.37,9.37,0,0,1-6.14,2.11,10,10,0,0,1,0-19.95Zm87.57,21.4h1.65v-23h-1.65ZM124,396.63a1.09,1.09,0,0,0-1.06,1.06,1.06,1.06,0,1,0,2.11,0,1.09,1.09,0,0,0-1.06-1.06ZM98.22,407.86a7.45,7.45,0,0,0-6-3,7.63,7.63,0,1,0,0,15.26,7.5,7.5,0,0,0,6-3v2.64H100v-14.4H98.22Zm-6,10.57a5.94,5.94,0,0,1,0-11.89,5.94,5.94,0,1,1,0,11.89Zm21.53-1.85-5.09-11.23h-2l7.07,15.32,7.07-15.32h-1.92Zm9.31,3.17h1.78v-14.4h-1.78Zm10.7-14.86a5,5,0,0,0-4.09,1.85v-1.39h-1.78v14.4h1.78v-9.11a3.92,3.92,0,0,1,4.09-4.09,4.06,4.06,0,0,1,4,4.09v9.11h1.72v-9.11a5.75,5.75,0,0,0-5.75-5.75Zm53.83-8.26a1.09,1.09,0,0,0-1.06,1.06,1.06,1.06,0,1,0,2.11,0,1.09,1.09,0,0,0-1.06-1.06Zm9.91,8.26a5,5,0,0,0-4.09,1.85v-1.39h-1.72v14.4h1.72v-9.11a3.92,3.92,0,0,1,4.09-4.09,4.06,4.06,0,0,1,4,4.09v9.11h1.72v-9.11a5.75,5.75,0,0,0-5.75-5.75Zm-21.13,0a7.6,7.6,0,1,0,6.8,11l-1.52-.73a5.81,5.81,0,0,1-5.28,3.3,5.93,5.93,0,0,1-5.94-5.81h13.54v-.13a7.6,7.6,0,0,0-7.59-7.59Zm5.68,5.94H170.6a6,6,0,0,1,5.75-4.29A5.88,5.88,0,0,1,182,410.9Zm4.62,8.92h1.72v-14.4h-1.72Zm87.64-8.19c-1.92-.92-3-1.39-3-3.1a1.92,1.92,0,0,1,.53-1.19,2.23,2.23,0,0,1,1.92-.73,2.87,2.87,0,0,1,2.38,1.72l1.39-.79a3.94,3.94,0,0,0-3.76-2.44,4.33,4.33,0,0,0-3.1,1.19,4.53,4.53,0,0,0-.86,2.38c0,2.77,1.92,3.63,3.76,4.49,2.25.86,3.1,1.72,3.1,3,0,1.59-1.39,2.44-3.1,2.44a4,4,0,0,1-3.76-2.91l-1.52.66c1.19,2.71,3,3.76,5.28,3.76,2.77,0,4.62-1.72,4.62-4.09s-1.39-3.3-3.9-4.42Zm-12.88-6.74a4.5,4.5,0,0,0-4.09,1.92v-1.39H255.6v14.4h1.72V410.5a3.85,3.85,0,0,1,4.09-4,3.89,3.89,0,0,1,4,4v9.25h1.72V410.5a5.77,5.77,0,0,0-5.68-5.68Zm-10.57,3a7.59,7.59,0,1,0-6,12.28,7.48,7.48,0,0,0,6-3.1v2.64h1.85v-14.4h-1.85Zm-6,10.57a6,6,0,1,1,6-6,6.08,6.08,0,0,1-6,6ZM217,412c0,2.25-.13,6.21-4.29,6.21a4.27,4.27,0,0,1-3.9-2.25l-1.19,1.39a6.25,6.25,0,0,0,10.57-.73,11.32,11.32,0,0,0,.53-4.42V396.63H217Zm11.1-7.2a7.63,7.63,0,0,0,0,15.26,7.66,7.66,0,0,0,6.87-4.29l-1.52-.66a6,6,0,0,1-11.36-2.58h13.54v-.2a7.48,7.48,0,0,0-7.53-7.53Zm-5.61,6a5.82,5.82,0,0,1,11.29,0Z" transform="translate(-64.89 -396.39)"/></svg>