<svg id="Слой_1" data-name="Слой 1" xmlns="http://www.w3.org/2000/svg" viewBox="0 0 120.67 33.62"><title>02</title><path d="M82.22,418.06a2.88,2.88,0,0,1-1.78.73c-.73,0-1.39-.46-1.39-1.59,0-2.64,3.7-5.15,6.14-5.09-.53,2.11-.92,4.23-3,5.94Zm46.43.26a8.7,8.7,0,0,1-6.08-5.22c1.19-1,2.64-1.85,4-2.84a3.39,3.39,0,0,0,1.39-1.92,12,12,0,0,0,.79-3.24c0-.59,0-1-.66-.92s-3,1.45-3.57,1.85a35.78,35.78,0,0,0-8.06,7.73c1.06-4.23,2.25-10.43,2.71-13.6a5.13,5.13,0,0,0-.07-3.3,10.24,10.24,0,0,0-2.64-2.71c-.92-.53-1.39.07-1.59.92-.59,3-.92,4.69-1.45,7.2a55,55,0,0,1-3,10.3c-.86,2.25-2.91,6.21-5.22,6.21s-1.39-5.42-1.39-6.87c-.07-.53-.13-1.78-1.32-2-4.09-.92-4.76-2.31-5.55-2.11-.53.07-.79.53-1,1.19-.86,2.77-1.32,5.22-2.91,7.59-.73,1.12-2.11,2.51-3.17,2.51s-1.39-1-1.39-1.92a32.06,32.06,0,0,1,1.06-6.87c.26-1.12-.33-1.32-.92-1.52a9.55,9.55,0,0,0-2-.26,13.56,13.56,0,0,0-8.59,3.1,16.23,16.23,0,0,0-2.71,2.91c-.92,1.12-3.7,4.49-5.35,4.49-1.12,0-1.25-1.25-1.25-2.18,0-3.9,1.85-9.91,3.24-13.47a53.84,53.84,0,0,0,2.25-5.81,3.16,3.16,0,0,0-.59-2.77,7.49,7.49,0,0,0-2.38-2.11,1.08,1.08,0,0,0-1.45.46,19.45,19.45,0,0,0-1.72,3.24,42.41,42.41,0,0,0-4.29,17.44c0,3.17.4,9,4.69,8.92,2.38,0,4.42-1.45,6-3.17.26,2,1.92,3.17,4.16,3.17a8,8,0,0,0,6.21-3.3,4.2,4.2,0,0,0,4.29,3.3c5.09,0,8.12-5.61,9.51-9.84l.4.2c0,.46-.07,1.19-.07,1.78,0,3.3.79,7.93,5.15,7.86,3.63,0,6-3.43,7.73-6.21h.07c-.26,1.92-.66,3.43-.79,5.42-.07.86,1.12.73,1.65.73,2.64,0,2.51-.59,3.24-2.84a8.86,8.86,0,0,1,2.64-3.57,14.75,14.75,0,0,0,3.63,4.69,6.74,6.74,0,0,0,4,1.78,2,2,0,0,0,1.39-.46,6.62,6.62,0,0,0,1.78-2.84,1.06,1.06,0,0,0-.86-1.06Z" transform="translate(-21.66 -390.39)"/><path d="M142.32,415.42c.13,2.44-1.72,4.23-4.23,5.61a15.13,15.13,0,0,1-7.86,1.92c-.53,0-.79-.33-.73-1.06a5.82,5.82,0,0,1,.59-1.72,2.08,2.08,0,0,1,1.85-1.25,10.44,10.44,0,0,0,2.84-.46c1.25-.33,2.51-.86,2.51-1.92,0-1.85-7.93-.79-7.93-4.29s5.88-5.28,8.19-5.94a13.85,13.85,0,0,1,2.71-.4c.53,0,.79.33.66.79-.2,1.12-.73,2.44-1.92,2.71a29.18,29.18,0,0,0-4.23,1.12c-.26.13-.46.33-.46.53s.33.4.79.53c2,.53,7,.79,7.2,3.83Z" transform="translate(-21.66 -390.39)"/><path d="M62.54,422.55c-.79,0-1.52-.07-2.31-.13a54.32,54.32,0,0,0-7.79-.59A87.65,87.65,0,0,0,38.83,423a75.18,75.18,0,0,1-9.25,1h-.73c-3.57,0-7.07-.92-7.2-5.22v-.33c.13-5.48,6.21-12.22,12-16.78a64.39,64.39,0,0,1,15.65-9.25,25.56,25.56,0,0,1,7.93-2c2,0,1.65,1.72.2,4.16s-2,2.91-3.83,3.17c-3.24.4-7.93.79-16.84,7.59-5.09,3.9-9.71,9.25-9.58,12,0,1.72,1.32,2.31,2.91,2.31a51.1,51.1,0,0,0,8.32-1.12c5.22-.92,11.82-2.31,17.3-2.31a16.39,16.39,0,0,1,4.16.46A4,4,0,0,1,62,418.32a18.49,18.49,0,0,1,1.32,2.11c.26.66.59,1.32.33,1.72-.07.26-.4.4-1.12.4Z" transform="translate(-21.66 -390.39)"/></svg>