<svg id="logo" xmlns="http://www.w3.org/2000/svg" xmlns:xlink="http://www.w3.org/1999/xlink" width="266" height="98"
     viewBox="0 0 266 98">
    <metadata><?xpacket begin="﻿" id="W5M0MpCehiHzreSzNTczkc9d"?>
        <x:xmpmeta xmlns:x="adobe:ns:meta/" x:xmptk="Adobe XMP Core 5.6-c138 79.159824, 2016/09/14-01:09:01        ">
            <rdf:RDF xmlns:rdf="http://www.w3.org/1999/02/22-rdf-syntax-ns#">
                <rdf:Description rdf:about=""/>
            </rdf:RDF>
        </x:xmpmeta>


        <?xpacket end="w"?>
    </metadata>
    <defs>
        <style>
            .cls-1 {
            fill: #f99f24;
            }

            .cls-1, .cls-2 {
            fill-rule: evenodd;
            }

            .cls-2 {
            fill: #090a22;
            }
        </style>
    </defs>
    <path class="cls-1"
          d="M493.446,54.366L493.282,54,479.527,39.2l-0.492-.2-19.847.135L458.8,39.3,441.6,54.366,425.388,40.682,425,40.548l-21.715-.4-0.458.2L387.2,56.928,387,57.4l0.131,22.852,0.131,0.438,13.166,16.684,0.066,0.1,26.037,24.368L441.4,136h0.885l41.529-37.378,0.1-.135,13.036-20.8,0.1-.472ZM403.673,41.491l16.573,0.3L400.66,47.086Zm78.736,6.235L457.91,54.4l1.867-13.92,18.865-.134Zm-57.218,2.225,16.18,5.932,0.032-.135h0.2v0.168l13.035,0.034L414.547,78.769ZM456.6,56.389l5.011,48.8-46.9-24.975Zm1.31,0.034,28.069,13.415-23.123,34.648Zm1.147-.944,23.81-6.505,3.243,19.447Zm-2.489-.843-13.2-.067,14.967-13.111Zm-31.082-6,0.131-6.033,12.675,10.718Zm-25.612.067L424.307,42.1l-0.131,6.572L396.337,62.725Zm23.745,1.753L413.04,79.106,396.5,64.141ZM460.072,105.9l-35.83,3.2-9.728-27.47Zm0.95,1.28-19.193,27.167L425,110.384Zm1.768-.269,17.392-6.808-34.39,30.974Zm1.31-1.955L485.979,72.23l-3.21,25.413Zm23.123-37.85L484.014,48.03l-0.066-.2-2.161-4.213,10.251,11.021Zm-86.89-22.178-1.572,2.9L398.7,48l-3.963,15.74-6.321,13.583-0.1-19.65ZM388.542,80.15l7.009-15.066,17.195,15.572,9.825,27.706L401.348,96.43Zm16.867,20.088,17.948,10.112L437.441,130.4l-10.022-9.572Zm79-4.988,3.209-25.515L492.529,57l3.177,20.189Z"
          transform="translate(-387 -39)"/>
    <path class="cls-2"
          d="M442.725,64.381c9.907,0,17.42,6.908,17.42,17.45a16.937,16.937,0,0,1-17.42,17.422c-9.935,0-17.393-6.908-17.393-17.422,0-9.826,7.1-17.45,17.393-17.45h0Zm0,29.312c7,0,11.214-5.2,11.214-11.862,0-7.019-4.927-11.89-11.214-11.89-6.4,0-11.187,4.871-11.187,11.89,0,6.743,4.927,11.862,11.187,11.862h0Zm46.162-8.78a9.776,9.776,0,0,0,6.451-9.661c0-5.835-2.994-10.431-12.112-10.431-0.953,0-12.793.11-14.671,0.11V98.7h5.879V86.069h8.6l9.2,12.633h7.131Zm-6.151-4.4h-8.111V70.463c1.579-.028,7.213-0.082,8.3-0.082,4.791,0,6.206,2.257,6.206,4.927,0,3.468-2.994,5.2-6.4,5.2h0Zm58.465,0H551.68V94.519c-2.967,2.972-8.356,4.734-12.493,4.734-10.942,0-17.42-6.908-17.42-17.422,0-9.716,6.424-17.45,16.658-17.45,4.763,0,8,1.266,10.724,3.44l-2.477,4.734a11.384,11.384,0,0,0-7.54-2.614c-6.45,0-11.159,4.348-11.159,11.89,0,7.184,4.518,11.862,11.3,11.862,2.586,0,5.689-1.1,6.941-2.312V86.069h-8.084ZM574,64.821h5.144L593.27,98.7h-6.26l-3.484-8.642H569.263L565.779,98.7h-5.906Zm-2.5,19.706h9.8L576.422,72.5Zm29.205-19.6h5.934l11.4,15.771,10.887-15.771h5.525V98.7h-5.825V74.289l-10.56,15h-0.844L606.58,74.427V98.7H600.7V64.931Zm-94.039-.44h5.852V98.812h-5.852V64.491Zm5.906,41.945a3.049,3.049,0,1,1-3.048-3.082,3.084,3.084,0,0,1,3.048,3.082h0Zm132.445-41.5h5.879v34.4h-5.879v-34.4ZM651,57.2a3.049,3.049,0,1,1-3.048-3.083A3.06,3.06,0,0,1,651,57.2h0Z"
          transform="translate(-387 -39)"/>
</svg>
