<svg width="16" height="17" viewBox="0 0 16 17" fill="none" xmlns="http://www.w3.org/2000/svg">
<path fill-rule="evenodd" clip-rule="evenodd" d="M11.0295 1.50372C10.4352 1.50372 9.86529 1.74154 9.44509 2.16486L2.58635 9.07446C1.88607 9.77994 1.49265 10.7368 1.49265 11.7345C1.49265 12.7322 1.88607 13.689 2.58635 14.3945C3.28664 15.0999 4.23642 15.4963 5.22678 15.4963C6.21713 15.4963 7.16692 15.0999 7.8672 14.3945L14.7259 7.48487C15.0174 7.19125 15.4899 7.19125 15.7814 7.48487C16.0729 7.77849 16.0729 8.25454 15.7814 8.54816L8.92266 15.4578C7.94245 16.4452 6.613 17 5.22678 17C3.84055 17 2.5111 16.4452 1.53089 15.4578C0.550677 14.4703 0 13.131 0 11.7345C0 10.338 0.550677 8.99865 1.53089 8.01117L8.38963 1.10156C9.08976 0.396245 10.0393 0 11.0295 0C12.0196 0 12.9692 0.396244 13.6693 1.10156C14.3694 1.80688 14.7628 2.7635 14.7628 3.76098C14.7628 4.75845 14.3694 5.71507 13.6693 6.42039L6.8031 13.33C6.38305 13.7532 5.81335 13.9909 5.21931 13.9909C4.62528 13.9909 4.05557 13.7532 3.63553 13.33C3.21548 12.9068 2.9795 12.3329 2.9795 11.7345C2.9795 11.136 3.21548 10.5621 3.63553 10.1389L9.97215 3.76284C10.2638 3.46939 10.7363 3.46967 11.0276 3.76347C11.3189 4.05726 11.3186 4.53331 11.027 4.82676L4.69099 11.2022C4.55107 11.3434 4.47216 11.535 4.47216 11.7345C4.47216 11.9341 4.55087 12.1255 4.69099 12.2667C4.83111 12.4079 5.02115 12.4872 5.21931 12.4872C5.41747 12.4872 5.60751 12.4079 5.74763 12.2667L12.6138 5.3571C13.0339 4.93381 13.2701 4.3595 13.2701 3.76098C13.2701 3.16232 13.034 2.58817 12.6138 2.16486C12.1936 1.74154 11.6237 1.50372 11.0295 1.50372Z" fill="url(#paint0_linear)"/>
<defs>
<linearGradient id="paint0_linear" x1="0" y1="17" x2="16.698" y2="17" gradientUnits="userSpaceOnUse">
<stop stop-color="#FFB911"/>
<stop offset="0.494792" stop-color="#F14922"/>
<stop offset="1" stop-color="#FFB911"/>
</linearGradient>
</defs>
</svg>
