<svg width="16" height="12" viewBox="0 0 16 12" fill="none" xmlns="http://www.w3.org/2000/svg">
<path fill-rule="evenodd" clip-rule="evenodd" d="M15.711 1.656L14.307 0.282C14.114 0.094 13.88 0 13.605 0C13.33 0 13.096 0.094 12.903 0.282L6.131 6.919L3.097 3.939C2.904 3.75 2.67 3.656 2.395 3.656C2.119 3.656 1.886 3.75 1.693 3.939L0.289 5.313C0.096 5.501 0 5.73 0 6C0 6.269 0.096 6.498 0.289 6.687L5.43 11.717C5.622 11.906 5.856 12 6.131 12C6.407 12 6.641 11.905 6.833 11.717L15.711 3.03C15.903 2.841 16 2.612 16 2.343C16 2.074 15.903 1.845 15.711 1.656Z" fill="#54C664"/>
</svg>
