<svg width="23" height="18" viewBox="0 0 23 18" fill="none" xmlns="http://www.w3.org/2000/svg">
<path d="M17.3038 15.9626C17.2889 15.9899 17.2761 16.017 17.265 16.0437C17.2259 16.1381 17.2 16.2503 17.2 16.3795C17.2 16.5088 17.2259 16.6209 17.265 16.7153C17.3032 16.8076 17.363 16.9047 17.4533 16.9965L17.3038 15.9626ZM17.3038 15.9626H17.6529H17.6657H18.075H17.3038ZM8.47833 16.9965C8.38796 16.9047 8.32817 16.8076 8.28999 16.7153C8.25093 16.6209 8.225 16.5088 8.225 16.3795C8.225 16.2502 8.25093 16.1381 8.29001 16.0436C8.30229 16.014 8.31681 15.9838 8.33385 15.9535C8.42253 15.9596 8.51131 15.9626 8.6 15.9626H8.67793H8.69067H8.69067H9.1H9.50932L9.1 16.3731L9.50933 15.9626H9.52207H9.87123C9.88609 15.9899 9.89894 16.017 9.90998 16.0436C9.94906 16.1381 9.975 16.2502 9.975 16.3795C9.975 16.5088 9.94907 16.6209 9.91001 16.7153C9.87183 16.8076 9.81204 16.9047 9.72167 16.9965C9.71957 16.9986 9.71745 17.0008 9.71531 17.0029C9.62142 17.0965 9.52241 17.1573 9.42952 17.1955C9.33662 17.2338 9.22664 17.259 9.1 17.259C8.97336 17.259 8.86338 17.2338 8.77048 17.1955C8.67759 17.1573 8.57858 17.0965 8.48469 17.0029C8.48255 17.0008 8.48043 16.9986 8.47833 16.9965ZM8.47833 16.9965L9.0936 16.3795L8.47833 16.9965Z" stroke="url(#paint0_linear)" stroke-width="5"/>
<defs>
<linearGradient id="paint0_linear" x1="0" y1="18" x2="24.0034" y2="18" gradientUnits="userSpaceOnUse">
<stop stop-color="#FFB911"/>
<stop offset="0.494792" stop-color="#F14922"/>
<stop offset="1" stop-color="#FFB911"/>
</linearGradient>
</defs>
</svg>
