<svg width="28" height="21" viewBox="0 0 28 21" fill="none" xmlns="http://www.w3.org/2000/svg">
<path d="M27.9391 4.71193L24.6826 14.543C24.4391 15.241 23.8 15.7064 23.0391 15.7064H10.4696C9.73913 15.7064 9.03913 15.2701 8.79565 14.6302L4.0174 2.3269H1.21739C0.547826 2.3269 0 1.80335 0 1.16346C0 0.523574 0.547826 2.84042e-05 1.21739 2.84042e-05H4.83913C5.35652 2.84042e-05 5.81305 0.319959 5.99566 0.785333L10.9565 13.3504H22.5217L25.1087 5.49723H10.7739C10.1043 5.49723 9.55652 4.97368 9.55652 4.3338C9.55652 3.69391 10.1043 3.17036 10.7739 3.17036H26.7826C27.1783 3.17036 27.5435 3.37395 27.7565 3.66481C28 3.95566 28.0609 4.3629 27.9391 4.71193ZM11.0783 17.2189C10.5609 17.2189 10.0435 17.4224 9.67826 17.7715C9.31304 18.1205 9.1 18.615 9.1 19.1094C9.1 19.6039 9.31304 20.0983 9.67826 20.4473C10.0435 20.7964 10.5609 21 11.0783 21C11.5956 21 12.113 20.7964 12.4783 20.4473C12.8435 20.0983 13.0565 19.6039 13.0565 19.1094C13.0565 18.615 12.8435 18.1205 12.4783 17.7715C12.113 17.4224 11.5956 17.2189 11.0783 17.2189ZM22.0043 17.2189C21.487 17.2189 20.9696 17.4224 20.6044 17.7715C20.2391 18.1205 20.0261 18.615 20.0261 19.1094C20.0261 19.6039 20.2391 20.0983 20.6044 20.4473C20.9696 20.7964 21.487 21 22.0043 21C22.5217 21 23.0391 20.7964 23.4044 20.4473C23.7696 20.0983 23.9826 19.6039 23.9826 19.1094C23.9826 18.615 23.7696 18.1205 23.4044 17.7715C23.0391 17.4224 22.5217 17.2189 22.0043 17.2189Z" fill="url(#paint0_linear)"/>
<defs>
<linearGradient id="paint0_linear" x1="0" y1="21" x2="29.2215" y2="21" gradientUnits="userSpaceOnUse">
<stop stop-color="#FFB911"/>
<stop offset="0.494792" stop-color="#F14922"/>
<stop offset="1" stop-color="#FFB911"/>
</linearGradient>
</defs>
</svg>
