<svg width="30" height="28" viewBox="0 0 30 28" fill="none" xmlns="http://www.w3.org/2000/svg">
<path d="M11.7284 13.076L22.581 6.81036L17.4768 3.86342L6.62413 10.1291L11.7284 13.076Z" fill="#5EA4F2"/>
<path d="M11.3125 13.8339L0.4375 7.56776V20.1011L11.3125 26.3673V13.8339Z" fill="#5EA4F2"/>
<path d="M22.125 20.2499H20.9375V21.4374H22.125V20.2499Z" fill="#5EA4F2"/>
<path d="M12.1875 13.8339V26.3673L18.125 22.9339V13.8863C18.1226 13.3884 18.3181 12.91 18.6684 12.5562C19.0188 12.2025 19.4953 12.0024 19.9932 11.9999H21.55C21.6387 11.6789 21.8295 11.3955 22.0935 11.1925C22.3576 10.9896 22.6805 10.8781 23.0136 10.8749H23V7.56776L12.1875 13.8339Z" fill="#5EA4F2"/>
<path d="M25.5524 11.7499H23.0101C22.6593 11.7499 22.375 12.0342 22.375 12.385V12.4273C22.375 12.7781 22.6593 13.0624 23.0101 13.0624H25.5524C25.9032 13.0624 26.1875 12.7781 26.1875 12.4273V12.385C26.1875 12.0342 25.9032 11.7499 25.5524 11.7499Z" fill="#5EA4F2"/>
<path d="M16.6017 3.3583L11.7284 0.544678L0.875813 6.81043L5.74913 9.62405L16.6017 3.3583Z" fill="#5EA4F2"/>
<path d="M28.5573 12.8749H26.9833C26.8895 13.1846 26.6979 13.4555 26.4371 13.6471C26.1763 13.8386 25.8604 13.9405 25.5369 13.9374H23.0136C22.69 13.9405 22.3741 13.8386 22.1134 13.6471C21.8526 13.4555 21.6609 13.1846 21.5671 12.8749H19.9932C19.8615 12.876 19.7314 12.903 19.6102 12.9544C19.489 13.0059 19.3791 13.0807 19.2869 13.1746C19.1946 13.2686 19.1218 13.3798 19.0726 13.5019C19.0233 13.624 18.9987 13.7546 19 13.8863V26.5175C18.9992 26.6477 19.0245 26.7766 19.0743 26.8969C19.124 27.0171 19.1973 27.1262 19.2899 27.2177C19.3824 27.3092 19.4923 27.3814 19.613 27.4298C19.7338 27.4783 19.8631 27.5021 19.9932 27.4999H28.5573C28.688 27.5023 28.8179 27.4787 28.9395 27.4305C29.0611 27.3823 29.1718 27.3104 29.2653 27.219C29.3589 27.1276 29.4333 27.0185 29.4843 26.8981C29.5353 26.7777 29.5619 26.6483 29.5625 26.5175V13.8863C29.5625 13.6191 29.4567 13.3628 29.2684 13.1734C29.0801 12.9839 28.8244 12.8766 28.5573 12.8749ZM20.0625 15.8145C20.0621 15.7571 20.073 15.7002 20.0947 15.647C20.1163 15.5938 20.1482 15.5455 20.1885 15.5046C20.2288 15.4638 20.2768 15.4313 20.3297 15.4091C20.3826 15.3868 20.4394 15.3752 20.4968 15.3749H22.5578C22.6745 15.3752 22.7864 15.4215 22.8692 15.5038C22.952 15.5861 22.999 15.6977 23 15.8145V16.1088C22.9994 16.225 22.9528 16.3362 22.8703 16.418C22.7879 16.4999 22.6763 16.5457 22.5601 16.5453C22.468 16.5484 22.3775 16.5211 22.3023 16.4678C22.2272 16.4144 22.1717 16.3379 22.1442 16.2499H20.9375V17.4374H20.9548C21.0708 17.4374 21.1821 17.4835 21.2641 17.5655C21.3462 17.6476 21.3923 17.7589 21.3923 17.8749C21.3923 17.9909 21.3462 18.1022 21.2641 18.1843C21.1821 18.2663 21.0708 18.3124 20.9548 18.3124H20.4968C20.4396 18.3124 20.3829 18.3011 20.33 18.2791C20.2771 18.2571 20.2291 18.2248 20.1888 18.1842C20.1484 18.1436 20.1165 18.0954 20.0948 18.0424C20.0731 17.9894 20.0622 17.9327 20.0625 17.8754V15.8145ZM20.0625 19.8124C20.0625 19.6964 20.1086 19.5851 20.1906 19.503C20.2727 19.421 20.384 19.3749 20.5 19.3749H22.5625C22.6785 19.3749 22.7898 19.421 22.8719 19.503C22.9539 19.5851 23 19.6964 23 19.8124V21.8749C23 21.9909 22.9539 22.1022 22.8719 22.1843C22.7898 22.2663 22.6785 22.3124 22.5625 22.3124H20.5C20.384 22.3124 20.2727 22.2663 20.1906 22.1843C20.1086 22.1022 20.0625 21.9909 20.0625 21.8749V19.8124ZM20.9548 26.3124H20.4968C20.4403 26.3141 20.3841 26.3043 20.3315 26.2839C20.2788 26.2634 20.2308 26.2325 20.1903 26.1932C20.1498 26.1538 20.1176 26.1067 20.0957 26.0546C20.0737 26.0026 20.0624 25.9466 20.0625 25.8902V23.8292C20.0612 23.7118 20.1059 23.5984 20.187 23.5135C20.2682 23.4286 20.3794 23.3789 20.4968 23.3749H22.5578C22.676 23.3785 22.7882 23.4279 22.8707 23.5127C22.9532 23.5974 22.9996 23.7109 23 23.8292V24.2508C22.9975 24.3658 22.95 24.4753 22.8678 24.5558C22.7855 24.6362 22.6749 24.6812 22.5599 24.6811C22.4448 24.681 22.3343 24.6358 22.2522 24.5552C22.1701 24.4745 22.1228 24.365 22.1206 24.2499H20.9375V25.4374H20.9548C21.0708 25.4374 21.1821 25.4835 21.2642 25.5655C21.3462 25.6476 21.3923 25.7589 21.3923 25.8749C21.3923 25.9909 21.3462 26.1022 21.2642 26.1843C21.1821 26.2663 21.0708 26.3124 20.9548 26.3124ZM24.1838 24.6087L22.5931 26.1995C22.5524 26.2401 22.5042 26.2723 22.4511 26.2943C22.398 26.3163 22.3412 26.3276 22.2837 26.3276C22.2262 26.3276 22.1693 26.3163 22.1163 26.2943C22.0632 26.2723 22.0149 26.2401 21.9743 26.1995L21.275 25.5003C21.2344 25.4597 21.2021 25.4115 21.1802 25.3584C21.1582 25.3053 21.1469 25.2484 21.1469 25.191C21.1469 25.1335 21.1582 25.0766 21.1802 25.0235C21.2021 24.9705 21.2344 24.9222 21.275 24.8816C21.3156 24.841 21.3639 24.8087 21.4169 24.7867C21.47 24.7648 21.5269 24.7534 21.5844 24.7534C21.6418 24.7534 21.6987 24.7648 21.7518 24.7867C21.8049 24.8087 21.8531 24.841 21.8938 24.8816L22.2835 25.2714L23.5648 23.9902C23.6468 23.9081 23.7581 23.862 23.8741 23.862C23.9902 23.862 24.1015 23.9081 24.1835 23.9902C24.2656 24.0722 24.3117 24.1835 24.3117 24.2995C24.3117 24.4156 24.2659 24.5267 24.1838 24.6087ZM24.1838 16.5307L22.5931 18.1214C22.5524 18.162 22.5042 18.1943 22.4511 18.2163C22.398 18.2382 22.3412 18.2496 22.2837 18.2496C22.2262 18.2496 22.1693 18.2382 22.1163 18.2163C22.0632 18.1943 22.0149 18.162 21.9743 18.1214L21.275 17.4223C21.2344 17.3817 21.2021 17.3334 21.1802 17.2803C21.1582 17.2273 21.1469 17.1704 21.1469 17.1129C21.1469 17.0554 21.1582 16.9986 21.1802 16.9455C21.2021 16.8924 21.2344 16.8442 21.275 16.8035C21.3156 16.7629 21.3639 16.7307 21.4169 16.7087C21.47 16.6867 21.5269 16.6754 21.5844 16.6754C21.6418 16.6754 21.6987 16.6867 21.7518 16.7087C21.8049 16.7307 21.8531 16.7629 21.8938 16.8035L22.2835 17.1933L23.5648 15.9121C23.6468 15.83 23.7581 15.7839 23.8741 15.7839C23.9902 15.7839 24.1015 15.83 24.1835 15.9121C24.2656 15.9941 24.3117 16.1054 24.3117 16.2215C24.3117 16.3375 24.2659 16.4486 24.1838 16.5307ZM28.0536 25.3124H25.3057C25.1897 25.3124 25.0784 25.2663 24.9963 25.1843C24.9143 25.1022 24.8682 24.9909 24.8682 24.8749C24.8682 24.7589 24.9143 24.6476 24.9963 24.5655C25.0784 24.4835 25.1897 24.4374 25.3057 24.4374H28.0536C28.1696 24.4374 28.2809 24.4835 28.3629 24.5655C28.445 24.6476 28.4911 24.7589 28.4911 24.8749C28.4911 24.9909 28.445 25.1022 28.3629 25.1843C28.2809 25.2663 28.1696 25.3124 28.0536 25.3124ZM28.0536 21.3124H25.3057C25.1897 21.3124 25.0784 21.2663 24.9963 21.1843C24.9143 21.1022 24.8682 20.9909 24.8682 20.8749C24.8682 20.7589 24.9143 20.6476 24.9963 20.5655C25.0784 20.4835 25.1897 20.4374 25.3057 20.4374H28.0536C28.1696 20.4374 28.2809 20.4835 28.3629 20.5655C28.445 20.6476 28.4911 20.7589 28.4911 20.8749C28.4911 20.9909 28.445 21.1022 28.3629 21.1843C28.2809 21.2663 28.1696 21.3124 28.0536 21.3124ZM28.0536 17.3124H25.3057C25.1897 17.3124 25.0784 17.2663 24.9963 17.1843C24.9143 17.1022 24.8682 16.9909 24.8682 16.8749C24.8682 16.7589 24.9143 16.6476 24.9963 16.5655C25.0784 16.4835 25.1897 16.4374 25.3057 16.4374H28.0536C28.1696 16.4374 28.2809 16.4835 28.3629 16.5655C28.445 16.6476 28.4911 16.7589 28.4911 16.8749C28.4911 16.9909 28.445 17.1022 28.3629 17.1843C28.2809 17.2663 28.1696 17.3124 28.0536 17.3124Z" fill="#5EA4F2"/>
</svg>
