<svg width="32" height="32" viewBox="0 0 32 32" fill="none" xmlns="http://www.w3.org/2000/svg">
<path d="M12.7283 15.0762L23.5809 8.81046L18.4766 5.86353L7.62402 12.1292L12.7283 15.0762Z" fill="#D0D0D9"/>
<path d="M12.3125 15.8341L1.4375 9.56787V22.1012L12.3125 28.3674V15.8341Z" fill="#D0D0D9"/>
<path d="M23.125 22.25H21.9375V23.4375H23.125V22.25Z" fill="#D0D0D9"/>
<path d="M13.1875 15.8341V28.3674L19.125 24.934V15.8864C19.1226 15.3885 19.3181 14.9101 19.6684 14.5563C20.0188 14.2026 20.4953 14.0025 20.9932 14.0001H22.55C22.6387 13.679 22.8295 13.3956 23.0935 13.1926C23.3576 12.9897 23.6805 12.8782 24.0136 12.8751H24V9.56787L13.1875 15.8341Z" fill="#D0D0D9"/>
<path d="M26.5524 13.75H24.0101C23.6593 13.75 23.375 14.0343 23.375 14.3851V14.4274C23.375 14.7782 23.6593 15.0625 24.0101 15.0625H26.5524C26.9032 15.0625 27.1875 14.7782 27.1875 14.4274V14.3851C27.1875 14.0343 26.9032 13.75 26.5524 13.75Z" fill="#D0D0D9"/>
<path d="M17.6019 5.35842L12.7285 2.5448L1.87598 8.81055L6.74929 11.6242L17.6019 5.35842Z" fill="#D0D0D9"/>
<path d="M29.5573 14.875H27.9834C27.8896 15.1847 27.6979 15.4556 27.4371 15.6472C27.1763 15.8387 26.8605 15.9406 26.5369 15.9375H24.0136C23.6901 15.9406 23.3742 15.8387 23.1134 15.6472C22.8526 15.4556 22.6609 15.1847 22.5671 14.875H20.9932C20.8616 14.8761 20.7314 14.9031 20.6102 14.9545C20.489 15.006 20.3792 15.0808 20.2869 15.1747C20.1946 15.2687 20.1218 15.3799 20.0726 15.502C20.0234 15.6241 19.9987 15.7547 20.0001 15.8864V28.5176C19.9993 28.6478 20.0245 28.7767 20.0743 28.897C20.1241 29.0172 20.1974 29.1263 20.2899 29.2178C20.3824 29.3093 20.4923 29.3814 20.6131 29.4299C20.7339 29.4784 20.8631 29.5022 20.9932 29.5H29.5573C29.6881 29.5024 29.818 29.4788 29.9395 29.4306C30.0611 29.3824 30.1719 29.3105 30.2654 29.219C30.3589 29.1276 30.4334 29.0186 30.4844 28.8982C30.5354 28.7777 30.562 28.6484 30.5626 28.5176V15.8864C30.5625 15.6192 30.4568 15.3629 30.2684 15.1735C30.0801 14.984 29.8245 14.8767 29.5573 14.875ZM21.0626 17.8146C21.0622 17.7572 21.0731 17.7003 21.0947 17.6471C21.1163 17.5939 21.1482 17.5455 21.1886 17.5047C21.2289 17.4639 21.2769 17.4314 21.3298 17.4092C21.3827 17.3869 21.4395 17.3753 21.4969 17.375H23.5578C23.6745 17.3753 23.7865 17.4216 23.8693 17.5039C23.9521 17.5862 23.9991 17.6978 24.0001 17.8146V18.1089C23.9995 18.2251 23.9528 18.3363 23.8704 18.4181C23.7879 18.5 23.6764 18.5458 23.5602 18.5454C23.4681 18.5485 23.3775 18.5212 23.3024 18.4679C23.2273 18.4145 23.1717 18.338 23.1442 18.25H21.9376V19.4375H21.9548C22.0708 19.4375 22.1821 19.4836 22.2642 19.5656C22.3462 19.6477 22.3923 19.759 22.3923 19.875C22.3923 19.991 22.3462 20.1023 22.2642 20.1844C22.1821 20.2664 22.0708 20.3125 21.9548 20.3125H21.4969C21.4396 20.3125 21.3829 20.3012 21.33 20.2792C21.2772 20.2572 21.2292 20.2249 21.1888 20.1843C21.1485 20.1437 21.1165 20.0955 21.0949 20.0425C21.0732 19.9895 21.0622 19.9328 21.0626 19.8755V17.8146ZM21.0626 21.8125C21.0626 21.6965 21.1086 21.5852 21.1907 21.5031C21.2727 21.4211 21.384 21.375 21.5001 21.375H23.5626C23.6786 21.375 23.7899 21.4211 23.8719 21.5031C23.954 21.5852 24.0001 21.6965 24.0001 21.8125V23.875C24.0001 23.991 23.954 24.1023 23.8719 24.1844C23.7899 24.2664 23.6786 24.3125 23.5626 24.3125H21.5001C21.384 24.3125 21.2727 24.2664 21.1907 24.1844C21.1086 24.1023 21.0626 23.991 21.0626 23.875V21.8125ZM21.9549 28.3125H21.4969C21.4404 28.3141 21.3842 28.3044 21.3315 28.284C21.2789 28.2635 21.2309 28.2326 21.1904 28.1933C21.1499 28.1539 21.1177 28.1068 21.0957 28.0547C21.0738 28.0027 21.0625 27.9467 21.0626 27.8902V25.8293C21.0612 25.7118 21.1059 25.5985 21.1871 25.5136C21.2683 25.4287 21.3795 25.3789 21.4969 25.375H23.5578C23.676 25.3786 23.7882 25.428 23.8707 25.5128C23.9532 25.5975 23.9996 25.711 24.0001 25.8293V26.2509C23.9976 26.3659 23.9501 26.4754 23.8678 26.5559C23.7855 26.6363 23.675 26.6813 23.5599 26.6812C23.4448 26.6811 23.3344 26.6359 23.2523 26.5552C23.1701 26.4746 23.1229 26.3651 23.1206 26.25H21.9376V27.4375H21.9549C22.0709 27.4375 22.1822 27.4836 22.2642 27.5656C22.3463 27.6477 22.3924 27.759 22.3924 27.875C22.3924 27.991 22.3463 28.1023 22.2642 28.1844C22.1822 28.2664 22.0709 28.3125 21.9549 28.3125ZM25.1839 26.6088L23.5931 28.1996C23.5525 28.2402 23.5043 28.2724 23.4512 28.2944C23.3981 28.3164 23.3412 28.3277 23.2837 28.3277C23.2263 28.3277 23.1694 28.3164 23.1163 28.2944C23.0632 28.2724 23.015 28.2402 22.9744 28.1996L22.2751 27.5004C22.2344 27.4598 22.2022 27.4116 22.1802 27.3585C22.1582 27.3054 22.1469 27.2485 22.1469 27.1911C22.1469 27.1336 22.1582 27.0767 22.1802 27.0236C22.2022 26.9705 22.2344 26.9223 22.2751 26.8817C22.3157 26.8411 22.3639 26.8088 22.417 26.7868C22.4701 26.7649 22.527 26.7535 22.5844 26.7535C22.6419 26.7535 22.6988 26.7649 22.7519 26.7868C22.8049 26.8088 22.8532 26.8411 22.8938 26.8817L23.2836 27.2715L24.5648 25.9902C24.6469 25.9082 24.7581 25.8621 24.8742 25.8621C24.9902 25.8621 25.1015 25.9082 25.1836 25.9902C25.2656 26.0723 25.3117 26.1836 25.3117 26.2996C25.3117 26.4157 25.2656 26.5269 25.1836 26.609L25.1839 26.6088ZM25.1839 18.5308L23.5931 20.1215C23.5525 20.1621 23.5043 20.1944 23.4512 20.2163C23.3981 20.2383 23.3412 20.2497 23.2837 20.2497C23.2263 20.2497 23.1694 20.2383 23.1163 20.2163C23.0632 20.1944 23.015 20.1621 22.9744 20.1215L22.2751 19.4224C22.2344 19.3817 22.2022 19.3335 22.1802 19.2804C22.1582 19.2273 22.1469 19.1705 22.1469 19.113C22.1469 19.0555 22.1582 18.9987 22.1802 18.9456C22.2022 18.8925 22.2344 18.8443 22.2751 18.8036C22.3157 18.763 22.3639 18.7308 22.417 18.7088C22.4701 18.6868 22.527 18.6755 22.5844 18.6755C22.6419 18.6755 22.6988 18.6868 22.7519 18.7088C22.8049 18.7308 22.8532 18.763 22.8938 18.8036L23.2836 19.1934L24.5648 17.9122C24.6469 17.8301 24.7581 17.784 24.8742 17.784C24.9902 17.784 25.1015 17.8301 25.1836 17.9122C25.2656 17.9942 25.3117 18.1055 25.3117 18.2216C25.3117 18.3376 25.2656 18.4489 25.1836 18.5309L25.1839 18.5308ZM29.0536 27.3125H26.3057C26.1897 27.3125 26.0784 27.2664 25.9964 27.1844C25.9143 27.1023 25.8682 26.991 25.8682 26.875C25.8682 26.759 25.9143 26.6477 25.9964 26.5656C26.0784 26.4836 26.1897 26.4375 26.3057 26.4375H29.0536C29.1697 26.4375 29.2809 26.4836 29.363 26.5656C29.445 26.6477 29.4911 26.759 29.4911 26.875C29.4911 26.991 29.445 27.1023 29.363 27.1844C29.2809 27.2664 29.1697 27.3125 29.0536 27.3125ZM29.0536 23.3125H26.3057C26.1897 23.3125 26.0784 23.2664 25.9964 23.1844C25.9143 23.1023 25.8682 22.991 25.8682 22.875C25.8682 22.759 25.9143 22.6477 25.9964 22.5656C26.0784 22.4836 26.1897 22.4375 26.3057 22.4375H29.0536C29.1697 22.4375 29.2809 22.4836 29.363 22.5656C29.445 22.6477 29.4911 22.759 29.4911 22.875C29.4911 22.991 29.445 23.1023 29.363 23.1844C29.2809 23.2664 29.1697 23.3125 29.0536 23.3125ZM29.0536 19.3125H26.3057C26.1897 19.3125 26.0784 19.2664 25.9964 19.1844C25.9143 19.1023 25.8682 18.991 25.8682 18.875C25.8682 18.759 25.9143 18.6477 25.9964 18.5656C26.0784 18.4836 26.1897 18.4375 26.3057 18.4375H29.0536C29.1697 18.4375 29.2809 18.4836 29.363 18.5656C29.445 18.6477 29.4911 18.759 29.4911 18.875C29.4911 18.991 29.445 19.1023 29.363 19.1844C29.2809 19.2664 29.1697 19.3125 29.0536 19.3125Z" fill="#D0D0D9"/>
</svg>
