<svg width="28" height="32" viewBox="0 0 28 32" fill="none" xmlns="http://www.w3.org/2000/svg">
<path fill-rule="evenodd" clip-rule="evenodd" d="M13.515 31.009C19.497 31.009 24.363 26.148 24.363 20.174C24.363 19.529 24.888 19.005 25.533 19.005C26.361 19.005 27.034 18.334 27.034 17.506C27.034 16.975 26.753 16.493 26.278 16.216C25.921 16.007 25.697 15.624 25.697 15.207V6.835C25.697 5.351 24.88 3.966 23.558 3.222C23.25 3.047 23.034 2.74 22.981 2.391C22.76 1.006 21.587 0 20.193 0H9.511C5.003 0 1.333 3.666 1.333 8.171V13.677C1.39 13.674 1.447 13.67 1.5 13.67H3.21C3.282 13.67 3.343 13.624 3.366 13.556L4.399 10.467C4.558 9.992 5.003 9.67 5.508 9.67C5.61 9.67 15.976 9.639 21.005 7.127C21.583 6.839 22.282 7.07 22.57 7.647C22.859 8.224 22.627 8.926 22.05 9.214C17.363 11.556 9.037 11.931 6.351 11.992L5.584 14.296C5.242 15.32 4.289 16.007 3.21 16.007H1.5C1.265 16.007 1.033 16.064 0.824 16.171C0.802 16.186 0.779 16.205 0.756 16.216C0.281 16.493 0 16.975 0 17.506C0 18.334 0.672 19.005 1.5 19.005C2.146 19.005 2.67 19.529 2.67 20.174C2.67 26.148 7.536 31.009 13.515 31.009ZM17.093 24.911C16.181 26.034 14.879 26.675 13.515 26.675C12.155 26.675 10.848 26.034 9.941 24.911C9.534 24.41 9.61 23.673 10.112 23.267C10.613 22.861 11.346 22.941 11.752 23.442C12.227 24.022 12.854 24.341 13.515 24.341C14.18 24.341 14.806 24.022 15.277 23.442C15.684 22.941 16.421 22.861 16.922 23.267C17.424 23.673 17.5 24.41 17.093 24.911ZM18.856 20.007C18.21 20.007 17.689 19.484 17.689 18.838V17.506C17.689 16.861 18.21 16.338 18.856 16.338C19.501 16.338 20.025 16.861 20.025 17.506V18.838C20.025 19.484 19.501 20.007 18.856 20.007ZM9.344 17.506V18.838C9.344 19.484 8.82 20.007 8.178 20.007C7.532 20.007 7.008 19.484 7.008 18.838V17.506C7.008 16.861 7.532 16.338 8.178 16.338C8.82 16.338 9.344 16.861 9.344 17.506Z" fill="#D0D0D9"/>
</svg>
