<svg width="32" height="42" viewBox="0 0 32 42" fill="none" xmlns="http://www.w3.org/2000/svg">
<path fill-rule="evenodd" clip-rule="evenodd" d="M30.902 34.228H29.925C29.455 34.228 29.072 34.609 29.072 35.079V35.925C29.072 35.93 29.072 35.939 29.072 35.947V36.049C29.072 39.33 26.388 42 23.091 42C19.793 42 17.112 39.33 17.112 36.049V35.079C17.112 34.609 16.729 34.228 16.257 34.228H15.282C14.676 34.228 14.182 33.739 14.182 33.136C14.182 32.749 14.387 32.398 14.734 32.196C14.812 32.152 14.879 32.097 14.937 32.031C17.048 31.97 23.896 31.574 28.397 29.018C28.808 28.783 28.949 28.263 28.716 27.857C28.48 27.448 27.958 27.307 27.549 27.539C23.607 29.781 17.412 30.231 15.159 30.32V30.22C15.159 28.976 15.457 27.763 16.01 26.674C18.149 26.193 20.513 25.386 22.357 24.195L23.091 23.722L23.052 23.421L23.091 23.402L28.566 26.124C28.688 26.185 28.819 26.215 28.949 26.215C29.105 26.215 29.261 26.171 29.399 26.088C29.511 26.019 29.602 25.925 29.672 25.817C30.544 27.108 31.025 28.639 31.025 30.22V31.461C31.025 31.765 31.186 32.044 31.45 32.196C31.794 32.398 32 32.749 32 33.136C32 33.739 31.508 34.228 30.902 34.228ZM20.176 33.26C19.707 33.26 19.324 33.642 19.324 34.112C19.324 34.582 19.707 34.96 20.176 34.96C20.649 34.96 21.032 34.582 21.032 34.112C21.032 33.642 20.649 33.26 20.176 33.26ZM24.38 37.456C24.035 37.882 23.577 38.114 23.091 38.114C22.604 38.114 22.149 37.882 21.802 37.456C21.504 37.091 20.965 37.036 20.601 37.332C20.235 37.627 20.176 38.164 20.474 38.528C21.14 39.347 22.096 39.814 23.091 39.814C24.088 39.814 25.041 39.347 25.707 38.528C26.005 38.164 25.949 37.627 25.583 37.332C25.216 37.036 24.677 37.091 24.38 37.456ZM25.988 33.26C25.516 33.26 25.135 33.642 25.135 34.112C25.135 34.582 25.516 34.96 25.988 34.96C26.46 34.96 26.844 34.582 26.844 34.112C26.844 33.642 26.46 33.26 25.988 33.26ZM28.094 20.911V23.988L25.002 22.451L28.094 20.911ZM15.559 24.004C18.582 22.302 20.443 19.112 20.443 15.663C20.443 10.859 16.948 10.168 13.57 9.502C11.423 9.076 9.198 8.637 7.428 7.23C7.006 6.89 6.375 7.029 6.131 7.512C6.114 7.545 4.35 10.928 2.014 10.928C1.619 10.928 1.244 11.009 0.903 11.158C0.911 10.718 0.917 10.276 0.917 9.837C0.917 4.411 5.35 0 10.801 0C16.251 0 20.685 4.411 20.685 9.837C20.685 15.541 21.377 21.31 21.602 23.037C20.827 23.537 18.849 24.64 15.559 25.359V24.004ZM2.867 15.663C2.867 15.193 2.486 14.814 2.014 14.814C1.408 14.814 0.917 14.322 0.917 13.72C0.917 13.117 1.408 12.628 2.014 12.628C4.514 12.628 6.328 10.395 7.159 9.123C9.081 10.348 11.276 10.782 13.237 11.169C16.848 11.882 18.732 12.407 18.732 15.663C18.732 19.999 15.207 23.557 10.801 23.557C8.965 23.557 7.242 22.951 5.817 21.804C3.945 20.301 2.867 18.048 2.867 15.663ZM13.851 14.693C13.851 15.163 14.234 15.541 14.707 15.541C15.179 15.541 15.562 15.163 15.562 14.693V13.72C15.562 13.253 15.179 12.871 14.707 12.871C14.234 12.871 13.851 13.253 13.851 13.72V14.693ZM8.184 19.112C8.851 19.93 9.803 20.4 10.801 20.4C11.798 20.4 12.751 19.93 13.418 19.112C13.715 18.75 13.659 18.214 13.293 17.918C12.926 17.622 12.387 17.678 12.09 18.043C11.745 18.466 11.287 18.7 10.801 18.7C10.315 18.7 9.856 18.466 9.512 18.043C9.214 17.678 8.676 17.622 8.309 17.918C7.942 18.214 7.887 18.75 8.184 19.112ZM6.042 14.693C6.042 15.163 6.423 15.541 6.895 15.541C7.367 15.541 7.751 15.163 7.751 14.693V13.72C7.751 13.253 7.367 12.871 6.895 12.871C6.423 12.871 6.042 13.253 6.042 13.72V14.693ZM6.042 24.004V25.356C2.75 24.64 0.772 23.534 0 23.037C0.139 21.97 0.456 19.358 0.678 16.174C0.839 16.263 1.008 16.334 1.186 16.39C1.425 19.568 3.25 22.432 6.042 24.004Z" fill="#5EA4F2"/>
</svg>
