<svg width="32" height="26" viewBox="0 0 32 26" fill="none" xmlns="http://www.w3.org/2000/svg">
<path d="M31.5885 20.0154H30.5888V14.4242C30.5888 13.77 30.3913 13.1281 30.0251 12.5851L27.5195 8.87396C26.9064 7.96881 25.8861 7.4257 24.7917 7.4257H20.9078C20.4511 7.4257 20.0849 7.796 20.0849 8.2486V20.0156H13.7242C14.329 20.538 14.7445 21.2663 14.8638 22.0892H21.5702C21.8087 20.4558 23.2159 19.1927 24.9151 19.1927C26.6143 19.1927 28.0173 20.4558 28.256 22.0892H31.5886C31.8149 22.0892 32 21.904 32 21.6777V20.427C31.9999 20.2007 31.8148 20.0154 31.5885 20.0154ZM27.4907 13.3256H22.3642C22.138 13.3256 21.9528 13.1445 21.9528 12.9142V10.0712C21.9528 9.84489 22.138 9.65974 22.3642 9.65974H25.487C25.6228 9.65974 25.7462 9.72557 25.8244 9.83255L27.828 12.6797C28.0173 12.9512 27.8239 13.3256 27.4907 13.3256ZM24.9151 20.0154C23.4998 20.0154 22.356 21.1633 22.356 22.5786C22.356 23.9899 23.4998 25.1377 24.9151 25.1377C26.3263 25.1377 27.4742 23.9899 27.4742 22.5786C27.4742 21.1634 26.3263 20.0154 24.9151 20.0154ZM24.9151 23.8583C24.2074 23.8583 23.6355 23.2823 23.6355 22.5788C23.6355 21.8711 24.2074 21.2992 24.9151 21.2992C25.6227 21.2992 26.1947 21.8711 26.1947 22.5788C26.1947 23.2823 25.6228 23.8583 24.9151 23.8583ZM3.57824 20.0154C3.35194 20.0154 3.16679 20.2007 3.16679 20.4269V21.6777C3.16679 21.904 3.35194 22.0892 3.57824 22.0892H8.17803C8.29735 21.2663 8.71287 20.538 9.31361 20.0156H3.57824V20.0154ZM11.5188 20.0154C10.1076 20.0154 8.95972 21.1633 8.95972 22.5786C8.95972 23.9899 10.1076 25.1377 11.5188 25.1377C12.9341 25.1377 14.0779 23.9899 14.0779 22.5786C14.078 21.1634 12.9342 20.0154 11.5188 20.0154ZM11.5188 23.8583C10.8112 23.8583 10.2393 23.2823 10.2393 22.5788C10.2393 21.8711 10.8112 21.2992 11.5188 21.2992C12.2265 21.2992 12.7984 21.8711 12.7984 22.5788C12.7984 23.2823 12.2265 23.8583 11.5188 23.8583ZM17.6739 4.8748H12.9054C13.1399 5.57012 13.2634 6.3148 13.2634 7.08421C13.2634 10.9681 10.1036 14.1279 6.21965 14.1279C5.51194 14.1279 4.82488 14.021 4.17892 13.8276V18.3739C4.17892 18.6002 4.36407 18.7854 4.59037 18.7854H18.4968C18.7231 18.7854 18.9082 18.6002 18.9082 18.3739V6.1091C18.9082 5.42612 18.3568 4.8748 17.6739 4.8748ZM6.22059 0.862305C2.78504 0.862305 0 3.6473 0 7.08285C0 10.5184 2.78504 13.3035 6.22059 13.3035C9.65614 13.3035 12.4412 10.5184 12.4412 7.08285C12.4412 3.6473 9.65614 0.862305 6.22059 0.862305ZM6.22059 11.8879C3.5669 11.8879 1.41558 9.7366 1.41558 7.08285C1.41558 4.4291 3.5669 2.27783 6.22059 2.27783C8.87434 2.27783 11.0256 4.42915 11.0256 7.08285C11.0256 9.7366 8.87434 11.8879 6.22059 11.8879ZM8.05573 8.09765C8.00271 8.09765 7.94843 8.0908 7.89458 8.07637L5.88972 7.53598C5.62054 7.46324 5.4333 7.21901 5.4333 6.94011V3.85436C5.4333 3.51365 5.70974 3.23721 6.05045 3.23721C6.39115 3.23721 6.6676 3.51365 6.6676 3.85436V6.46722L8.21604 6.88463C8.54514 6.97341 8.73996 7.31218 8.65118 7.64118C8.57687 7.91642 8.32778 8.09765 8.05573 8.09765Z" fill="#D0D0D9"/>
</svg>
