<svg width="32" height="32" viewBox="0 0 32 32" fill="none" xmlns="http://www.w3.org/2000/svg">
<path d="M31.5885 23.0154H30.5888V17.4242C30.5888 16.77 30.3913 16.1281 30.0251 15.5851L27.5195 11.874C26.9064 10.9688 25.8861 10.4257 24.7917 10.4257H20.9078C20.4511 10.4257 20.0849 10.796 20.0849 11.2486V23.0156H13.7242C14.329 23.538 14.7445 24.2663 14.8638 25.0892H21.5702C21.8087 23.4558 23.2159 22.1927 24.9151 22.1927C26.6143 22.1927 28.0173 23.4558 28.256 25.0892H31.5886C31.8149 25.0892 32 24.904 32 24.6777V23.427C31.9999 23.2007 31.8148 23.0154 31.5885 23.0154ZM27.4907 16.3256H22.3642C22.138 16.3256 21.9528 16.1445 21.9528 15.9142V13.0712C21.9528 12.8449 22.138 12.6597 22.3642 12.6597H25.487C25.6228 12.6597 25.7462 12.7256 25.8244 12.8326L27.828 15.6797C28.0173 15.9512 27.8239 16.3256 27.4907 16.3256ZM24.9151 23.0154C23.4998 23.0154 22.356 24.1633 22.356 25.5786C22.356 26.9899 23.4998 28.1377 24.9151 28.1377C26.3263 28.1377 27.4742 26.9899 27.4742 25.5786C27.4742 24.1634 26.3263 23.0154 24.9151 23.0154ZM24.9151 26.8583C24.2074 26.8583 23.6355 26.2823 23.6355 25.5788C23.6355 24.8711 24.2074 24.2992 24.9151 24.2992C25.6227 24.2992 26.1947 24.8711 26.1947 25.5788C26.1947 26.2823 25.6228 26.8583 24.9151 26.8583ZM3.57824 23.0154C3.35194 23.0154 3.16679 23.2007 3.16679 23.4269V24.6777C3.16679 24.904 3.35194 25.0892 3.57824 25.0892H8.17803C8.29735 24.2663 8.71287 23.538 9.31361 23.0156H3.57824V23.0154ZM11.5188 23.0154C10.1076 23.0154 8.95972 24.1633 8.95972 25.5786C8.95972 26.9899 10.1076 28.1377 11.5188 28.1377C12.9341 28.1377 14.0779 26.9899 14.0779 25.5786C14.078 24.1634 12.9342 23.0154 11.5188 23.0154ZM11.5188 26.8583C10.8112 26.8583 10.2393 26.2823 10.2393 25.5788C10.2393 24.8711 10.8112 24.2992 11.5188 24.2992C12.2265 24.2992 12.7984 24.8711 12.7984 25.5788C12.7984 26.2823 12.2265 26.8583 11.5188 26.8583ZM17.6739 7.8748H12.9054C13.1399 8.57012 13.2634 9.3148 13.2634 10.0842C13.2634 13.9681 10.1036 17.1279 6.21965 17.1279C5.51194 17.1279 4.82488 17.021 4.17892 16.8276V21.3739C4.17892 21.6002 4.36407 21.7854 4.59037 21.7854H18.4968C18.7231 21.7854 18.9082 21.6002 18.9082 21.3739V9.1091C18.9082 8.42612 18.3568 7.8748 17.6739 7.8748ZM6.22059 3.8623C2.78504 3.8623 0 6.6473 0 10.0829C0 13.5184 2.78504 16.3035 6.22059 16.3035C9.65614 16.3035 12.4412 13.5184 12.4412 10.0829C12.4412 6.6473 9.65614 3.8623 6.22059 3.8623ZM6.22059 14.8879C3.5669 14.8879 1.41558 12.7366 1.41558 10.0829C1.41558 7.4291 3.5669 5.27783 6.22059 5.27783C8.87434 5.27783 11.0256 7.42915 11.0256 10.0829C11.0256 12.7366 8.87434 14.8879 6.22059 14.8879ZM8.05573 11.0976C8.00271 11.0976 7.94843 11.0908 7.89458 11.0764L5.88972 10.536C5.62054 10.4632 5.4333 10.219 5.4333 9.94011V6.85436C5.4333 6.51365 5.70974 6.23721 6.05045 6.23721C6.39115 6.23721 6.6676 6.51365 6.6676 6.85436V9.46722L8.21604 9.88463C8.54514 9.97341 8.73996 10.3122 8.65118 10.6412C8.57687 10.9164 8.32778 11.0976 8.05573 11.0976Z" fill="#5EA4F2"/>
</svg>
