<svg width="29" height="34" viewBox="0 0 29 34" fill="none" xmlns="http://www.w3.org/2000/svg">
<path fill-rule="evenodd" clip-rule="evenodd" d="M20.889 34V32.184C24.947 29.901 27.446 25.625 27.446 21C27.446 14.56 22.754 13.633 18.219 12.74C15.336 12.17 12.349 11.58 9.973 9.694C9.406 9.238 8.56 9.424 8.232 10.072C8.209 10.116 5.841 14.652 2.704 14.652C2.175 14.652 1.671 14.76 1.213 14.96C1.224 14.371 1.231 13.778 1.231 13.189C1.231 5.914 7.183 0 14.501 0C21.818 0 27.77 5.914 27.77 13.189C27.77 20.837 28.699 28.571 29.001 30.887C27.96 31.558 25.305 33.037 20.889 34ZM3.849 21C3.849 20.37 3.338 19.863 2.704 19.863C1.891 19.863 1.231 19.203 1.231 18.395C1.231 17.587 1.891 16.931 2.704 16.931C6.061 16.931 8.496 13.937 9.611 12.233C12.192 13.874 15.138 14.456 17.772 14.975C22.62 15.931 25.148 16.635 25.148 21C25.148 26.815 20.416 31.584 14.501 31.584C12.036 31.584 9.723 30.772 7.81 29.234C5.296 27.218 3.849 24.198 3.849 21ZM18.596 19.7C18.596 20.33 19.11 20.837 19.744 20.837C20.378 20.837 20.893 20.33 20.893 19.7V18.395C20.893 17.769 20.378 17.258 19.744 17.258C19.11 17.258 18.596 17.769 18.596 18.395V19.7ZM10.988 25.625C11.883 26.722 13.162 27.352 14.501 27.352C15.84 27.352 17.119 26.722 18.014 25.625C18.413 25.14 18.338 24.421 17.846 24.024C17.354 23.628 16.63 23.702 16.231 24.191C15.769 24.758 15.153 25.073 14.501 25.073C13.848 25.073 13.233 24.758 12.77 24.191C12.371 23.702 11.648 23.628 11.155 24.024C10.663 24.421 10.589 25.14 10.988 25.625ZM8.112 19.7C8.112 20.33 8.623 20.837 9.257 20.837C9.891 20.837 10.406 20.33 10.406 19.7V18.395C10.406 17.769 9.891 17.258 9.257 17.258C8.623 17.258 8.112 17.769 8.112 18.395V19.7ZM8.112 32.184V33.996C3.693 33.037 1.037 31.554 0 30.887C0.187 29.457 0.612 25.955 0.911 21.686C1.127 21.804 1.354 21.901 1.593 21.975C1.914 26.236 4.364 30.076 8.112 32.184Z" fill="#D0D0D9"/>
</svg>
