<svg width="18" height="19" viewBox="0 0 18 19" fill="none" xmlns="http://www.w3.org/2000/svg">
<path d="M15.08 5.88L14.46 17.44C14.44 17.86 14.08 18.2 13.66 18.2H3.52C3.1 18.2 2.74 17.86 2.72 17.44L2.1 5.88C2.08 5.44 2.42001 5.05999 2.86001 5.03999C3.30001 5.01999 3.68 5.36 3.7 5.8L4.28 16.6H12.9L13.48 5.8C13.5 5.36 13.88 5.01999 14.32 5.03999C14.76 5.05999 15.1 5.44 15.08 5.88ZM17.2 3.2C17.2 3.64 16.84 4 16.4 4H0.8C0.36 4 0 3.64 0 3.2C0 2.76 0.36 2.4 0.8 2.4H5.2V0.6C5.2 0.22 5.45999 0 5.83999 0H11.36C11.74 0 12 0.22 12 0.6V2.4H16.4C16.84 2.4 17.2 2.76 17.2 3.2ZM6.6 2.4H10.6V1.4H6.6V2.4ZM6.93999 15.4C7.33999 15.4 7.63999 15.02 7.63999 14.64L7.43999 6C7.43999 5.62 7.12 5.3 6.72 5.3C6.34 5.3 6.01999 5.62 6.03999 6.02L6.23999 14.68C6.23999 15.06 6.55999 15.4 6.93999 15.4ZM10.24 15.4C10.62 15.4 10.94 15.08 10.94 14.7L11.14 6.06001C11.14 5.68001 10.84 5.33999 10.46 5.33999C10.06 5.33999 9.75999 5.64 9.73999 6.02L9.53999 14.66C9.51999 15.06 9.83999 15.4 10.24 15.4C10.22 15.4 10.22 15.4 10.24 15.4Z" fill="url(#paint0_linear)"/>
<defs>
<linearGradient id="paint0_linear" x1="0" y1="18.2" x2="17.9503" y2="18.2" gradientUnits="userSpaceOnUse">
<stop stop-color="#FFB911"/>
<stop offset="0.494792" stop-color="#F14922"/>
<stop offset="1" stop-color="#FFB911"/>
</linearGradient>
</defs>
</svg>
