<svg width="38" height="28" viewBox="0 0 38 28" fill="none" xmlns="http://www.w3.org/2000/svg">
<path d="M29.2916 14C33.2206 14 36.4166 10.86 36.4166 6.99999C36.4166 3.14001 33.2205 0 29.2916 0C25.3627 0 22.1666 3.14001 22.1666 6.99999C22.1666 10.86 25.3626 14 29.2916 14ZM27.3542 3.97089L28.9375 3.19309C29.1826 3.07307 29.4749 3.08372 29.7075 3.22729C29.941 3.36933 30.0833 3.61922 30.0833 3.88886V10.1111C30.0833 10.541 29.7292 10.8889 29.2916 10.8889C28.854 10.8889 28.4999 10.541 28.4999 10.1111V5.1474L28.0623 5.36236C27.6719 5.55223 27.1957 5.39882 27 5.01447C26.8045 4.6302 26.963 4.1631 27.3542 3.97089Z" fill="url(#paint0_linear)"/>
<path d="M7.39402 12.171L0.946286 10.9041C0.715912 10.8585 0.473143 10.9178 0.289155 11.0651C0.106652 11.2132 0 11.4335 0 11.6667V24.1111C0 24.541 0.354097 24.8889 0.791689 24.8889H5.75194C6.92704 24.8889 7.93827 24.0276 8.10377 22.886L9.28044 14.7892C9.45826 13.5632 8.63102 12.4133 7.39402 12.171Z" fill="url(#paint1_linear)"/>
<path d="M33.25 17.8889C32.2616 17.8889 30.5945 18.2351 29.0957 18.6045C28.7287 18.695 28.4912 19.0261 28.4995 19.3977C28.4999 19.4132 28.5 19.4287 28.5 19.4444C28.5 20.6209 27.9728 21.6539 27.0172 22.355C26.091 23.0341 24.902 23.3508 23.2753 23.3508C21.145 23.3508 18.2457 22.8087 14.4109 21.6946C14.0151 21.5796 13.7354 21.1931 13.8128 20.7947C13.902 20.3354 14.3739 20.0603 14.816 20.1902C18.4744 21.2551 21.3194 21.7951 23.2753 21.7951C24.9406 21.7951 25.6689 21.4032 26.0709 21.1077C26.6244 20.7021 26.9167 20.1271 26.9167 19.4443C26.9167 19.3138 26.8925 19.1963 26.8757 19.0747C26.5761 16.9274 23.6982 16.1607 20.7411 15.5706C19.3681 15.2971 18.346 14.8133 17.358 14.3446C16.1396 13.7673 14.9892 13.222 13.4584 13.222C12.8516 13.222 12.2106 13.2654 11.5527 13.3507C11.1372 13.4045 10.8373 13.7705 10.8687 14.1811C10.8917 14.4826 10.8854 14.753 10.8468 15.0092L9.67018 23.1082C9.65935 23.1812 9.63768 23.2496 9.61912 23.3186C9.61756 23.3255 9.57889 23.4682 9.57734 23.4743C9.48612 23.8396 9.67323 24.2172 10.0226 24.3706C13.7893 26.0267 18.8176 28 21.375 28C24.4458 28 30.7684 24.9466 34.9509 22.9262C36.0305 22.405 36.9251 21.9723 37.5099 21.7198C37.7933 21.5975 37.9965 21.3324 37.9998 21.0284C38.0201 19.1812 36.0616 17.8889 33.25 17.8889Z" fill="url(#paint2_linear)"/>
<defs>
<linearGradient id="paint0_linear" x1="0" y1="28" x2="39.6577" y2="28" gradientUnits="userSpaceOnUse">
<stop stop-color="#FFB911"/>
<stop offset="0.494792" stop-color="#F14922"/>
<stop offset="1" stop-color="#FFB911"/>
</linearGradient>
<linearGradient id="paint1_linear" x1="0" y1="28" x2="39.6577" y2="28" gradientUnits="userSpaceOnUse">
<stop stop-color="#FFB911"/>
<stop offset="0.494792" stop-color="#F14922"/>
<stop offset="1" stop-color="#FFB911"/>
</linearGradient>
<linearGradient id="paint2_linear" x1="0" y1="28" x2="39.6577" y2="28" gradientUnits="userSpaceOnUse">
<stop stop-color="#FFB911"/>
<stop offset="0.494792" stop-color="#F14922"/>
<stop offset="1" stop-color="#FFB911"/>
</linearGradient>
</defs>
</svg>
