<svg width="38" height="40" viewBox="0 0 38 40" fill="none" xmlns="http://www.w3.org/2000/svg">
<path d="M6.32102 5.40314V26.4508C7.21537 26.1282 8.18207 25.9525 9.19008 25.9525C10.0152 25.9525 10.8133 26.0703 11.566 26.2906V4.36157C11.566 1.95312 9.58509 0 7.14115 0H2.62188C1.17415 0 0 1.15692 0 2.58514C0 3.29834 0.293459 3.94531 0.767962 4.41315C1.24247 4.88129 1.89832 5.17029 2.62188 5.17029H6.08407C6.21512 5.17029 6.32102 5.27435 6.32102 5.40314Z" fill="url(#paint0_linear)"/>
<path d="M37.232 32.7939C36.7575 32.3257 36.1017 32.0367 35.3781 32.0367H17.2495C17.4324 32.7103 17.5293 33.418 17.5293 34.1486C17.5293 35.2298 17.3163 36.2616 16.9284 37.207H35.3781C36.8259 37.207 38 36.0492 38 34.6219C38 33.9078 37.7065 33.2617 37.232 32.7939Z" fill="url(#paint1_linear)"/>
<path d="M9.18977 28.2965C5.9111 28.2965 3.2532 30.9164 3.2532 34.1483C3.2532 37.3801 5.9111 40 9.18977 40C12.4684 40 15.1263 37.3801 15.1263 34.1483C15.1263 30.9164 12.4684 28.2965 9.18977 28.2965ZM10.4565 34.8547C10.4565 35.5423 9.88942 36.0995 9.18977 36.0995C8.49013 36.0995 7.92308 35.5423 7.92308 34.8547V33.4418C7.92308 32.7542 8.49013 32.1967 9.18977 32.1967C9.88942 32.1967 10.4565 32.7542 10.4565 33.4418V34.8547Z" fill="url(#paint2_linear)"/>
<path d="M34.9257 11.5439C34.9257 10.1492 33.7714 9.01489 32.3525 9.01489H13.951V27.3538C14.868 27.9752 15.6527 28.7714 16.2558 29.693H34.9257V11.5439ZM28.6304 21.8161C29.0959 22.2739 29.0959 23.0157 28.6304 23.4735C28.3975 23.7024 28.0923 23.8168 27.7873 23.8168C27.4821 23.8168 27.1768 23.7024 26.9442 23.4735L24.4385 21.011L21.933 23.4735C21.7001 23.7024 21.3949 23.8168 21.0899 23.8168C20.7847 23.8168 20.4794 23.7024 20.2468 23.4735C19.781 23.0157 19.781 22.2739 20.2468 21.8161L22.7522 19.3539L20.2468 16.8918C19.781 16.434 19.781 15.6921 20.2468 15.2344C20.7123 14.7766 21.4672 14.7766 21.933 15.2344L24.4385 17.6965L26.9439 15.2344C27.4097 14.7766 28.1646 14.7769 28.6304 15.2344C29.0959 15.6921 29.0959 16.434 28.6304 16.8918L26.1247 19.3539L28.6304 21.8161Z" fill="url(#paint3_linear)"/>
<defs>
<linearGradient id="paint0_linear" x1="0" y1="40" x2="39.6577" y2="40" gradientUnits="userSpaceOnUse">
<stop stop-color="#FFB911"/>
<stop offset="0.494792" stop-color="#F14922"/>
<stop offset="1" stop-color="#FFB911"/>
</linearGradient>
<linearGradient id="paint1_linear" x1="0" y1="40" x2="39.6577" y2="40" gradientUnits="userSpaceOnUse">
<stop stop-color="#FFB911"/>
<stop offset="0.494792" stop-color="#F14922"/>
<stop offset="1" stop-color="#FFB911"/>
</linearGradient>
<linearGradient id="paint2_linear" x1="0" y1="40" x2="39.6577" y2="40" gradientUnits="userSpaceOnUse">
<stop stop-color="#FFB911"/>
<stop offset="0.494792" stop-color="#F14922"/>
<stop offset="1" stop-color="#FFB911"/>
</linearGradient>
<linearGradient id="paint3_linear" x1="0" y1="40" x2="39.6577" y2="40" gradientUnits="userSpaceOnUse">
<stop stop-color="#FFB911"/>
<stop offset="0.494792" stop-color="#F14922"/>
<stop offset="1" stop-color="#FFB911"/>
</linearGradient>
</defs>
</svg>
