<svg width="60" height="60" viewBox="0 0 60 60" fill="none" xmlns="http://www.w3.org/2000/svg">
<path d="M52.5 60H7.5C3.3585 60 0 56.6415 0 52.5V7.5C0 3.3585 3.3585 0 7.5 0H52.5C56.6415 0 60 3.3585 60 7.5V52.5C60 56.6415 56.6415 60 52.5 60ZM57 7.5C57 5.0145 54.9855 3 52.5 3H7.5C5.0145 3 3 5.0145 3 7.5V52.5C3 54.9855 5.0145 57 7.5 57H52.5C54.9855 57 57 54.9855 57 52.5V7.5Z" fill="url(#paint0_linear)"/>
<path d="M30.0014 34.995C28.6214 34.995 27.4439 34.509 26.4674 33.531C25.4909 32.556 25.0034 31.3785 25.0034 29.997C25.0034 28.6185 25.4909 27.4395 26.4674 26.463C27.4439 25.4865 28.6214 24.999 30.0014 24.999C31.3814 24.999 32.5604 25.4865 33.5354 26.463C34.5119 27.4395 35.0009 28.6185 35.0009 29.997C35.0009 31.3785 34.5119 32.556 33.5354 33.531C32.5604 34.509 31.3814 34.995 30.0014 34.995ZM30.0014 22.305C27.8669 22.305 26.0504 23.0535 24.5534 24.5505C23.0564 26.0475 22.3079 27.8625 22.3079 29.997C22.3079 32.133 23.0564 33.9495 24.5534 35.445C26.0504 36.942 27.8669 37.692 30.0014 37.692C32.1359 37.692 33.9524 36.942 35.4494 35.445C36.9464 33.9495 37.6949 32.133 37.6949 29.997C37.6949 27.8625 36.9464 26.0475 35.4494 24.5505C33.9524 23.0535 32.1359 22.305 30.0014 22.305ZM38.0069 20.196C37.5119 20.196 37.0904 20.37 36.7379 20.7225C36.3869 21.075 36.2114 21.498 36.2114 21.9915C36.2114 22.4865 36.3869 22.9095 36.7379 23.262C37.0904 23.613 37.5119 23.7885 38.0069 23.7885C38.5019 23.7885 38.9249 23.613 39.2759 23.262C39.6284 22.9095 39.8039 22.4865 39.8039 21.9915C39.8039 21.498 39.6284 21.075 39.2759 20.7225C38.9249 20.37 38.5019 20.196 38.0069 20.196ZM33.5549 17.6865C34.0244 17.6925 34.6514 17.712 35.4404 17.745C36.2279 17.778 36.8969 17.8425 37.4504 17.94C38.0039 18.036 38.4689 18.159 38.8469 18.3015C39.4979 18.5625 40.0709 18.939 40.5659 19.4325C41.0594 19.929 41.4374 20.5005 41.6984 21.153C41.8409 21.5295 41.9609 21.9945 42.0599 22.548C42.1574 23.1015 42.2219 23.772 42.2549 24.5595C42.2864 25.347 42.3059 25.9755 42.3134 26.4435C42.3194 26.9115 42.3194 27.6 42.3134 28.503C42.3059 29.409 42.3029 29.9055 42.3029 29.997C42.3029 30.09 42.3059 30.5865 42.3134 31.4925C42.3194 32.397 42.3194 33.0825 42.3134 33.552C42.3059 34.02 42.2864 34.647 42.2549 35.4345C42.2219 36.2235 42.1574 36.894 42.0599 37.446C41.9609 37.9995 41.8409 38.466 41.6984 38.844C41.4374 39.495 41.0594 40.068 40.5659 40.5615C40.0709 41.0565 39.4979 41.433 38.8469 41.694C38.4689 41.838 38.0039 41.958 37.4504 42.0555C36.8969 42.153 36.2279 42.2175 35.4404 42.2505C34.6514 42.282 34.0244 42.303 33.5549 42.309C33.0869 42.315 32.3999 42.315 31.4954 42.309C30.5909 42.303 30.0929 42.2985 30.0014 42.2985C29.9099 42.2985 29.4119 42.303 28.5074 42.309C27.6029 42.315 26.9159 42.315 26.4479 42.309C25.9799 42.303 25.3514 42.282 24.5639 42.2505C23.7764 42.2175 23.1059 42.153 22.5524 42.0555C21.9989 41.958 21.5339 41.838 21.1559 41.694C20.5049 41.433 19.9319 41.0565 19.4384 40.5615C18.9434 40.068 18.5654 39.495 18.3059 38.844C18.1619 38.466 18.0419 37.9995 17.9444 37.446C17.8469 36.894 17.7809 36.2235 17.7494 35.4345C17.7164 34.647 17.6969 34.02 17.6909 33.552C17.6834 33.0825 17.6834 32.397 17.6909 31.4925C17.6969 30.5865 17.6999 30.09 17.6999 29.997C17.6999 29.9055 17.6969 29.409 17.6909 28.503C17.6834 27.6 17.6834 26.9115 17.6909 26.4435C17.6969 25.9755 17.7164 25.347 17.7494 24.5595C17.7809 23.772 17.8469 23.1015 17.9444 22.548C18.0419 21.9945 18.1619 21.5295 18.3059 21.153C18.5654 20.5005 18.9434 19.929 19.4384 19.4325C19.9319 18.939 20.5049 18.5625 21.1559 18.3015C21.5339 18.159 21.9989 18.036 22.5524 17.94C23.1059 17.8425 23.7764 17.778 24.5639 17.745C25.3514 17.712 25.9799 17.6925 26.4479 17.6865C26.9159 17.679 27.6029 17.679 28.5074 17.6865C29.4119 17.6925 29.9099 17.6955 30.0014 17.6955C30.0929 17.6955 30.5909 17.6925 31.4954 17.6865C32.3999 17.679 33.0869 17.679 33.5549 17.6865ZM44.9009 23.808C44.7704 21.1005 43.9634 19.0035 42.4784 17.52C40.9949 16.0365 38.8994 15.2295 36.1919 15.099C35.0459 15.0345 32.9819 15 30.0014 15C27.0209 15 24.9569 15.0345 23.8124 15.099C21.1034 15.2295 19.0079 16.0365 17.5244 17.52C16.0409 19.0035 15.2324 21.1005 15.1034 23.808C15.0374 24.954 15.0059 27.0165 15.0059 29.997C15.0059 32.979 15.0374 35.0415 15.1034 36.189C15.2324 38.895 16.0409 40.9905 17.5244 42.4755C19.0079 43.959 21.1034 44.766 23.8124 44.895C24.9569 44.961 27.0209 44.994 30.0014 44.994C32.9819 44.994 35.0459 44.961 36.1919 44.895C38.8994 44.766 40.9949 43.959 42.4784 42.4755C43.9634 40.9905 44.7704 38.895 44.9009 36.189C44.9654 35.0415 44.9984 32.979 44.9984 29.997C44.9984 27.0165 44.9654 24.954 44.9009 23.808Z" fill="url(#paint1_linear)"/>
<defs>
<linearGradient id="paint0_linear" x1="15.0059" y1="42.8098" x2="26.2423" y2="15.0004" gradientUnits="userSpaceOnUse">
<stop stop-color="#FFD978"/>
<stop offset="0.5" stop-color="#D52E76"/>
<stop offset="1" stop-color="#533CE4"/>
</linearGradient>
<linearGradient id="paint1_linear" x1="15.0059" y1="42.8098" x2="26.2423" y2="15.0004" gradientUnits="userSpaceOnUse">
<stop stop-color="#FFD978"/>
<stop offset="0.5" stop-color="#D52E76"/>
<stop offset="1" stop-color="#533CE4"/>
</linearGradient>
</defs>
</svg>
