<svg width="22" height="21" viewBox="0 0 22 21" fill="none" xmlns="http://www.w3.org/2000/svg">
<path fill-rule="evenodd" clip-rule="evenodd" d="M15.7934 0C13.9202 0 12.1673 0.847636 11 2.26864C9.83271 0.847636 8.07982 0 6.20659 0C2.78429 0 0 2.78409 0 6.20645C0 8.88682 1.59824 11.9865 4.74941 15.4204C7.17523 18.0625 9.81329 20.1085 10.5639 20.6723L11 21L11.4355 20.6723C12.1861 20.1085 14.8248 18.0625 17.2506 15.4204C20.4018 11.9865 22 8.88682 22 6.20645C22 2.78409 19.2157 0 15.7934 0ZM16.1816 14.4391C14.1868 16.6129 12.0405 18.3693 11 19.1794C9.95953 18.3693 7.81323 16.6123 5.81835 14.4391C2.96094 11.326 1.45071 8.47955 1.45071 6.20645C1.45071 3.584 3.58406 1.45027 6.20659 1.45027C7.93294 1.45027 9.526 2.39082 10.3659 3.90536L11 5.04955L11.6341 3.90536C12.4734 2.39082 14.0671 1.45027 15.7934 1.45027C18.4159 1.45027 20.5493 3.584 20.5493 6.20645C20.5493 8.47955 19.0391 11.326 16.1816 14.4391Z" fill="white"/>
</svg>
