<svg width="22" height="21" viewBox="0 0 22 21" fill="none" xmlns="http://www.w3.org/2000/svg">
<mask id="path-1-inside-1" fill="white">
<path fill-rule="evenodd" clip-rule="evenodd" d="M15.7934 0C13.9202 0 12.1673 0.847636 11 2.26864C9.83271 0.847636 8.07982 0 6.20659 0C2.78429 0 0 2.78409 0 6.20645C0 8.88682 1.59824 11.9865 4.74941 15.4204C7.17523 18.0625 9.81329 20.1085 10.5639 20.6723L11 21L11.4355 20.6723C12.1861 20.1085 14.8248 18.0625 17.2506 15.4204C20.4018 11.9865 22 8.88682 22 6.20645C22 2.78409 19.2157 0 15.7934 0ZM16.1816 14.4391C14.1868 16.6129 12.0405 18.3693 11 19.1794C9.95953 18.3693 7.81323 16.6123 5.81835 14.4391C2.96094 11.326 1.45071 8.47955 1.45071 6.20645C1.45071 3.584 3.58406 1.45027 6.20659 1.45027C7.93294 1.45027 9.526 2.39082 10.3659 3.90536L11 5.04955L11.6341 3.90536C12.4734 2.39082 14.0671 1.45027 15.7934 1.45027C18.4159 1.45027 20.5493 3.584 20.5493 6.20645C20.5493 8.47955 19.0391 11.326 16.1816 14.4391Z"/>
</mask>
<path fill-rule="evenodd" clip-rule="evenodd" d="M15.7934 0C13.9202 0 12.1673 0.847636 11 2.26864C9.83271 0.847636 8.07982 0 6.20659 0C2.78429 0 0 2.78409 0 6.20645C0 8.88682 1.59824 11.9865 4.74941 15.4204C7.17523 18.0625 9.81329 20.1085 10.5639 20.6723L11 21L11.4355 20.6723C12.1861 20.1085 14.8248 18.0625 17.2506 15.4204C20.4018 11.9865 22 8.88682 22 6.20645C22 2.78409 19.2157 0 15.7934 0ZM16.1816 14.4391C14.1868 16.6129 12.0405 18.3693 11 19.1794C9.95953 18.3693 7.81323 16.6123 5.81835 14.4391C2.96094 11.326 1.45071 8.47955 1.45071 6.20645C1.45071 3.584 3.58406 1.45027 6.20659 1.45027C7.93294 1.45027 9.526 2.39082 10.3659 3.90536L11 5.04955L11.6341 3.90536C12.4734 2.39082 14.0671 1.45027 15.7934 1.45027C18.4159 1.45027 20.5493 3.584 20.5493 6.20645C20.5493 8.47955 19.0391 11.326 16.1816 14.4391Z" fill="url(#paint0_linear)"/>
<path d="M11 2.26864L7.13643 5.44241L11 10.1457L14.8636 5.44241L11 2.26864ZM4.74941 15.4204L1.06552 18.801L1.0663 18.8019L4.74941 15.4204ZM10.5639 20.6723L13.5676 16.6751L13.5669 16.6745L10.5639 20.6723ZM11 21L7.99626 24.9972L11.0022 27.2561L14.0066 24.995L11 21ZM11.4355 20.6723L8.43248 16.6745L8.42888 16.6772L11.4355 20.6723ZM17.2506 15.4204L20.9337 18.8019L20.9345 18.801L17.2506 15.4204ZM16.1816 14.4391L12.4981 11.0581L12.4977 11.0584L16.1816 14.4391ZM11 19.1794L7.92832 23.1246L11 25.5161L14.0717 23.1246L11 19.1794ZM5.81835 14.4391L2.13479 17.8201L2.13495 17.8203L5.81835 14.4391ZM10.3659 3.90536L14.7392 1.48165L14.7385 1.48053L10.3659 3.90536ZM11 5.04955L6.62672 7.47326L11 15.3643L15.3733 7.47326L11 5.04955ZM11.6341 3.90536L16.0074 6.32908L16.0076 6.32877L11.6341 3.90536ZM15.7934 -5C12.4038 -5 9.2406 -3.46663 7.13643 -0.905132L14.8636 5.44241C15.094 5.16191 15.4366 5 15.7934 5V-5ZM14.8636 -0.905132C12.7594 -3.46663 9.5962 -5 6.20659 -5V5C6.56344 5 6.90601 5.16191 7.13643 5.44241L14.8636 -0.905132ZM6.20659 -5C0.0230469 -5 -5 0.0224907 -5 6.20645H5C5 5.54569 5.54554 5 6.20659 5V-5ZM-5 6.20645C-5 10.7859 -2.35846 15.0699 1.06552 18.801L8.43331 12.0397C5.55493 8.90314 5 6.98778 5 6.20645H-5ZM1.0663 18.8019C3.79377 21.7726 6.70996 24.0308 7.56089 24.67L13.5669 16.6745C12.9166 16.1861 10.5567 14.3525 8.43253 12.0388L1.0663 18.8019ZM7.56014 24.6695L7.99626 24.9972L14.0037 17.0028L13.5676 16.6751L7.56014 24.6695ZM14.0066 24.995L14.4421 24.6673L8.42888 16.6772L7.99341 17.005L14.0066 24.995ZM14.4385 24.67C15.2889 24.0312 18.206 21.7729 20.9337 18.8019L13.5675 12.0388C11.4435 14.3522 9.08324 16.1857 8.43248 16.6745L14.4385 24.67ZM20.9345 18.801C24.3585 15.0699 27 10.7859 27 6.20645H17C17 6.98778 16.4451 8.90314 13.5667 12.0397L20.9345 18.801ZM27 6.20645C27 0.0224902 21.977 -5 15.7934 -5V5C16.4545 5 17 5.54569 17 6.20645H27ZM12.4977 11.0584C10.7691 12.9422 8.86484 14.505 7.92832 15.2341L14.0717 23.1246C15.2161 22.2336 17.6045 20.2837 19.8655 17.8198L12.4977 11.0584ZM14.0717 15.2341C13.1357 14.5054 11.231 12.9417 9.50176 11.0579L2.13495 17.8203C4.39549 20.2829 6.78331 22.2331 7.92832 23.1246L14.0717 15.2341ZM9.50191 11.0581C6.84477 8.16315 6.45071 6.52054 6.45071 6.20645H-3.54929C-3.54929 10.4386 -0.922886 14.4888 2.13479 17.8201L9.50191 11.0581ZM6.45071 6.20645C6.45071 6.23434 6.44407 6.27161 6.42891 6.30738C6.4152 6.33976 6.39794 6.36327 6.38091 6.3803C6.36387 6.39735 6.34031 6.41465 6.30783 6.42841C6.27196 6.44361 6.23457 6.45027 6.20659 6.45027V-3.54973C0.822174 -3.54973 -3.54929 0.823038 -3.54929 6.20645H6.45071ZM6.20659 6.45027C6.10781 6.45027 6.03078 6.39794 5.99322 6.3302L14.7385 1.48053C13.0212 -1.6163 9.75808 -3.54973 6.20659 -3.54973V6.45027ZM5.9926 6.32908L6.62672 7.47326L15.3733 2.62583L14.7392 1.48165L5.9926 6.32908ZM15.3733 7.47326L16.0074 6.32908L7.26084 1.48165L6.62672 2.62583L15.3733 7.47326ZM16.0076 6.32877C15.9688 6.39875 15.8911 6.45027 15.7934 6.45027V-3.54973C12.243 -3.54973 8.97791 -1.61711 7.26066 1.48196L16.0076 6.32877ZM15.7934 6.45027C15.7654 6.45027 15.728 6.44361 15.6922 6.42841C15.6597 6.41465 15.6361 6.39735 15.6191 6.3803C15.6021 6.36326 15.5848 6.33976 15.5711 6.30738C15.5559 6.27161 15.5493 6.23434 15.5493 6.20645H25.5493C25.5493 0.823038 21.1778 -3.54973 15.7934 -3.54973V6.45027ZM15.5493 6.20645C15.5493 6.52054 15.1552 8.16315 12.4981 11.0581L19.8652 17.8201C22.9229 14.4888 25.5493 10.4386 25.5493 6.20645H15.5493Z" fill="url(#paint1_linear)" mask="url(#path-1-inside-1)"/>
<defs>
<linearGradient id="paint0_linear" x1="0" y1="21" x2="22.9597" y2="21" gradientUnits="userSpaceOnUse">
<stop stop-color="#FFB911"/>
<stop offset="0.494792" stop-color="#F14922"/>
<stop offset="1" stop-color="#FFB911"/>
</linearGradient>
<linearGradient id="paint1_linear" x1="0" y1="21" x2="22.9597" y2="21" gradientUnits="userSpaceOnUse">
<stop stop-color="#FFB911"/>
<stop offset="0.494792" stop-color="#F14922"/>
<stop offset="1" stop-color="#FFB911"/>
</linearGradient>
</defs>
</svg>
