<svg width="16" height="16" viewBox="0 0 16 16" fill="none" xmlns="http://www.w3.org/2000/svg">
<mask id="path-1-inside-1" fill="white">
<path fill-rule="evenodd" clip-rule="evenodd" d="M15.5927 13.7061L12.1211 10.238C12.1033 10.2194 12.0811 10.2065 12.0634 10.1892C12.9591 8.82995 13.3185 7.18672 13.072 5.57771C12.8255 3.9687 11.9906 2.50838 10.7291 1.4795C9.46751 0.45063 7.86901 -0.0735877 6.24306 0.00833594C4.61711 0.0902596 3.07937 0.772507 1.92765 1.92297C0.775923 3.07344 0.0921269 4.61028 0.00865322 6.23591C-0.0748205 7.86155 0.447965 9.46032 1.47579 10.7227C2.50362 11.985 3.96337 12.8211 5.57238 13.0691C7.18139 13.3171 8.82522 12.9593 10.1855 12.065C10.2033 12.0841 10.2166 12.1059 10.2344 12.1245L13.7059 15.593C13.8291 15.7204 13.9763 15.8219 14.1392 15.8918C14.302 15.9617 14.4771 15.9985 14.6543 16C14.8314 16.0015 15.0071 15.9677 15.1711 15.9006C15.3351 15.8334 15.484 15.7344 15.6093 15.6091C15.7345 15.4838 15.8336 15.3348 15.9007 15.1709C15.9678 15.0069 16.0015 14.8312 16 14.6541C15.9984 14.477 15.9616 14.3019 15.8917 14.1391C15.8218 13.9763 15.7201 13.8291 15.5927 13.7061ZM6.58073 10.8706C5.73247 10.8707 4.90321 10.6192 4.19786 10.1481C3.4925 9.67697 2.9427 9.00729 2.618 8.22374C2.2933 7.44019 2.2083 6.57796 2.3737 5.7461C2.5391 4.91424 2.94747 4.1501 3.54723 3.55031C4.14698 2.95052 4.91114 2.54202 5.74309 2.37647C6.57504 2.21092 7.43745 2.29575 8.22118 2.62024C9.00491 2.94473 9.67479 3.4943 10.1461 4.19945C10.6175 4.90461 10.8691 5.73369 10.8692 6.58184C10.8694 7.14503 10.7587 7.70275 10.5433 8.22313C10.3278 8.74351 10.012 9.21635 9.6137 9.61463C9.21544 10.0129 8.74262 10.3288 8.22221 10.5443C7.7018 10.7598 7.14401 10.8707 6.58073 10.8706Z"/>
</mask>
<path d="M12.1211 10.238L8.50066 13.6866L8.54348 13.7315L8.5874 13.7754L12.1211 10.238ZM12.0634 10.1892L7.88834 7.43804L5.61591 10.8866L8.57315 13.7695L12.0634 10.1892ZM10.1855 12.065L13.8462 8.65926L10.9688 5.56644L7.43886 7.88703L10.1855 12.065ZM10.2344 12.1245L6.61391 15.5731L6.65662 15.6179L6.70042 15.6617L10.2344 12.1245ZM13.7059 15.593L17.301 12.1179L17.2707 12.0866L17.2399 12.0558L13.7059 15.593ZM16 14.6541L11.0001 14.6976L16 14.6541ZM10.8692 6.58184L5.86916 6.58235L5.86916 6.58391L10.8692 6.58184ZM19.1264 10.1687L15.6548 6.70069L8.5874 13.7754L12.059 17.2434L19.1264 10.1687ZM15.7415 6.78951C15.5785 6.61831 15.4324 6.48875 15.3326 6.4045C15.2822 6.36191 15.2392 6.32732 15.209 6.30332C15.1797 6.28005 15.156 6.26175 15.1483 6.25578C15.1315 6.24283 15.1479 6.2555 15.1533 6.25966C15.1648 6.2686 15.191 6.2891 15.2245 6.31618C15.2894 6.36875 15.4109 6.46979 15.5536 6.60896L8.57315 13.7695C8.65048 13.8449 8.72104 13.9089 8.78062 13.9609C8.83997 14.0128 8.89152 14.0554 8.93033 14.0869C8.96861 14.1179 8.99981 14.1423 9.01628 14.1551C9.02472 14.1616 9.03161 14.1669 9.03453 14.1692C9.03533 14.1698 9.03603 14.1704 9.0365 14.1707C9.03673 14.1709 9.03695 14.1711 9.03709 14.1712C9.03726 14.1713 9.03735 14.1714 9.03743 14.1714C9.03783 14.1717 9.03719 14.1712 9.0362 14.1705C9.03348 14.1684 9.01477 14.1539 8.99043 14.1346C8.96516 14.1146 8.92717 14.084 8.88159 14.0455C8.79151 13.9694 8.65485 13.8485 8.50066 13.6866L15.7415 6.78951ZM16.2384 12.9404C17.8155 10.547 18.4483 7.65366 18.0143 4.82055L8.12962 6.33487C8.18859 6.71977 8.10263 7.11285 7.88834 7.43804L16.2384 12.9404ZM18.0143 4.82055C17.5803 1.98744 16.1103 -0.583776 13.8892 -2.39526L7.56898 5.35427C7.87094 5.60053 8.07065 5.94996 8.12962 6.33487L18.0143 4.82055ZM13.8892 -2.39526C11.6681 -4.2067 8.85385 -5.12955 5.99146 -4.98533L6.49467 5.002C6.88417 4.98238 7.26697 5.10796 7.56898 5.35427L13.8892 -2.39526ZM5.99146 -4.98533C3.12908 -4.84111 0.421824 -3.64006 -1.60596 -1.61449L5.46125 5.46043C5.73691 5.18507 6.10515 5.02163 6.49467 5.002L5.99146 -4.98533ZM-1.60596 -1.61449C-3.63374 0.411084 -4.83779 3.11705 -4.98477 5.97951L5.00207 6.49232C5.02204 6.1035 5.18559 5.7358 5.46125 5.46043L-1.60596 -1.61449ZM-4.98477 5.97951C-5.13175 8.84196 -4.21121 11.657 -2.40152 13.8796L5.3531 7.5657C5.10714 7.26361 4.98211 6.88113 5.00207 6.49232L-4.98477 5.97951ZM-2.40152 13.8796C-0.591849 16.1022 1.97815 17.5742 4.81076 18.0108L6.33401 8.12748C5.94859 8.06808 5.59909 7.86782 5.3531 7.5657L-2.40152 13.8796ZM4.81076 18.0108C7.64335 18.4474 10.5373 17.8175 12.9322 16.2431L7.43886 7.88703C7.11315 8.10115 6.71943 8.18688 6.33401 8.12748L4.81076 18.0108ZM6.52484 15.4708C6.4207 15.3589 6.34281 15.2643 6.29798 15.2084C6.27523 15.1801 6.25769 15.1575 6.24842 15.1455C6.24065 15.1355 6.23331 15.1259 6.23863 15.1328C6.24054 15.1353 6.25308 15.1517 6.26825 15.1713C6.28429 15.1919 6.30861 15.2229 6.33863 15.2599C6.39791 15.333 6.49152 15.4446 6.61391 15.5731L13.8548 8.67599C13.9123 8.73634 13.9619 8.79154 14.0032 8.8391C14.0443 8.88652 14.0786 8.92789 14.1048 8.96021C14.118 8.97648 14.1296 8.99097 14.1393 9.00319C14.1489 9.01539 14.1571 9.02581 14.1633 9.03384C14.1695 9.0418 14.1744 9.04813 14.1772 9.05185C14.1799 9.05535 14.1818 9.05785 14.1813 9.05708C14.1811 9.05692 14.181 9.0568 14.1807 9.05638C14.1805 9.05604 14.18 9.05549 14.1796 9.05488C14.1786 9.05367 14.1772 9.05175 14.1754 9.04948C14.172 9.04502 14.1665 9.03782 14.1598 9.02913C14.153 9.02035 14.1443 9.00915 14.1341 8.99623C14.124 8.98328 14.1119 8.96806 14.0983 8.95109C14.0713 8.91738 14.0364 8.87466 13.9948 8.82601C13.9532 8.7772 13.9035 8.7208 13.8462 8.65926L6.52484 15.4708ZM6.70042 15.6617L10.172 19.1301L17.2399 12.0558L13.7683 8.58739L6.70042 15.6617ZM10.1109 19.068C10.6955 19.6728 11.3946 20.1549 12.1672 20.4865L16.1111 11.2971C16.5581 11.4889 16.9626 11.7679 17.301 12.1179L10.1109 19.068ZM12.1672 20.4865C12.94 20.8182 13.771 20.9927 14.6119 20.9998L14.6966 11.0001C15.1831 11.0042 15.664 11.1052 16.1111 11.2971L12.1672 20.4865ZM14.6119 20.9998C15.4529 21.0069 16.2867 20.8465 17.065 20.528L13.2772 11.2731C13.7275 11.0888 14.21 10.996 14.6966 11.0001L14.6119 20.9998ZM17.065 20.528C17.8433 20.2094 18.5504 19.7391 19.145 19.1445L12.0736 12.0737C12.4177 11.7296 12.8268 11.4574 13.2772 11.2731L17.065 20.528ZM19.145 19.1445C19.7398 18.5496 20.21 17.8423 20.5284 17.0642L11.273 13.2776C11.4572 12.8273 11.7293 12.418 12.0736 12.0737L19.145 19.1445ZM20.5284 17.0642C20.8469 16.2855 21.0071 15.4514 20.9998 14.6106L11.0001 14.6976C10.9959 14.2111 11.0886 13.7283 11.273 13.2776L20.5284 17.0642ZM20.9998 14.6106C20.9924 13.7694 20.8176 12.9383 20.4857 12.1656L11.2976 16.1126C11.1056 15.6655 11.0044 15.1845 11.0001 14.6976L20.9998 14.6106ZM20.4857 12.1656C20.1538 11.393 19.6714 10.6941 19.0664 10.1097L12.119 17.3024C11.7689 16.9642 11.4897 16.5597 11.2976 16.1126L20.4857 12.1656ZM6.58021 5.87057C6.7207 5.87055 6.85808 5.91218 6.975 5.99028L1.42071 14.3059C2.94835 15.3263 4.74423 15.8708 6.58125 15.8706L6.58021 5.87057ZM6.975 5.99028C7.0919 6.06836 7.18316 6.17945 7.2371 6.30961L-2.0011 10.1379C-1.29777 11.8351 -0.106902 13.2856 1.42071 14.3059L6.975 5.99028ZM7.2371 6.30961C7.29106 6.43983 7.30516 6.58307 7.2777 6.72118L-2.5303 4.77102C-2.88857 6.57286 -2.70446 8.44055 -2.0011 10.1379L7.2371 6.30961ZM7.2777 6.72118C7.25024 6.8593 7.18242 6.98618 7.08287 7.08574L0.0115827 0.014891C-1.28747 1.31403 -2.17203 2.96917 -2.5303 4.77102L7.2777 6.72118ZM7.08287 7.08574C6.98342 7.1852 6.85675 7.25289 6.71891 7.28032L4.76726 -2.52738C2.96552 -2.16885 1.31054 -1.28415 0.0115827 0.014891L7.08287 7.08574ZM6.71891 7.28032C6.58113 7.30774 6.43833 7.2937 6.30847 7.23994L10.1339 -1.99945C8.43656 -2.70219 6.56895 -2.8859 4.76726 -2.52738L6.71891 7.28032ZM6.30847 7.23994C6.17861 7.18617 6.06748 7.09504 5.98926 6.97801L14.303 1.4209C13.2821 -0.106451 11.8312 -1.2967 10.1339 -1.99945L6.30847 7.23994ZM5.98926 6.97801C5.91095 6.86086 5.86918 6.72315 5.86916 6.58235L15.8692 6.58132C15.869 4.74424 15.324 2.94837 14.303 1.4209L5.98926 6.97801ZM5.86916 6.58391C5.86912 6.49035 5.88752 6.39748 5.92345 6.31067L15.163 10.1356C15.6298 9.00802 15.8697 7.79972 15.8692 6.57977L5.86916 6.58391ZM5.92345 6.31067C5.95933 6.22401 6.01189 6.14538 6.07805 6.07921L13.1493 13.1501C14.012 12.2873 14.6963 11.263 15.163 10.1356L5.92345 6.31067ZM6.07805 6.07921C6.14421 6.01304 6.22279 5.96054 6.30927 5.92473L10.1351 15.1639C11.2624 14.6971 12.2867 14.0128 13.1493 13.1501L6.07805 6.07921ZM6.30927 5.92473C6.39568 5.88895 6.48827 5.87055 6.58177 5.87057L6.5797 15.8706C7.79975 15.8708 9.00792 15.6307 10.1351 15.1639L6.30927 5.92473Z" fill="url(#paint0_linear)" mask="url(#path-1-inside-1)"/>
<defs>
<linearGradient id="paint0_linear" x1="0" y1="16" x2="16.698" y2="16" gradientUnits="userSpaceOnUse">
<stop stop-color="#FFB911"/>
<stop offset="0.494792" stop-color="#F14922"/>
<stop offset="1" stop-color="#FFB911"/>
</linearGradient>
</defs>
</svg>
