<svg width="18" height="26" viewBox="0 0 18 26" fill="none" xmlns="http://www.w3.org/2000/svg">
<path d="M16.8512 12.6933L16.8551 12.6962C16.9338 12.7561 17 12.8852 17 12.99C17 13.1034 16.9622 13.1989 16.8469 13.29L1.73119 24.8902L1.71435 24.9032L1.69807 24.9168C1.64362 24.9624 1.55327 25 1.44 25C1.38661 25 1.32498 24.9892 1.26683 24.9608L0.830804 25.8536L1.26683 24.9608C1.07487 24.867 1 24.7051 1 24.5935V1.38644C1 1.28001 1.06808 1.12785 1.24081 1.03267C1.4126 0.970963 1.60183 0.998775 1.74238 1.09831L16.8512 12.6933ZM1.88 21.7102V23.7407L3.48959 22.5029L14.8296 13.7827L15.8605 12.99L14.8296 12.1973L3.48959 3.47702L1.88 2.23928V4.26974V21.7102Z" stroke="url(#paint0_linear)" stroke-width="2"/>
<defs>
<linearGradient id="paint0_linear" x1="0" y1="26" x2="18.7852" y2="26" gradientUnits="userSpaceOnUse">
<stop stop-color="#FFB911"/>
<stop offset="1" stop-color="#F14922"/>
</linearGradient>
</defs>
</svg>
