<svg width="30" height="26" viewBox="0 0 30 26" fill="none" xmlns="http://www.w3.org/2000/svg">
<path fill-rule="evenodd" clip-rule="evenodd" d="M30 11.161C30 9.663 28.72 8.443 27.147 8.443H26.176H21.974C22.775 7.062 23.201 5.758 23.201 3.957V3.666C23.201 3.666 23.201 3.666 23.201 3.665C23.201 2.697 22.808 1.783 22.094 1.093C21.381 0.404 20.429 0.016 19.413 0.001C19.404 -3.49246e-10 19.394 0 19.384 0C18.4 0 17.539 0.746 17.458 1.676C17.073 6.108 12.59 8.392 9.591 9.781V9.322C9.591 8.843 9.184 8.455 8.681 8.455H0.91C0.408 8.455 0 8.843 0 9.322V24.127C0 24.606 0.408 24.994 0.91 24.994H6.738C7.854 24.994 8.822 24.38 9.291 23.488C12.534 24.83 15.351 25.005 18.587 25.005C19.14 25.005 19.705 25 20.286 24.995C20.929 24.989 21.594 24.983 22.291 24.983H25.169C26.743 24.983 28.023 23.763 28.023 22.265C28.023 21.761 27.878 21.289 27.626 20.883C28.446 20.405 28.994 19.544 28.994 18.564C28.994 18.06 28.849 17.587 28.597 17.182C29.417 16.704 29.965 15.843 29.965 14.863C29.965 14.157 29.681 13.513 29.216 13.029C29.701 12.542 30 11.884 30 11.161ZM7.77 22.276C7.77 22.818 7.307 23.259 6.738 23.259H5.706V20.425C5.706 19.946 5.298 19.558 4.796 19.558C4.293 19.558 3.885 19.946 3.885 20.425V23.259H1.821V10.189H7.77V22.276ZM25.204 13.879H26.176H27.112C27.681 13.879 28.144 14.32 28.144 14.862C28.144 15.404 27.681 15.845 27.112 15.845H26.176H26.141H25.204C24.701 15.845 24.294 16.234 24.294 16.713C24.294 17.192 24.701 17.58 25.204 17.58H26.141C26.71 17.58 27.173 18.021 27.173 18.564C27.173 19.106 26.71 19.547 26.141 19.547H25.169C24.667 19.547 24.259 19.935 24.259 20.414C24.259 20.893 24.667 21.282 25.169 21.282C25.739 21.282 26.201 21.723 26.201 22.265C26.201 22.807 25.739 23.248 25.169 23.248H22.291C21.585 23.248 20.916 23.254 20.269 23.26C16.21 23.296 13.228 23.323 9.603 21.72V11.702C9.698 11.658 9.795 11.614 9.894 11.568C11.477 10.841 13.645 9.845 15.509 8.337C17.791 6.491 19.058 4.298 19.273 1.819C19.276 1.789 19.335 1.735 19.384 1.735H19.385C20.485 1.752 21.38 2.618 21.38 3.666V3.957C21.38 5.76 20.886 6.901 19.854 8.443H18.405C17.903 8.443 17.495 8.832 17.495 9.311C17.495 9.79 17.903 10.178 18.405 10.178H20.354C20.355 10.178 20.356 10.178 20.357 10.178H26.176H27.147C27.716 10.178 28.179 10.619 28.179 11.161C28.179 11.703 27.716 12.144 27.147 12.144H26.176H25.204C24.701 12.144 24.294 12.533 24.294 13.012C24.294 13.491 24.701 13.879 25.204 13.879Z" fill="#C1C1CC"/>
</svg>
