<svg width="30" height="26" viewBox="0 0 30 26" fill="none" xmlns="http://www.w3.org/2000/svg">
<path fill-rule="evenodd" clip-rule="evenodd" d="M30 13.8439C30 15.3419 28.72 16.5619 27.147 16.5619H26.176H21.974C22.775 17.9429 23.201 19.2469 23.201 21.0479V21.3389C23.201 21.3389 23.201 21.3389 23.201 21.3399C23.201 22.3079 22.808 23.2219 22.094 23.9119C21.381 24.6009 20.429 24.9889 19.413 25.0039C19.404 25.0049 19.394 25.0049 19.384 25.0049C18.4 25.0049 17.539 24.2589 17.458 23.3289C17.073 18.8969 12.59 16.6129 9.591 15.2239V15.6829C9.591 16.1619 9.184 16.5499 8.681 16.5499H0.91C0.408 16.5499 0 16.1619 0 15.6829V0.877884C0 0.398884 0.408 0.0108833 0.91 0.0108833H6.738C7.854 0.0108833 8.822 0.624884 9.291 1.51688C12.534 0.174885 15.351 -0.000116348 18.587 -0.000116348C19.14 -0.000116348 19.705 0.00488472 20.286 0.00988388C20.929 0.0158844 21.594 0.021883 22.291 0.021883H25.169C26.743 0.021883 28.023 1.24188 28.023 2.73988C28.023 3.24388 27.878 3.71588 27.626 4.12188C28.446 4.59988 28.994 5.46088 28.994 6.44088C28.994 6.94488 28.849 7.41788 28.597 7.82288C29.417 8.30088 29.965 9.16188 29.965 10.1419C29.965 10.8479 29.681 11.4919 29.216 11.9759C29.701 12.4629 30 13.1209 30 13.8439ZM7.77 2.72888C7.77 2.18688 7.307 1.74588 6.738 1.74588H5.706V4.57988C5.706 5.05888 5.298 5.44688 4.796 5.44688C4.293 5.44688 3.885 5.05888 3.885 4.57988V1.74588H1.821V14.8159H7.77V2.72888ZM25.204 11.1259H26.176H27.112C27.681 11.1259 28.144 10.6849 28.144 10.1429C28.144 9.60088 27.681 9.15988 27.112 9.15988H26.176H26.141H25.204C24.701 9.15988 24.294 8.77088 24.294 8.29188C24.294 7.81288 24.701 7.42488 25.204 7.42488H26.141C26.71 7.42488 27.173 6.98388 27.173 6.44088C27.173 5.89888 26.71 5.45788 26.141 5.45788H25.169C24.667 5.45788 24.259 5.06988 24.259 4.59088C24.259 4.11188 24.667 3.72288 25.169 3.72288C25.739 3.72288 26.201 3.28188 26.201 2.73988C26.201 2.19788 25.739 1.75688 25.169 1.75688H22.291C21.585 1.75688 20.916 1.75089 20.269 1.74488C16.21 1.70889 13.228 1.68188 9.603 3.28488V13.3029C9.698 13.3469 9.795 13.3909 9.894 13.4369C11.477 14.1639 13.645 15.1599 15.509 16.6679C17.791 18.5139 19.058 20.7069 19.273 23.1859C19.276 23.2159 19.335 23.2699 19.384 23.2699H19.385C20.485 23.2529 21.38 22.3869 21.38 21.3389V21.0479C21.38 19.2449 20.886 18.1039 19.854 16.5619H18.405C17.903 16.5619 17.495 16.1729 17.495 15.6939C17.495 15.2149 17.903 14.8269 18.405 14.8269H20.354C20.355 14.8269 20.356 14.8269 20.357 14.8269H26.176H27.147C27.716 14.8269 28.179 14.3859 28.179 13.8439C28.179 13.3019 27.716 12.8609 27.147 12.8609H26.176H25.204C24.701 12.8609 24.294 12.4719 24.294 11.9929C24.294 11.5139 24.701 11.1259 25.204 11.1259Z" fill="#C1C1CC"/>
</svg>
