<svg width="26" height="27" viewBox="0 0 26 27" fill="none" xmlns="http://www.w3.org/2000/svg">
<path d="M25.6665 14.9872L25.2645 14.4282C24.8295 13.8192 24.8185 12.9962 25.2485 12.3762L25.6395 11.8122C26.2375 10.9492 25.9605 9.74917 25.0415 9.24617L24.4435 8.91917C23.7905 8.56517 23.4315 7.82417 23.5575 7.07717L23.6715 6.39717C23.8455 5.35717 23.0785 4.39517 22.0405 4.35117L21.3605 4.32317C20.6205 4.29017 19.9795 3.78117 19.7725 3.05617L19.5825 2.39317C19.2945 1.37517 18.1955 0.849168 17.2385 1.27017L16.6135 1.54117C15.9335 1.83917 15.1395 1.66317 14.6455 1.09817L14.1935 0.584168C13.5035 -0.200832 12.2905 -0.195832 11.6055 0.606168L11.1595 1.12617C10.6705 1.69617 9.88248 1.88417 9.19648 1.59617L8.56648 1.33117C7.60348 0.927168 6.51648 1.47517 6.23848 2.49217L6.05948 3.16217C5.86348 3.89117 5.23348 4.41217 4.49348 4.45017L3.81348 4.48917C2.77548 4.55017 2.02548 5.52317 2.21548 6.56317L2.34048 7.24317C2.47648 7.98517 2.12848 8.73117 1.48148 9.09617L0.88848 9.43417C-0.0195203 9.94817 -0.28052 11.1542 0.33448 12.0052L0.73648 12.5642C1.17148 13.1722 1.18248 13.9972 0.75248 14.6162L0.36148 15.1802C-0.23652 16.0432 0.0404797 17.2432 0.95948 17.7462L1.55748 18.0732C2.20948 18.4272 2.56848 19.1682 2.44348 19.9152L2.32948 20.5952C2.15548 21.6342 2.92248 22.5972 3.96048 22.6412L4.64048 22.6692C5.37948 22.7022 6.02148 23.2112 6.22848 23.9362L6.41848 24.5992C6.70648 25.6172 7.80448 26.1422 8.76248 25.7222L9.38748 25.4512C10.0665 25.1532 10.8605 25.3292 11.3555 25.8932L11.8065 26.4082C12.5025 27.1932 13.7155 27.1872 14.3955 26.3852L14.8405 25.8662C15.3305 25.2962 16.1185 25.1082 16.8035 25.3952L17.4345 25.6612C18.3975 26.0652 19.4845 25.5172 19.7615 24.5002L19.9415 23.8302C20.1365 23.1002 20.7675 22.5812 21.5075 22.5412L22.1865 22.5032C23.2255 22.4422 23.9755 21.4682 23.7855 20.4292L23.6605 19.7482C23.5245 19.0082 23.8725 18.2612 24.5195 17.8962L25.1125 17.5582C26.0205 17.0502 26.2815 15.8442 25.6665 14.9872Z" fill="url(#paint0_linear)"/>
<path fill-rule="evenodd" clip-rule="evenodd" d="M22.3657 17.4032C22.0417 17.7532 21.6237 17.9282 21.1107 17.9282C20.7767 17.9282 20.4787 17.8492 20.2157 17.6932C19.9517 17.5362 19.7467 17.3112 19.6007 17.0182C19.4537 16.7242 19.3807 16.3842 19.3807 15.9982C19.3807 15.6112 19.4537 15.2712 19.6007 14.9782C19.7467 14.6842 19.9517 14.4592 20.2157 14.3032C20.4787 14.1462 20.7767 14.0682 21.1107 14.0682C21.6237 14.0682 22.0417 14.2432 22.3657 14.5932C22.6887 14.9432 22.8507 15.4112 22.8507 15.9982C22.8507 16.5842 22.6887 17.0532 22.3657 17.4032ZM21.6457 15.1732C21.5157 14.9832 21.3367 14.8882 21.1107 14.8882C20.8907 14.8882 20.7137 14.9812 20.5807 15.1682C20.4467 15.3542 20.3807 15.6312 20.3807 15.9982C20.3807 16.3642 20.4467 16.6412 20.5807 16.8282C20.7137 17.0142 20.8907 17.1082 21.1107 17.1082C21.3367 17.1082 21.5157 17.0132 21.6457 16.8232C21.7757 16.6332 21.8407 16.3582 21.8407 15.9982C21.8407 15.6382 21.7757 15.3632 21.6457 15.1732ZM15.7507 17.8482L20.5307 10.8482H21.7207L16.9407 17.8482H15.7507ZM16.3607 14.6282C15.8467 14.6282 15.4287 14.4532 15.1057 14.1032C14.7817 13.7532 14.6207 13.2842 14.6207 12.6982C14.6207 12.1112 14.7817 11.6432 15.1057 11.2932C15.4287 10.9432 15.8467 10.7682 16.3607 10.7682C16.8737 10.7682 17.2907 10.9432 17.6107 11.2932C17.9307 11.6432 18.0907 12.1112 18.0907 12.6982C18.0907 13.2842 17.9307 13.7532 17.6107 14.1032C17.2907 14.4532 16.8737 14.6282 16.3607 14.6282ZM16.8957 11.8682C16.7657 11.6812 16.5867 11.5882 16.3607 11.5882C16.1407 11.5882 15.9637 11.6832 15.8307 11.8732C15.6967 12.0632 15.6307 12.3382 15.6307 12.6982C15.6307 13.0582 15.6967 13.3332 15.8307 13.5232C15.9637 13.7132 16.1407 13.8082 16.3607 13.8082C16.5867 13.8082 16.7657 13.7142 16.8957 13.5282C17.0257 13.3412 17.0907 13.0642 17.0907 12.6982C17.0907 12.3312 17.0257 12.0542 16.8957 11.8682ZM11.1147 11.0082H9.43473V9.44824H13.0587V17.8482H11.1147V11.0082ZM6.71873 16.4202H5.17073V14.3802H3.09473V12.9162H5.17073V10.8762H6.71873V12.9162H8.80673V14.3802H6.71873V16.4202Z" fill="white"/>
<defs>
<linearGradient id="paint0_linear" x1="22.5176" y1="2.93386e-07" x2="-0.413172" y2="12.753" gradientUnits="userSpaceOnUse">
<stop stop-color="#FFB911"/>
<stop offset="1" stop-color="#F14922"/>
</linearGradient>
</defs>
</svg>
