<svg width="165" height="165" viewBox="0 0 165 165" fill="none" xmlns="http://www.w3.org/2000/svg">
<path d="M163.249 99.4789C160.051 114.835 152.507 128.944 141.496 140.225C125.367 156.725 103.952 165.009 82.5019 165.009C61.6909 165.009 40.9149 157.197 24.8879 141.572L24.9879 150.091C24.9879 151.944 23.5419 153.425 21.6879 153.458H21.6549C19.8369 153.458 18.3559 151.977 18.3209 150.158L18.1189 133.591C18.1189 131.739 19.5669 130.258 21.4189 130.223L37.9869 130.021H38.0199C39.8379 130.021 41.3199 131.503 41.3539 133.321C41.3539 135.174 39.9059 136.656 38.0529 136.689L29.5339 136.79C59.4349 165.951 107.521 165.413 136.715 135.51C157.188 114.565 163.753 84.4259 153.854 56.9139C153.249 55.1629 154.158 53.2449 155.874 52.6379C157.625 52.0329 159.544 52.9419 160.151 54.6579C165.302 69.0029 166.381 84.5279 163.249 99.4789ZM143.584 34.8239L127.018 35.0259H126.983C125.165 35.0259 123.683 33.5449 123.65 31.7269C123.65 29.8749 125.097 28.3929 126.95 28.3589L135.469 28.2579C120.99 14.1149 101.831 6.47091 81.6269 6.70591C61.3889 6.94291 42.4319 15.0589 28.2879 29.5379C7.81488 50.4819 1.24988 80.6209 11.1149 108.2C11.7219 109.951 10.8119 111.872 9.09588 112.477C8.72388 112.612 8.35388 112.679 7.98388 112.679C6.63788 112.679 5.35688 111.805 4.85188 110.456C-0.299117 96.0769 -1.37712 80.5889 1.75388 65.6029C4.95388 50.2469 12.4959 36.1379 23.5069 24.8559C38.8949 9.09791 59.5369 0.307908 81.5599 0.00490804C103.582 -0.230092 124.357 8.08691 140.115 23.4769L140.015 14.9569C140.015 13.1049 141.463 11.6239 143.315 11.5889C145.166 11.5219 146.647 13.0379 146.682 14.8889L146.884 31.4569C146.884 32.3329 146.547 33.1749 145.941 33.8139C145.301 34.4539 144.459 34.8239 143.584 34.8239Z" fill="url(#paint0_linear)"/>
<defs>
<linearGradient id="paint0_linear" x1="-9.70999e-08" y1="42.7076" x2="159.382" y2="0.00278563" gradientUnits="userSpaceOnUse">
<stop stop-color="#FFB911"/>
<stop offset="1" stop-color="#F14922"/>
</linearGradient>
</defs>
</svg>
