<svg width="40" height="40" viewBox="0 0 40 40" fill="none" xmlns="http://www.w3.org/2000/svg">
<path d="M35 0H5C2.23858 0 0 2.23858 0 5V35C0 37.7614 2.23858 40 5 40H35C37.7614 40 40 37.7614 40 35V5C40 2.23858 37.7614 0 35 0Z" fill="url(#paint0_linear)"/>
<path fill-rule="evenodd" clip-rule="evenodd" d="M20 23.3329C19.2317 23.3312 18.4878 23.0633 17.8948 22.5748C17.3018 22.0863 16.8964 21.4074 16.7476 20.6536C16.5987 19.8998 16.7156 19.1178 17.0785 18.4406C17.4413 17.7634 18.0277 17.2328 18.7377 16.9392C19.4477 16.6456 20.2373 16.607 20.9725 16.8302C21.7077 17.0533 22.343 17.5243 22.77 18.1629C23.1971 18.8016 23.3896 19.5686 23.3148 20.3332C23.2401 21.0979 22.9026 21.813 22.36 22.3569C22.0547 22.6729 21.6876 22.9227 21.2816 23.0906C20.8756 23.2585 20.4393 23.341 20 23.3329ZM20 14.8719C18.817 14.8744 17.6713 15.2869 16.7582 16.0391C15.845 16.7912 15.2208 17.8366 14.9917 18.9973C14.7626 20.158 14.9429 21.3621 15.5018 22.4048C16.0607 23.4476 16.9636 24.2643 18.057 24.7161C19.1504 25.168 20.3666 25.2269 21.4985 24.8828C22.6305 24.5388 23.6082 23.8131 24.2653 22.8293C24.9223 21.8455 25.2181 20.6644 25.1023 19.487C24.9865 18.3097 24.4662 17.2088 23.63 16.3719C23.1593 15.8875 22.5944 15.5044 21.9701 15.2465C21.3458 14.9885 20.6754 14.8611 20 14.8719ZM25.34 13.4659C25.0217 13.4659 24.7165 13.5924 24.4915 13.8174C24.2664 14.0424 24.14 14.3477 24.14 14.6659C24.14 14.9842 24.2664 15.2894 24.4915 15.5145C24.7165 15.7395 25.0217 15.8659 25.34 15.8659C25.6582 15.8659 25.9634 15.7395 26.1885 15.5145C26.4135 15.2894 26.54 14.9842 26.54 14.6659C26.54 14.3477 26.4135 14.0424 26.1885 13.8174C25.9634 13.5924 25.6582 13.4659 25.34 13.4659ZM22.37 11.7929C22.68 11.7976 23.1 11.8106 23.63 11.8319C24.079 11.8464 24.5266 11.8898 24.97 11.9619C25.2868 12.0131 25.5982 12.0938 25.9 12.2029C26.3272 12.3748 26.7151 12.6317 27.04 12.9579C27.3701 13.2831 27.629 13.6733 27.8 14.1039C27.9036 14.4077 27.9839 14.7189 28.04 15.0349C28.1108 15.4788 28.1543 15.9267 28.17 16.3759C28.19 16.9009 28.2 17.3199 28.21 17.6319V18.9999C28.2 19.5999 28.2 19.9349 28.2 19.9999C28.2 20.0649 28.2 20.3929 28.21 20.9999V22.3699C28.2 22.6829 28.19 23.1009 28.17 23.6259C28.1543 24.0752 28.1109 24.523 28.04 24.9669C27.9839 25.2829 27.9037 25.5942 27.8 25.8979C27.629 26.3283 27.3702 26.7182 27.04 27.0429C26.7152 27.3694 26.3273 27.6262 25.9 27.7979C25.5982 27.9071 25.2868 27.9877 24.97 28.0389C24.5266 28.1112 24.079 28.1546 23.63 28.1689C23.0967 28.1909 22.6767 28.2039 22.37 28.2079C22.06 28.2079 21.6 28.2079 21 28.2079L20 28.2019L19.01 28.2079C18.4 28.2126 17.94 28.2126 17.63 28.2079C17.32 28.2079 16.9 28.1909 16.38 28.1689C15.9309 28.1556 15.4833 28.1122 15.04 28.0389C14.7202 27.9864 14.4056 27.9057 14.1 27.7979C13.6727 27.6262 13.2848 27.3694 12.96 27.0429C12.633 26.7156 12.3747 26.3263 12.2 25.8979C12.0963 25.5942 12.0161 25.2829 11.96 24.9669C11.8891 24.523 11.8457 24.0752 11.83 23.6259C11.81 23.1009 11.8 22.6819 11.79 22.3699V20.9999C11.8 20.3999 11.8 20.0649 11.8 19.9999C11.8 19.9349 11.8 19.6079 11.79 18.9999V17.6309C11.8 17.3189 11.81 16.8999 11.83 16.3749C11.8457 15.9257 11.8892 15.4778 11.96 15.0339C12.0161 14.7179 12.0964 14.4067 12.2 14.1029C12.3747 13.6743 12.6331 13.2847 12.96 12.9569C13.2849 12.6307 13.6728 12.3738 14.1 12.2019C14.4056 12.0941 14.7202 12.0135 15.04 11.9609C15.4833 11.8878 15.9309 11.8443 16.38 11.8309C16.9 11.8099 17.32 11.7959 17.63 11.7919C17.94 11.7879 18.4 11.7919 19.01 11.7919L20 11.7999L21 11.7929C21.6 11.7889 22.06 11.7889 22.37 11.7929ZM29.9301 15.8739C29.9698 15.1015 29.8469 14.3293 29.5696 13.6073C29.2922 12.8853 28.8666 12.2295 28.3199 11.6824C27.7733 11.1352 27.118 10.7087 26.3962 10.4307C25.6745 10.1526 24.9025 10.029 24.13 10.0679C23.36 10.0249 21.99 10.0029 20 10.0029C18.01 10.0029 16.64 10.0249 15.87 10.0679C15.0975 10.029 14.3255 10.1526 13.6038 10.4307C12.882 10.7087 12.2267 11.1352 11.6801 11.6824C11.1334 12.2295 10.7078 12.8853 10.4304 13.6073C10.1531 14.3293 10.0302 15.1015 10.0699 15.8739C10.0299 16.6379 10 18.0129 10 19.9999C10 21.9869 10.0299 23.3629 10.0699 24.1269C10.0302 24.8994 10.1531 25.6715 10.4304 26.3935C10.7078 27.1155 11.1334 27.7713 11.6801 28.3185C12.2267 28.8657 12.882 29.2921 13.6038 29.5702C14.3255 29.8483 15.0975 29.9719 15.87 29.9329C16.64 29.9759 18.01 29.9979 20 29.9979C21.99 29.9979 23.36 29.9759 24.13 29.9329C24.9025 29.9719 25.6745 29.8483 26.3962 29.5702C27.118 29.2921 27.7733 28.8657 28.3199 28.3185C28.8666 27.7713 29.2922 27.1155 29.5696 26.3935C29.8469 25.6715 29.9698 24.8994 29.9301 24.1269C29.9801 23.3639 30 21.9879 30 19.9999C30 18.0119 29.9801 16.6369 29.9301 15.8739Z" fill="white"/>
<defs>
<linearGradient id="paint0_linear" x1="44" y1="-5" x2="2" y2="40" gradientUnits="userSpaceOnUse">
<stop stop-color="#405DE6"/>
<stop offset="0.213542" stop-color="#5851DB"/>
<stop offset="0.375" stop-color="#833AB4"/>
<stop offset="0.505208" stop-color="#C13584"/>
<stop offset="0.6875" stop-color="#E1306C"/>
<stop offset="0.786458" stop-color="#FD1D1D"/>
<stop offset="0.880208" stop-color="#F56040"/>
<stop offset="0.947917" stop-color="#F77737"/>
<stop offset="1" stop-color="#FCAF45"/>
</linearGradient>
</defs>
</svg>
