<svg id="Группа_1" data-name="Группа 1" xmlns="http://www.w3.org/2000/svg" width="40" height="40" viewBox="0 0 40 40">
    <metadata><?xpacket begin="﻿" id="W5M0MpCehiHzreSzNTczkc9d"?>
        <x:xmpmeta xmlns:x="adobe:ns:meta/" x:xmptk="Adobe XMP Core 5.6-c138 79.159824, 2016/09/14-01:09:01        ">
            <rdf:RDF xmlns:rdf="http://www.w3.org/1999/02/22-rdf-syntax-ns#">
                <rdf:Description rdf:about=""/>
            </rdf:RDF>
        </x:xmpmeta>


        <?xpacket end="w"?>
    </metadata>
    <defs>
        <style>
            .cls-1 {
            fill: #00adef;
            }

            .cls-2 {
            fill: #fff;
            fill-rule: evenodd;
            }
        </style>
    </defs>
    <rect id="Rounded_Rectangle_1_copy" data-name="Rounded Rectangle 1 copy" class="cls-1" width="40" height="40" rx="5"
          ry="5"/>
    <path class="cls-2"
          d="M1342.42,5140h1.03l-0.2.83h-1.03Zm-1.42,5.95h1.03l1.08-4.57h-1.01Zm9.52-5.95h-5.97l-0.22.83,2.47-.03-1.22,5.15h1.02l1.23-5.15h2.47Zm12.53,0-1.42,5.95h1.03l1.42-5.95h-1.03Zm3.97,1.34h-1.18l-2.37,2.42,1.81,2.21h1.17l-1.78-2.21Zm1.98,0h-1.2l-2.35,2.42,1.79,2.21h1.2l-1.81-2.21Zm-12.29,1.09a13.19,13.19,0,0,1-.34,1.41l-0.51,2.11h-0.98l-0.69-.02-1.47-.03a1.039,1.039,0,0,1-.73-0.99,2.038,2.038,0,0,1,.95-1.78,4.163,4.163,0,0,1,1.25-.12h0.08c0.63,0,1.24.03,1.24,0.03a1.54,1.54,0,0,0,.13-0.76,6.242,6.242,0,0,0-1.45-.07c-0.66,0-1.3.02-1.32,0l0.22-.83h2.96s0.88-.07.66,1.05m-1.37,1.41h-0.1c0,0.02-.56,0-1.05,0a5.536,5.536,0,0,0-.61.02c-0.51.05-.78,1.22-0.37,1.27,0.2,0.02.62,0.02,0.98,0.02h0.83Zm2.84-1.99a3.227,3.227,0,0,0-.9,1.89,2.413,2.413,0,0,0-.08,1.7,1.182,1.182,0,0,0,1.13.56l2.2-.03,0.2-.82-1.72-.02a0.78,0.78,0,0,1-.83-0.32,5.4,5.4,0,0,1,.17-1.09,6.647,6.647,0,0,1,.37-0.98,1.05,1.05,0,0,1,1-.55h1.67l0.22-.81-1.94-.02a2.178,2.178,0,0,0-1.49.49m-5.9-.47-0.78-.02a2.387,2.387,0,0,0-.83.12c-0.05.03-.12,0.05-0.25,0.12a1.362,1.362,0,0,0-.39.25,1.826,1.826,0,0,0-.56.77,17.238,17.238,0,0,0-.54,1.9l-0.34,1.48h1.03l0.19-.9,0.27-.99a2.036,2.036,0,0,1,.1-0.39,6.678,6.678,0,0,1,.34-0.98,1.09,1.09,0,0,1,1.03-.53h0.56Z"
          transform="translate(-1335 -5123)"/>
</svg>
