<svg width="201" height="74" viewBox="0 0 201 74" fill="none" xmlns="http://www.w3.org/2000/svg">
<g clip-path="url(#clip0)">
<path fill-rule="evenodd" clip-rule="evenodd" d="M80.641 11.722L80.517 11.439L70.1 0.151001L69.724 0L54.688 0.0999985L54.388 0.229L41.364 11.722L29.082 1.282L28.782 1.182L12.331 0.874001L11.984 1.029L0.148987 13.679L0 14.039L0.100006 31.472L0.200012 31.806L10.175 44.533L10.224 44.61L29.95 63.2L41.215 74H41.885L73.346 45.485L73.421 45.385L83.3 29.515L83.374 29.156L80.641 11.722ZM12.631 1.9L25.186 2.131L10.349 6.169L12.631 1.9ZM72.279 6.657L53.72 11.748L55.134 1.128L69.426 1.028L72.279 6.657ZM28.933 8.357L41.19 12.882L41.215 12.782H41.364V12.9L51.239 12.925L20.869 30.333L28.933 8.357ZM52.727 13.268L56.527 50.5L20.993 31.444L52.727 13.268ZM53.72 13.294L74.984 23.528L57.466 49.957L53.72 13.294ZM54.588 12.574L72.627 7.612L75.083 22.448L54.588 12.574ZM52.703 11.931L42.703 11.88L54.042 1.88L52.703 11.931ZM29.156 7.354L29.256 2.754L38.856 10.93L29.156 7.354ZM9.75601 7.405L28.266 2.366L28.166 7.38L7.073 18.1L9.75601 7.405ZM27.745 8.742L19.73 30.598L7.20001 19.179L27.745 8.742ZM55.36 51.042L28.216 53.485L20.847 32.529L55.36 51.042ZM56.08 52.019L41.54 72.744L28.784 54.456L56.08 52.019ZM57.42 51.814L70.595 46.62L44.542 70.25L57.42 51.814ZM58.412 50.322L74.984 25.35L72.552 44.738L58.412 50.322ZM75.93 21.447L73.5 6.888L73.45 6.734L71.813 3.52L79.579 11.928L75.93 21.447ZM10.1 4.522L8.909 6.734L8.85999 6.863L5.85999 18.871L1.07101 29.233L0.996002 14.242L10.1 4.522ZM1.168 31.392L6.478 19.898L19.5 31.778L26.944 52.914L10.866 43.814L1.168 31.392ZM13.946 46.717L27.546 54.43L38.215 69.73L30.623 62.43L13.946 46.717ZM73.793 42.912L76.224 23.447L79.946 13.728L82.353 29.128L73.793 42.912Z" fill="#F99F24"/>
<path fill-rule="evenodd" clip-rule="evenodd" d="M43.216 16.361C50.716 16.361 56.416 21.631 56.416 29.673C56.4731 31.4261 56.1715 33.1724 55.5295 34.8048C54.8875 36.4371 53.9188 37.9211 52.6828 39.1657C51.4468 40.4102 49.9695 41.3891 48.3416 42.0423C46.7137 42.6954 44.9695 43.0091 43.216 42.964C35.689 42.964 30.04 37.693 30.04 29.673C30.04 22.173 35.421 16.361 43.216 16.361ZM43.216 38.723C48.516 38.723 51.716 34.755 51.716 29.674C51.716 24.32 47.984 20.603 43.216 20.603C38.37 20.603 34.741 24.32 34.741 29.674C34.741 34.818 38.473 38.723 43.216 38.723ZM78.187 32.023C79.6814 31.4768 80.9618 30.4668 81.8411 29.1407C82.7203 27.8147 83.1524 26.2422 83.074 24.653C83.074 20.201 80.806 16.695 73.898 16.695C73.176 16.695 64.207 16.779 62.784 16.779V42.545H67.238V32.907H73.754L80.723 42.545H86.123L78.187 32.023ZM73.527 28.663H67.382V21C68.582 20.979 72.847 20.938 73.671 20.938C77.3 20.938 78.371 22.66 78.371 24.696C78.371 27.342 76.103 28.664 73.525 28.664L73.527 28.663ZM117.819 28.663H125.758V39.354C123.51 41.621 119.427 42.965 116.293 42.965C108.004 42.965 103.093 37.694 103.093 29.674C103.093 22.262 107.959 16.362 115.713 16.362C118.65 16.2241 121.536 17.1569 123.837 18.987L121.964 22.6C120.365 21.2644 118.335 20.5554 116.252 20.605C111.365 20.605 107.797 23.923 107.797 29.676C107.797 35.156 111.22 38.725 116.355 38.725C118.253 38.7245 120.099 38.1056 121.613 36.962V32.907H115.489L117.819 28.663ZM142.666 16.7H146.566L157.266 42.547H152.523L149.884 35.954H139.078L136.439 42.547H131.964L142.666 16.7ZM140.766 31.734H148.189L144.5 22.556L140.766 31.734ZM162.891 16.784H167.391L176.031 28.815L184.279 16.784H188.465V42.545H184.05V23.921L176.05 35.364H175.41L167.348 24.026V42.545H162.894V16.782L162.891 16.784ZM91.649 16.448H96.082V42.629H91.649V16.446V16.448ZM96.124 48.448C96.1158 48.903 95.9733 49.3454 95.7145 49.7197C95.4557 50.0941 95.0921 50.3836 94.6693 50.552C94.2466 50.7204 93.7835 50.7602 93.3382 50.6664C92.8929 50.5726 92.4852 50.3493 92.1664 50.0247C91.8475 49.7 91.6316 49.2884 91.5458 48.8415C91.4601 48.3946 91.5082 47.9323 91.6842 47.5126C91.8602 47.0929 92.1562 46.7346 92.5351 46.4826C92.914 46.2306 93.359 46.0961 93.814 46.096C94.4311 46.1052 95.0197 46.3573 95.4521 46.7976C95.8845 47.2379 96.1259 47.8309 96.124 48.448ZM196.464 16.782H200.917V43.026H196.464V16.782ZM201 10.882C200.992 11.337 200.849 11.7794 200.59 12.1538C200.332 12.5281 199.968 12.8176 199.545 12.986C199.123 13.1544 198.659 13.1942 198.214 13.1004C197.769 13.0066 197.361 12.7833 197.042 12.4587C196.723 12.134 196.508 11.7224 196.422 11.2755C196.336 10.8286 196.384 10.3663 196.56 9.9466C196.736 9.52695 197.032 9.16862 197.411 8.91661C197.79 8.66459 198.235 8.5301 198.69 8.53003C198.996 8.53225 199.299 8.59488 199.581 8.71432C199.863 8.83376 200.118 9.00766 200.333 9.22607C200.548 9.44448 200.717 9.70308 200.831 9.98708C200.946 10.2711 201.003 10.5749 201 10.881V10.882Z" fill="#090A22"/>
<path fill-rule="evenodd" clip-rule="evenodd" d="M122.232 60.736C122.542 60.6345 122.815 60.4448 123.018 60.19C123.209 59.9365 123.309 59.6255 123.3 59.308C123.31 59.0722 123.259 58.8378 123.152 58.6275C123.045 58.4173 122.885 58.2383 122.688 58.108C122.179 57.8012 121.589 57.6548 120.996 57.688H118.212V64H121.08C121.719 64.0441 122.357 63.889 122.904 63.556C123.144 63.3678 123.326 63.1146 123.426 62.8265C123.527 62.5384 123.543 62.2275 123.472 61.9306C123.401 61.6337 123.247 61.3633 123.027 61.1516C122.807 60.9398 122.531 60.7956 122.232 60.736ZM119.04 58.36H120.94C121.332 58.336 121.722 58.4278 122.062 58.624C122.19 58.7109 122.293 58.8296 122.362 58.9684C122.43 59.1073 122.461 59.2615 122.452 59.416C122.46 59.5714 122.428 59.7263 122.36 59.8661C122.292 60.006 122.189 60.1263 122.062 60.216C121.725 60.4206 121.333 60.5169 120.94 60.492H119.04V58.36ZM121.04 63.328H119.04V61.128H121.128C121.538 61.0964 121.949 61.1906 122.304 61.398C122.43 61.4953 122.53 61.6225 122.595 61.7681C122.66 61.9136 122.688 62.0731 122.676 62.232C122.688 62.3938 122.656 62.5557 122.584 62.7012C122.512 62.8467 122.403 62.9705 122.268 63.06C121.893 63.2605 121.469 63.352 121.044 63.324L121.04 63.328ZM128.14 64.06C128.642 64.0675 129.139 63.9587 129.592 63.742C130.015 63.5379 130.37 63.2147 130.612 62.812L129.976 62.38C129.782 62.682 129.508 62.9243 129.184 63.08C128.858 63.2335 128.501 63.3114 128.14 63.308C127.71 63.3146 127.286 63.2092 126.91 63.002C126.549 62.8013 126.254 62.5015 126.058 62.138C125.857 61.7388 125.752 61.298 125.752 60.851C125.752 60.404 125.857 59.9632 126.058 59.564C126.252 59.198 126.548 58.8959 126.91 58.694C127.286 58.4868 127.71 58.3814 128.14 58.388C128.501 58.3847 128.859 58.4648 129.184 58.622C129.506 58.7797 129.78 59.0215 129.976 59.322L130.612 58.89C130.371 58.4885 130.019 58.1655 129.598 57.96C129.143 57.7421 128.644 57.6332 128.14 57.642C127.556 57.632 126.98 57.7725 126.466 58.05C125.981 58.3148 125.58 58.7096 125.308 59.19C125.032 59.6995 124.888 60.2697 124.888 60.849C124.888 61.4283 125.032 61.9985 125.308 62.508C125.579 62.991 125.98 63.3882 126.466 63.654C126.98 63.9315 127.556 64.072 128.14 64.062V64.06ZM137.68 60.844C137.69 60.2651 137.552 59.6931 137.28 59.182C137.028 58.7104 136.65 58.3178 136.188 58.048C135.711 57.7725 135.167 57.6315 134.616 57.64C134.063 57.632 133.518 57.7729 133.038 58.048C132.573 58.3191 132.192 58.7137 131.938 59.188C131.666 59.6969 131.528 60.2669 131.538 60.844C131.529 61.4235 131.674 61.995 131.958 62.5C132.234 62.9836 132.639 63.3806 133.128 63.646C133.657 63.9294 134.25 64.0719 134.85 64.06C135.325 64.0656 135.796 63.9758 136.236 63.796C136.643 63.6294 137.004 63.3658 137.286 63.028L136.806 62.476C136.572 62.7435 136.281 62.9548 135.954 63.094C135.612 63.2368 135.245 63.3082 134.874 63.304C134.242 63.3269 133.625 63.1105 133.146 62.698C132.92 62.4972 132.736 62.2529 132.607 61.9798C132.477 61.7067 132.403 61.4102 132.39 61.108H137.67L137.68 60.844ZM134.62 58.372C135.191 58.3548 135.745 58.564 136.162 58.954C136.579 59.3535 136.829 59.8958 136.862 60.472H132.4C132.433 59.8958 132.683 59.3535 133.1 58.954C133.513 58.5656 134.063 58.3563 134.63 58.372H134.62ZM133.552 56.428C133.62 56.4285 133.687 56.4156 133.75 56.3898C133.813 56.3641 133.87 56.3261 133.918 56.2781C133.966 56.23 134.004 56.1729 134.03 56.1101C134.056 56.0473 134.069 55.9799 134.068 55.912C134.069 55.8435 134.056 55.7755 134.029 55.7124C134.002 55.6494 133.962 55.5927 133.912 55.546C133.865 55.4982 133.809 55.4602 133.747 55.4345C133.685 55.4087 133.619 55.3956 133.552 55.396C133.484 55.3955 133.417 55.4085 133.354 55.4342C133.291 55.4599 133.234 55.4979 133.186 55.546C133.138 55.594 133.1 55.6511 133.074 55.7139C133.048 55.7768 133.036 55.8441 133.036 55.912C133.034 55.9811 133.046 56.0499 133.072 56.114C133.097 56.178 133.136 56.236 133.186 56.284C133.234 56.3311 133.292 56.3681 133.355 56.3928C133.417 56.4175 133.485 56.4295 133.552 56.428ZM135.688 56.428C135.756 56.4295 135.823 56.4175 135.885 56.3928C135.948 56.3681 136.006 56.3311 136.054 56.284C136.104 56.236 136.143 56.178 136.169 56.114C136.194 56.0499 136.207 55.9811 136.204 55.912C136.204 55.7776 136.151 55.6486 136.057 55.5528C135.963 55.457 135.834 55.4021 135.7 55.4C135.633 55.3996 135.567 55.4127 135.505 55.4385C135.443 55.4642 135.387 55.5022 135.34 55.55C135.29 55.5967 135.25 55.6534 135.223 55.7164C135.196 55.7795 135.183 55.8475 135.184 55.916C135.183 55.9839 135.196 56.0513 135.222 56.1141C135.248 56.1769 135.286 56.234 135.334 56.2821C135.382 56.3301 135.439 56.3681 135.502 56.3938C135.565 56.4196 135.632 56.4325 135.7 56.432L135.688 56.428ZM145.348 64.06C145.85 64.0675 146.347 63.9587 146.8 63.742C147.223 63.5379 147.578 63.2147 147.82 62.812L147.184 62.38C146.99 62.682 146.716 62.9243 146.392 63.08C146.066 63.2335 145.709 63.3114 145.348 63.308C144.918 63.3146 144.494 63.2092 144.118 63.002C143.757 62.8013 143.462 62.5015 143.266 62.138C143.065 61.7388 142.96 61.298 142.96 60.851C142.96 60.404 143.065 59.9632 143.266 59.564C143.46 59.198 143.756 58.8959 144.118 58.694C144.494 58.4868 144.918 58.3814 145.348 58.388C145.709 58.3847 146.067 58.4648 146.392 58.622C146.714 58.7797 146.988 59.0215 147.184 59.322L147.82 58.89C147.579 58.4885 147.227 58.1655 146.806 57.96C146.351 57.7421 145.852 57.6332 145.348 57.642C144.764 57.632 144.188 57.7725 143.674 58.05C143.189 58.3148 142.788 58.7096 142.516 59.19C142.24 59.6995 142.096 60.2697 142.096 60.849C142.096 61.4283 142.24 61.9985 142.516 62.508C142.787 62.991 143.188 63.3882 143.674 63.654C144.188 63.9315 144.764 64.072 145.348 64.062V64.06ZM149.788 57.688L149.68 59.944C149.64 60.6773 149.592 61.2693 149.536 61.72C149.497 62.1139 149.382 62.4967 149.2 62.848C149.133 62.9879 149.028 63.1054 148.896 63.1864C148.764 63.2673 148.611 63.3082 148.456 63.304C148.355 63.2973 148.254 63.2812 148.156 63.256L148.096 63.988C148.295 64.0472 148.501 64.0808 148.708 64.088C149.013 64.0877 149.308 63.982 149.543 63.7887C149.779 63.5955 149.94 63.3267 150 63.028C150.285 62.0433 150.438 61.0251 150.456 60L150.54 58.44H153.564V64H154.416V57.688H149.8H149.788ZM159.436 64.06C160.011 64.0683 160.578 63.9256 161.08 63.646C161.56 63.3771 161.957 62.9804 162.226 62.5C162.498 61.9904 162.64 61.4216 162.64 60.844C162.64 60.2664 162.498 59.6977 162.226 59.188C161.958 58.7085 161.561 58.3135 161.08 58.048C160.573 57.7801 160.009 57.64 159.436 57.64C158.863 57.64 158.299 57.7801 157.792 58.048C157.31 58.3142 156.911 58.7088 156.64 59.188C156.364 59.6965 156.22 60.2657 156.22 60.844C156.22 61.4224 156.364 61.9916 156.64 62.5C156.912 62.9801 157.311 63.3765 157.792 63.646C158.294 63.9258 158.861 64.0686 159.436 64.06ZM159.436 63.304C159.014 63.3109 158.598 63.2053 158.23 62.998C157.873 62.7933 157.582 62.4916 157.39 62.128C157.189 61.7299 157.084 61.2901 157.084 60.844C157.084 60.3979 157.189 59.9581 157.39 59.56C157.582 59.1964 157.873 58.8947 158.23 58.69C158.6 58.4892 159.015 58.3841 159.436 58.3841C159.857 58.3841 160.272 58.4892 160.642 58.69C160.998 58.8941 161.287 59.1961 161.476 59.56C161.673 59.9593 161.776 60.3987 161.776 60.844C161.776 61.2893 161.673 61.7287 161.476 62.128C161.287 62.4919 160.998 62.7939 160.642 62.998C160.274 63.2051 159.858 63.3107 159.436 63.304ZM171.711 64.004H172.731L170.463 60.764L172.551 57.692H171.627L169.767 60.464H168.399V57.688H167.547V60.46H166.179L164.331 57.688H163.407L165.495 60.748L163.235 64H164.255L166.187 61.192H167.555V64H168.407V61.192H169.775L171.711 64.004ZM174.147 64.004H174.915L179.115 58.988V64H179.967V57.688H179.211L174.999 62.704V57.688H174.147V64V64.004ZM186.847 57.692H181.219V58.448H183.607V64H184.459V58.444H186.847V57.688V57.692ZM190.435 64.064C190.937 64.0715 191.434 63.9627 191.887 63.746C192.31 63.5419 192.665 63.2187 192.907 62.816L192.271 62.384C192.077 62.686 191.803 62.9283 191.479 63.084C191.153 63.2375 190.796 63.3154 190.435 63.312C190.005 63.3186 189.581 63.2132 189.205 63.006C188.844 62.8053 188.549 62.5055 188.353 62.142C188.152 61.7428 188.047 61.302 188.047 60.855C188.047 60.408 188.152 59.9672 188.353 59.568C188.547 59.202 188.843 58.8999 189.205 58.698C189.581 58.4908 190.005 58.3854 190.435 58.392C190.796 58.3887 191.154 58.4688 191.479 58.626C191.801 58.7837 192.075 59.0255 192.271 59.326L192.907 58.894C192.666 58.4925 192.314 58.1695 191.893 57.964C191.438 57.7461 190.939 57.6372 190.435 57.646C189.851 57.636 189.275 57.7765 188.761 58.054C188.276 58.3188 187.875 58.7136 187.603 59.194C187.327 59.7035 187.183 60.2737 187.183 60.853C187.183 61.4323 187.327 62.0025 187.603 62.512C187.874 62.995 188.275 63.3921 188.761 63.658C189.275 63.9355 189.851 64.076 190.435 64.066V64.064ZM196.535 57.692C195.836 57.653 195.144 57.8471 194.567 58.244C194.326 58.434 194.135 58.6795 194.009 58.9595C193.884 59.2395 193.828 59.5458 193.847 59.852C193.83 60.302 193.972 60.7435 194.247 61.1C194.539 61.4475 194.934 61.6928 195.375 61.8L193.8 64H194.724L196.188 61.912H198.408V64H199.188V57.688H196.536L196.535 57.692ZM194.711 59.876C194.711 58.924 195.327 58.448 196.559 58.448H198.407V61.28H196.5C195.308 61.28 194.712 60.8133 194.712 59.88L194.711 59.876Z" fill="#090A22"/>
<path d="M113 60H69V62H113V60Z" fill="#090A22"/>
</g>
<defs>
<clipPath id="clip0">
<path d="M0 0H201V74H0V0Z" fill="white"/>
</clipPath>
</defs>
</svg>
