<svg id="logo" xmlns="http://www.w3.org/2000/svg" width="201" height="74" viewBox="0 0 201 74">
    <defs>
        <style>
            .cls-1 {
            fill: #f99f24;
            }

            .cls-1, .cls-2 {
            fill-rule: evenodd;
            }

            .cls-2, .cls-3 {
            fill: #090a22;
            }
        </style>
    </defs>
    <path class="cls-1"
          d="M336.641,49.722l-0.124-.283L326.1,38.151,325.724,38l-15.036.1-0.3.129L297.364,49.722l-12.282-10.44-0.3-.1-16.451-.308-0.347.155-11.835,12.65-0.149.36,0.1,17.433,0.1,0.334,9.975,12.727,0.049,0.077L285.95,101.2,297.215,112h0.67l31.461-28.515,0.075-.1L339.3,67.515l0.074-.359ZM268.631,39.9l12.555,0.231-14.837,4.038Zm59.648,4.757L309.72,49.748l1.414-10.62,14.292-.1Zm-43.346,1.7,12.257,4.525,0.025-.1h0.149V50.9l9.875,0.025-30.37,17.408Zm23.794,4.911,3.8,37.232L276.993,69.444Zm0.993,0.026,21.264,10.234L313.466,87.957Zm0.868-.72,18.039-4.962,2.456,14.836Zm-1.885-.643-10-.051,11.339-10Zm-23.547-4.577,0.1-4.6,9.6,8.176Zm-19.4.051,18.51-5.039-0.1,5.014L263.073,56.1Zm17.989,1.337-8.015,21.856L263.2,57.179Zm27.615,42.3-27.144,2.443-7.369-20.956Zm0.72,0.977-14.54,20.725L284.784,92.456Zm1.34-.205,13.175-5.194-26.053,23.63Zm0.992-1.492L330.984,63.35l-2.432,19.388Zm17.518-28.875L329.5,44.888l-0.05-.154-1.637-3.214,7.766,8.408ZM266.1,42.522l-1.191,2.212-0.049.129-3,12.008-4.789,10.362-0.075-14.991Zm-8.932,26.87,5.31-11.494L275.5,69.778l7.444,21.136-16.078-9.1Zm12.778,15.325,13.6,7.713,10.669,15.3-7.592-7.3Zm59.847-3.805,2.431-19.465,3.722-9.719,2.407,15.4Z"
          transform="translate(-256 -38)"/>
    <path class="cls-2"
          d="M299.216,54.361c7.5,0,13.2,5.27,13.2,13.312a12.876,12.876,0,0,1-13.2,13.291c-7.527,0-13.176-5.271-13.176-13.291,0-7.5,5.381-13.312,13.176-13.312h0Zm0,22.362c5.3,0,8.5-3.968,8.5-9.049,0-5.354-3.732-9.071-8.5-9.071-4.846,0-8.475,3.717-8.475,9.071,0,5.144,3.732,9.049,8.475,9.049h0Zm34.971-6.7a7.456,7.456,0,0,0,4.887-7.37c0-4.452-2.268-7.958-9.176-7.958-0.722,0-9.691.084-11.114,0.084V80.545h4.454V70.907h6.516l6.969,9.638h5.4Zm-4.66-3.36h-6.145V59c1.2-.021,5.465-0.062,6.289-0.062,3.629,0,4.7,1.722,4.7,3.758,0,2.646-2.268,3.968-4.846,3.968h0Zm44.292,0h7.939V77.354c-2.248,2.267-6.331,3.611-9.465,3.611-8.289,0-13.2-5.271-13.2-13.291,0-7.412,4.866-13.312,12.62-13.312a12.135,12.135,0,0,1,8.124,2.625L377.964,60.6a8.591,8.591,0,0,0-5.712-1.995c-4.887,0-8.455,3.318-8.455,9.071,0,5.48,3.423,9.049,8.558,9.049a8.729,8.729,0,0,0,5.258-1.763V70.907h-6.124ZM398.666,54.7h3.9l10.7,25.847h-4.743l-2.639-6.593H395.078l-2.639,6.593h-4.475Zm-1.9,15.034h7.423L400.5,60.556Zm22.125-14.95h4.5l8.64,12.031,8.248-12.031h4.186V80.545H440.05V61.921l-8,11.443h-0.64l-8.062-11.338V80.545h-4.454V54.782Zm-71.242-.336h4.433V80.629h-4.433V54.446Zm4.475,32a2.31,2.31,0,1,1-2.31-2.352,2.345,2.345,0,0,1,2.31,2.352h0ZM452.464,54.782h4.453V81.026h-4.453V54.782Zm4.536-5.9a2.31,2.31,0,1,1-2.31-2.352A2.327,2.327,0,0,1,457,48.881h0Z"
          transform="translate(-256 -38)"/>
    <path id="всё_сложится" data-name="всё сложится" class="cls-2"
          d="M378.232,98.736a1.671,1.671,0,0,0,.786-0.546,1.4,1.4,0,0,0,.282-0.882,1.369,1.369,0,0,0-.612-1.2,2.957,2.957,0,0,0-1.692-.42h-2.784V102h2.868a3.1,3.1,0,0,0,1.824-.444,1.595,1.595,0,0,0-.672-2.82h0ZM375.04,96.36h1.9a2,2,0,0,1,1.122.264,0.893,0.893,0,0,1,.39.792,0.923,0.923,0,0,1-.39.8,1.928,1.928,0,0,1-1.122.276h-1.9V96.36Zm2,4.968h-2v-2.2h2.088a2.025,2.025,0,0,1,1.176.27,0.962,0.962,0,0,1,.372.834,0.915,0.915,0,0,1-.408.828,2.28,2.28,0,0,1-1.224.264h0Zm7.1,0.732a3.252,3.252,0,0,0,1.452-.318,2.413,2.413,0,0,0,1.02-.93l-0.636-.432a1.945,1.945,0,0,1-.792.7,2.4,2.4,0,0,1-1.044.228,2.472,2.472,0,0,1-1.23-.306,2.16,2.16,0,0,1-.852-0.864,2.859,2.859,0,0,1,0-2.574,2.151,2.151,0,0,1,.852-0.87,2.472,2.472,0,0,1,1.23-.306,2.35,2.35,0,0,1,1.044.234,1.99,1.99,0,0,1,.792.7l0.636-.432a2.422,2.422,0,0,0-1.014-.93,3.243,3.243,0,0,0-1.458-.318,3.4,3.4,0,0,0-1.674.408,2.966,2.966,0,0,0-1.158,1.14,3.487,3.487,0,0,0,0,3.318,2.953,2.953,0,0,0,1.158,1.146,3.4,3.4,0,0,0,1.674.408h0Zm9.54-3.216a3.415,3.415,0,0,0-.4-1.662,2.894,2.894,0,0,0-1.092-1.134,3.051,3.051,0,0,0-1.572-.408,3.083,3.083,0,0,0-1.578.408,2.912,2.912,0,0,0-1.1,1.14,3.383,3.383,0,0,0-.4,1.656,3.267,3.267,0,0,0,.42,1.656,2.985,2.985,0,0,0,1.17,1.146,3.5,3.5,0,0,0,1.722.414,3.551,3.551,0,0,0,1.386-.264,2.7,2.7,0,0,0,1.05-.768l-0.48-.552a2.359,2.359,0,0,1-.852.618,2.723,2.723,0,0,1-1.08.21,2.509,2.509,0,0,1-1.728-.606,2.256,2.256,0,0,1-.756-1.59h5.28Zm-3.06-2.472a2.162,2.162,0,0,1,1.542.582,2.286,2.286,0,0,1,.7,1.518H388.4a2.286,2.286,0,0,1,.7-1.518,2.147,2.147,0,0,1,1.53-.582h0Zm-1.068-1.944a0.512,0.512,0,0,0,.516-0.516,0.489,0.489,0,0,0-.156-0.366,0.5,0.5,0,0,0-.36-0.15,0.512,0.512,0,0,0-.516.516,0.493,0.493,0,0,0,.15.372,0.509,0.509,0,0,0,.366.144h0Zm2.136,0a0.509,0.509,0,0,0,.366-0.144,0.493,0.493,0,0,0,.15-0.372A0.512,0.512,0,0,0,391.7,93.4a0.5,0.5,0,0,0-.36.15,0.489,0.489,0,0,0-.156.366,0.512,0.512,0,0,0,.516.516h0Zm9.66,7.632a3.252,3.252,0,0,0,1.452-.318,2.413,2.413,0,0,0,1.02-.93l-0.636-.432a1.945,1.945,0,0,1-.792.7,2.4,2.4,0,0,1-1.044.228,2.472,2.472,0,0,1-1.23-.306,2.16,2.16,0,0,1-.852-0.864,2.859,2.859,0,0,1,0-2.574,2.151,2.151,0,0,1,.852-0.87,2.472,2.472,0,0,1,1.23-.306,2.35,2.35,0,0,1,1.044.234,1.99,1.99,0,0,1,.792.7l0.636-.432a2.422,2.422,0,0,0-1.014-.93,3.243,3.243,0,0,0-1.458-.318,3.4,3.4,0,0,0-1.674.408,2.966,2.966,0,0,0-1.158,1.14,3.487,3.487,0,0,0,0,3.318,2.953,2.953,0,0,0,1.158,1.146,3.4,3.4,0,0,0,1.674.408h0Zm4.44-6.372-0.108,2.256q-0.06,1.1-.144,1.776a3.124,3.124,0,0,1-.336,1.128,0.8,0.8,0,0,1-.744.456,1.653,1.653,0,0,1-.3-0.048l-0.06.732a2.443,2.443,0,0,0,.612.1A1.319,1.319,0,0,0,406,101.028,11.6,11.6,0,0,0,406.456,98l0.084-1.56h3.024V102h0.852V95.688H405.8Zm9.648,6.372a3.283,3.283,0,0,0,1.644-.414,2.983,2.983,0,0,0,1.146-1.146,3.519,3.519,0,0,0,0-3.312,2.942,2.942,0,0,0-1.146-1.14,3.516,3.516,0,0,0-3.288,0,2.978,2.978,0,0,0-1.152,1.14,3.475,3.475,0,0,0,0,3.312,3.019,3.019,0,0,0,1.152,1.146,3.278,3.278,0,0,0,1.644.414h0Zm0-.756a2.377,2.377,0,0,1-1.206-.306,2.173,2.173,0,0,1-.84-0.87,2.847,2.847,0,0,1,0-2.568,2.174,2.174,0,0,1,.84-0.87,2.53,2.53,0,0,1,2.412,0,2.14,2.14,0,0,1,.834.87,2.9,2.9,0,0,1,0,2.568,2.14,2.14,0,0,1-.834.87,2.382,2.382,0,0,1-1.206.306h0Zm12.275,0.7h1.02l-2.268-3.24,2.088-3.072h-0.924l-1.86,2.772h-1.368V95.688h-0.852V98.46h-1.368l-1.848-2.772h-0.924l2.088,3.06L419.235,102h1.02l1.932-2.808h1.368V102h0.852V99.192h1.368Zm2.436,0h0.768l4.2-5.016V102h0.852V95.688h-0.756l-4.212,5.016V95.688h-0.852V102Zm12.7-6.312h-5.628v0.756h2.388V102h0.852V96.444h2.388V95.688Zm3.588,6.372a3.252,3.252,0,0,0,1.452-.318,2.413,2.413,0,0,0,1.02-.93l-0.636-.432a1.945,1.945,0,0,1-.792.7,2.4,2.4,0,0,1-1.044.228,2.472,2.472,0,0,1-1.23-.306,2.16,2.16,0,0,1-.852-0.864,2.859,2.859,0,0,1,0-2.574,2.151,2.151,0,0,1,.852-0.87,2.472,2.472,0,0,1,1.23-.306,2.35,2.35,0,0,1,1.044.234,1.99,1.99,0,0,1,.792.7l0.636-.432a2.422,2.422,0,0,0-1.014-.93,3.243,3.243,0,0,0-1.458-.318,3.4,3.4,0,0,0-1.674.408,2.966,2.966,0,0,0-1.158,1.14,3.487,3.487,0,0,0,0,3.318,2.953,2.953,0,0,0,1.158,1.146,3.4,3.4,0,0,0,1.674.408h0Zm6.1-6.372a3.161,3.161,0,0,0-1.968.552,1.9,1.9,0,0,0-.72,1.608,1.927,1.927,0,0,0,.4,1.248,2.13,2.13,0,0,0,1.128.7L449.8,102h0.924l1.464-2.088h2.22V102h0.78V95.688h-2.652Zm-1.824,2.184q0-1.428,1.848-1.428h1.848v2.832H452.5q-1.788,0-1.788-1.4h0Z"
          transform="translate(-256 -38)"/>
    <rect class="cls-3" x="69" y="60" width="44" height="2"/>
</svg>
