<?xml version="1.0" encoding="UTF-8"?>
<!DOCTYPE svg PUBLIC "-//W3C//DTD SVG 1.1//EN" "http://www.w3.org/Graphics/SVG/1.1/DTD/svg11.dtd">
<!-- Creator: CorelDRAW X8 -->
<svg xmlns="http://www.w3.org/2000/svg" xml:space="preserve" width="57.8067mm" height="13.2557mm" version="1.1" style="shape-rendering:geometricPrecision; text-rendering:geometricPrecision; image-rendering:optimizeQuality; fill-rule:evenodd; clip-rule:evenodd"
viewBox="0 0 1345 308"
 xmlns:xlink="http://www.w3.org/1999/xlink">
 <defs>
  <style type="text/css">
   <![CDATA[
    .fil0 {fill:#B62C30;fill-rule:nonzero}
   ]]>
  </style>
 </defs>
 <g id="Слой_x0020_1">
  <metadata id="CorelCorpID_0Corel-Layer"/>
  <path class="fil0" d="M171 103c-10,-3 -19,-5 -29,-5 -53,0 -60,52 -60,97l0 104 -82 0 0 -289 82 0 0 41 2 0c14,-17 40,-41 68,-42 12,0 28,2 38,6l-19 88z"/>
  <path class="fil0" d="M392 117c-5,-30 -23,-59 -55,-59 -33,0 -51,29 -56,59l111 0zm-113 51c0,36 14,77 57,77 27,0 44,-16 56,-39l75 12c-20,58 -70,90 -131,90 -89,0 -144,-63 -144,-151 0,-87 47,-156 140,-156 95,0 137,70 137,157l0 10 -190 0z"/>
  <polygon class="fil0" points="581,297 499,297 499,8 581,8 "/>
  <path class="fil0" d="M703 36l1 0c16,-23 44,-35 71,-35 36,0 61,13 82,43 18,-26 52,-43 85,-43 74,0 92,55 92,118l0 180 -82 0 0 -152c0,-28 1,-80 -39,-80 -45,0 -44,60 -44,90l0 142 -83 0 0 -147c0,-28 4,-85 -39,-85 -46,0 -44,60 -44,90l0 142 -82 0 0 -289 82 0 0 26z"/>
  <path class="fil0" d="M1270 154c0,-39 -24,-81 -67,-81 -42,0 -65,42 -65,81 0,38 23,81 65,81 43,0 67,-43 67,-81zm75 144l-81 0 0 -26 -1 0c-18,23 -43,36 -73,36 -85,0 -133,-77 -133,-156 0,-76 48,-152 131,-152 30,0 56,13 76,36l0 -27 81 0 0 289z"/>
 </g>
</svg>
