<svg id="Слой_1" data-name="Слой 1" xmlns="http://www.w3.org/2000/svg" viewBox="0 0 137.03 36.52"><defs><style>.cls-1{fill:#141b53;}.cls-1,.cls-2,.cls-4,.cls-6,.cls-7,.cls-9{fill-rule:evenodd;}.cls-2{fill:#e31145;}.cls-3,.cls-9{fill:#1b2747;}.cls-4{fill:#e10585;}.cls-5{fill:#e21243;}.cls-6{fill:#00a3d3;}.cls-7{fill:#754090;}.cls-8{fill:#f27e04;}</style></defs><title>11</title><path class="cls-1" d="M465,182.63a8.9,8.9,0,0,0-1.58,2.91v.2a.3.3,0,0,0,0,.33l.26.46a.12.12,0,0,0,.2,0c.07-.13.13-.33.2-.46a7.4,7.4,0,0,1,1.65-1.78c.33-.33-.2-1.19-.4-1.59a.23.23,0,0,0-.33-.07Z" transform="translate(-450.04 -152.32)"/><path class="cls-2" d="M465.16,176.16c.07,0,.13,0,.13-.07h0a8.81,8.81,0,0,0,0-1.32h-.07a9.78,9.78,0,0,0-3-1.06c-.07-.07-.13,0-.13.07a1.12,1.12,0,0,1,.07.46.06.06,0,0,1,.07.07,8.67,8.67,0,0,1,3,1.85Z" transform="translate(-450.04 -152.32)"/><path class="cls-1" d="M460.53,187c.2-.2,1.12-.4,1.59-.86a8.11,8.11,0,0,0,.73-2.18c0-1.39.07-3.57-.07-5.15s-.33-2.77-.53-3.9c-.07-.13.07-.2.2-.2a10,10,0,0,1,2.58,1.78c.13.07.13.2.2.26.13,2.18-.79,3.37-.33,5.15a2.86,2.86,0,0,1,.07.33c-.07.13-.13.2-.13.26a9.4,9.4,0,0,0-1.72,3.1,1.24,1.24,0,0,0,.13.53c.13.26.73.92.33,1.12a8.09,8.09,0,0,1-1.25.13,6.35,6.35,0,0,1-1.59-.13c-.07,0-.33,0-.2-.26Z" transform="translate(-450.04 -152.32)"/><path class="cls-1" d="M465.55,184.75s.07.07,0,.07a3,3,0,0,0-.33,1.19,13.69,13.69,0,0,0-.07,1.39h-.33a11.91,11.91,0,0,1,0-1.58.55.55,0,0,1,.2-.53,3.92,3.92,0,0,1,.53-.53Z" transform="translate(-450.04 -152.32)"/><path class="cls-3" d="M473.41,171.34c-.07.2-.07.46-.4.53a2,2,0,0,1-1-.46,19.13,19.13,0,0,1-2.44-1.45,2,2,0,0,1-.86-1.25c.13-.53.73.07,1.39.13.46,0,.53.79.92,1.12a2.34,2.34,0,0,0,1.78.4c.26,0,.53-.07.73-.07s.26.13.2.2c-.13.33-.2.59-.33.86Z" transform="translate(-450.04 -152.32)"/><path class="cls-4" d="M471.7,170a2.94,2.94,0,0,0,1.32,0c.07,0,.07-.13,0-.13-.26-.13-.79-.13-1.12-.26a3.39,3.39,0,0,1-.66-.26c-.13-.07-.26-.07-.13.13a.94.94,0,0,0,.59.53Z" transform="translate(-450.04 -152.32)"/><path class="cls-3" d="M457.83,162.89c1.52,1.52,2,1.32,2,1.32h0c.07-.2,0-.53-.2-.59s-.59-.4-1-.73a43.18,43.18,0,0,1-4.69-4.62c-.07-.13-.2-.13-.33,0h0a.3.3,0,0,0,0,.33Z" transform="translate(-450.04 -152.32)"/><path class="cls-5" d="M454.92,156.61h0a.51.51,0,0,1,.66.2,6,6,0,0,0,.33.59,1,1,0,0,1,.07.86c-.07.26-.13.53-.2.73a.25.25,0,0,1-.4.07c-.59-.73-1.32-1.52-1.32-1.59-.13-.33.86-.86.86-.86Z" transform="translate(-450.04 -152.32)"/><path class="cls-3" d="M456.64,158a3.93,3.93,0,0,0,.53.26,1,1,0,0,1,.53.53,9.61,9.61,0,0,1,.26,1.12,4.8,4.8,0,0,0,.79,1.65.91.91,0,0,1,0,.73s0,.07-.07,0l-2-2h0a7.37,7.37,0,0,1-.59-.66.4.4,0,0,1-.07-.26c.13-.26.26-.92.4-1.19s.2-.2.26-.13Z" transform="translate(-450.04 -152.32)"/><path class="cls-2" d="M459.15,162.82c-.07,0-.07-.07-.07-.13a2.52,2.52,0,0,0,.07-1,11.38,11.38,0,0,1-.66-1.58c0-.13-.13-.59-.2-1-.07-.2.26-.26.33-.07s.07.2.07.26a12,12,0,0,0,1,3.17c.4.66.46.59.46.79h0c.07.13-.13.26-.2.13Z" transform="translate(-450.04 -152.32)"/><path class="cls-3" d="M465.55,161.83a.06.06,0,0,0,.07-.07,2.68,2.68,0,0,1-.33-.59V161c0-.07-.13-.07-.13,0a1.44,1.44,0,0,1-.33.2c-.13.13-.4.46-.59.66a.41.41,0,0,0-.07.46l.26.53c0,.13.07.26.07.4s.13.07.2,0Z" transform="translate(-450.04 -152.32)"/><path class="cls-6" d="M465.95,162.29l-1,1.45v.07c0,.2.2.66.2.79a1.44,1.44,0,0,0,.2.73c.2.26.92.79,1.06,1l.73.46c.07,0,.33-.07.07-.53s-.46-.53-.59-1a8.16,8.16,0,0,1,.13-2h0a.94.94,0,0,0-.26-.53c-.13-.2-.33-.33-.4-.46s-.13-.07-.13,0Z" transform="translate(-450.04 -152.32)"/><path class="cls-3" d="M464.17,163.15c.07-.33-.33-.73-.4-.66s-.79,1.06-.79,1.06-.07.13,0,.13l.53.46c0,.07.07.07.13,0s.53-.59.53-1Z" transform="translate(-450.04 -152.32)"/><path class="cls-3" d="M466.15,161.3c0,.07-.13.07-.13,0h0a3.81,3.81,0,0,1-.26-.46.42.42,0,0,1,0-.4,4.48,4.48,0,0,0,.53-1.25c.2-.73,1.85-4.56,2-5a.37.37,0,0,1,.59-.07h0a.81.81,0,0,1,.13.86Z" transform="translate(-450.04 -152.32)"/><path class="cls-6" d="M469.19,157.27a7.2,7.2,0,0,0-.73.4c-.13,0-.2-.07-.13-.13l1.19-2.51a.49.49,0,0,1,.92.07.06.06,0,0,1,.07.07c.07.13.13.4.2.53a.29.29,0,0,1,0,.33,3.55,3.55,0,0,1-1.52,1.25Z" transform="translate(-450.04 -152.32)"/><path class="cls-3" d="M466.28,161.63l1.45-2.91a1.38,1.38,0,0,1,.26-.4c.79-.59,1.78-.86,2.51-1.52.07-.07.2.07.13.13h0l-3.7,5.55c-.13.26-.46-.13-.59-.26a.49.49,0,0,1-.07-.59Z" transform="translate(-450.04 -152.32)"/><path class="cls-3" d="M470.24,163.55c.07-.07.13,0,.13.07s-.07.13-.13.2a3.68,3.68,0,0,0-1.25.59.88.88,0,0,0-.2.53c0,.13-.2.33-.66.07a3.06,3.06,0,0,1-1.06-1.65c0-.13.07-.26.2-.2s.13.07.26.13c.26.26.73.73,1.12.73a5.3,5.3,0,0,0,1.19-.26,2.17,2.17,0,0,1,.4-.2Z" transform="translate(-450.04 -152.32)"/><path class="cls-7" d="M470.24,165.73c.53.4.59.2.86.07A11,11,0,0,1,472,165a10.27,10.27,0,0,1,2.31-.92,3.59,3.59,0,0,0,1.52-.86h.07c.07-.13,0-.26-.13-.2-1.52.33-4.23.2-4.76.59a6.72,6.72,0,0,1-1.45.66c-.33.13-.66.92-.2.92s.46.2.92.53Z" transform="translate(-450.04 -152.32)"/><path class="cls-3" d="M476.05,162.49c.07,0,.13-.07.2-.13a1.29,1.29,0,0,0-.07-.53c0-.2-.2-.4-.4-.66a.91.91,0,0,0-1.12-.2s-2.44,1.52-3.24,2c0,0,0,.13.07.13a26.12,26.12,0,0,0,4.56-.66Z" transform="translate(-450.04 -152.32)"/><path class="cls-3" d="M469.85,166.25c.13,0,.13-.2.07-.26s-.33-.26-.4-.2l-.86.46c-.13.07-.13.13-.07.26h0c.07.07.13.13.2.07Z" transform="translate(-450.04 -152.32)"/><path class="cls-7" d="M455.84,166.45c-.07-.13.07-.2.13-.13.26.13.46.53.73.59a.71.71,0,0,0,.46-.2,1.38,1.38,0,0,0,.26-.4c.07-.07.07-.13.13-.2s.13,0,.13.07c-.07.46,0,1-.07,1.45a3.35,3.35,0,0,1-1,2c-.2.13-.4.26-.53.07s-.07-.33-.07-.53a5.94,5.94,0,0,0,.2-1.06,6.05,6.05,0,0,0-.4-1.65Z" transform="translate(-450.04 -152.32)"/><path class="cls-3" d="M457.23,163.61h-.07a.33.33,0,0,0-.4.33,2.58,2.58,0,0,0,.66,1.45.06.06,0,0,0,.07.07v-.07a4,4,0,0,0,.46-.92c.07-.46-.46-.73-.73-.86Z" transform="translate(-450.04 -152.32)"/><path class="cls-7" d="M452.94,159.25c-.07-.2.13-.33.26-.2a10.16,10.16,0,0,1,1.19,1.32c.33.46.73,1.06,1.06,1.45s1,.92,1,1.45c0,.2-.59,1.52-.86,1.59s-.33-.07-.4-.26a31.43,31.43,0,0,0-2.25-5.35Z" transform="translate(-450.04 -152.32)"/><path class="cls-3" d="M452.15,158.79a18.26,18.26,0,0,1,2.51,5.09c.07.2-.07.33-.2.2a26.49,26.49,0,0,0-3.3-2.25c0-.07-.07-.13-.07-.2a18.23,18.23,0,0,1,.53-1.78,2.77,2.77,0,0,0,.26-1c0-.13.13-.2.26-.13h0v.07Z" transform="translate(-450.04 -152.32)"/><path class="cls-3" d="M458.68,164.67v.13a2.37,2.37,0,0,1-.46,1.19l-.07.07-.07-.07-.2-.2a.06.06,0,0,1-.07-.07v-.13a3.56,3.56,0,0,0,.33-1.06c.07-.13.2-.2.26-.13l.26.26Z" transform="translate(-450.04 -152.32)"/><path class="cls-3" d="M457.17,165.66a.24.24,0,0,1,.07.2.09.09,0,0,1,0,.13.7.7,0,0,1-.79.2c-.26-.07-.46-.33-.66-.53-.07,0-.07-.07-.13-.13a.3.3,0,0,1,0-.33c.07-.07.13-.13.2-.13a4.63,4.63,0,0,0,.4-.59c.07-.13.33-.07.4.13a3.15,3.15,0,0,0,.53,1.06Z" transform="translate(-450.04 -152.32)"/><path class="cls-6" d="M461.52,152.78c.07.07-.59.66-1,.92h-.13c-.07.07-.07,0-.13,0a1,1,0,0,0-1.12.33,2.87,2.87,0,0,0-.53,1,13.33,13.33,0,0,0-.46,1.52,3.27,3.27,0,0,1-.53,1.32h-.2a12.69,12.69,0,0,0-1-.92v-.07c-.07-.07,0-.13.07-.13.2-.2.46-.4.73-.66a7.53,7.53,0,0,0,.66-1.25c.13-.4.33-.73.46-1.12a1.66,1.66,0,0,1,.26-.46,1.26,1.26,0,0,1,1.06-.4,15,15,0,0,1,1.72-.13s.13,0,.13.07Z" transform="translate(-450.04 -152.32)"/><path class="cls-3" d="M456.57,156.41c-.07.07-.13,0-.13-.07a2.16,2.16,0,0,0,0-1.12,4.13,4.13,0,0,1-.07-.79c-.07-.07,0-.07,0-.13h0c.13-.07.2,0,.26.13a3.41,3.41,0,0,0,.13.73.5.5,0,0,0,.13.33c.07.07.07.07.13.07a.26.26,0,0,1,.13.26,1.45,1.45,0,0,1-.26.33c-.13.13-.2.26-.33.26Z" transform="translate(-450.04 -152.32)"/><path class="cls-3" d="M458.49,156.28h-.07l.46-1.25c.13-.46.73-1.39,1.19-1.19s-1.25,1.78-1.59,2.44Z" transform="translate(-450.04 -152.32)"/><path class="cls-2" d="M463.84,169.69a3.78,3.78,0,0,0,.26-.92,8.1,8.1,0,0,0-.13-1.25,3.59,3.59,0,0,1,0-1.19,1.19,1.19,0,0,0-.13-.66.91.91,0,0,0-.26-.2c-1.59-.79-1.85-1.78-1.85-1.39-.13.79.4.92.66,1.19a7.22,7.22,0,0,0,.73.66c.07.07.2.13.26.26a.49.49,0,0,1,.07.33.72.72,0,0,1,0,.53c-.07.07-.07.13-.13.13s-.13,0-.13-.07c-.46-.4-1.58-2-1.65-1.59s-1,.33-1,.33.79.73,1.06,1.06a3.35,3.35,0,0,1,.73,1.45,6.44,6.44,0,0,1,.13,1.59,1.12,1.12,0,0,0,0,.66c0,.07-.07.79.4.73s.92-1.45,1-1.65Z" transform="translate(-450.04 -152.32)"/><path class="cls-3" d="M460.93,163.61c-.53-.33-.26,1.25-.07,1.85a.23.23,0,0,0,.13.07h.07a1.33,1.33,0,0,0,.26-.86s.13-.79-.4-1.06Z" transform="translate(-450.04 -152.32)"/><path class="cls-3" d="M464.89,166.25l.13.13v.2l-.13.59a.13.13,0,0,1-.2.07h0a.15.15,0,0,0-.2.2,1,1,0,0,0,.13.46,3.77,3.77,0,0,1,0,1.72,3.35,3.35,0,0,1-.73,1.45,2.34,2.34,0,0,1-.73.59c-.13,0-.26,0,.07-.33a5.17,5.17,0,0,0,1.06-1.45,2.62,2.62,0,0,0-.07-2.31,2.79,2.79,0,0,1,0-1.06,1.45,1.45,0,0,0,.07-.53c0-.13.13-.13.2-.07Z" transform="translate(-450.04 -152.32)"/><path class="cls-6" d="M454.06,167.24a7.71,7.71,0,0,1-1.72-1.12.91.91,0,0,0-.2-.26,1.12,1.12,0,0,1-.07-.46.71.71,0,0,1,.13-.53l.4-.2a1.83,1.83,0,0,1,.59-.07.61.61,0,0,1,.4.26c.07.13.07.26.13.33a1.73,1.73,0,0,0,.33.59,7,7,0,0,0,.66.79c.13.13.33.26.46.4s.2.13.2.2.07.66-1.32.07Z" transform="translate(-450.04 -152.32)"/><path class="cls-3" d="M452.08,164.73l-.13.13h-.13a.91.91,0,0,1-.2-.26,4.27,4.27,0,0,1-.26-.86c0-.13,0-.26.13-.33s.26-.13.4-.13.2.13.26.2a1.71,1.71,0,0,1,.46.73c.2.2-.33.26-.53.53Z" transform="translate(-450.04 -152.32)"/><path class="cls-3" d="M451.29,164.8c.13.13.2.26.33.4s.07.13.07.2-.07.2-.13.2h-.13a.6.6,0,0,1-.4-.4,2.8,2.8,0,0,1-.4-.92.93.93,0,0,1-.07-.59c0-.07.07-.26.2-.13s.26.92.53,1.25Z" transform="translate(-450.04 -152.32)"/><path class="cls-3" d="M454.46,167.64a2.24,2.24,0,0,1-1-.4,5.52,5.52,0,0,1-1.52-1.19l-.2-.2a.24.24,0,0,1-.2-.07,1.09,1.09,0,0,1-.79-.59,3.91,3.91,0,0,0-.4-.92c0-.07-.07-.13-.13-.07l-.07.07a.91.91,0,0,0-.07.73.89.89,0,0,0,.4.46,3.46,3.46,0,0,1,.73.66,3.72,3.72,0,0,0,1.25,1.19,4.13,4.13,0,0,0,3,.53.13.13,0,0,0-.07-.2,2.5,2.5,0,0,1-1,0Z" transform="translate(-450.04 -152.32)"/><path class="cls-3" d="M461.79,154.23c-.07-.13-.13-.13-.2-.13a.84.84,0,0,0-.46.33,1.12,1.12,0,0,0,0,.66,18.19,18.19,0,0,0,1.39,4.56,1.82,1.82,0,0,0,.13-1.65,16.51,16.51,0,0,1-.59-1.65,3.61,3.61,0,0,1-.07-1.19,2.21,2.21,0,0,0,0-.66.91.91,0,0,0-.2-.26Z" transform="translate(-450.04 -152.32)"/><path class="cls-3" d="M462.45,160.24a1.21,1.21,0,0,1-.92.53,5.33,5.33,0,0,1-1.06.07.06.06,0,0,1-.07.07c-.07.07-.07.13,0,.26a3.21,3.21,0,0,1,.2.46.06.06,0,0,0,.07.07h.13a2.18,2.18,0,0,1,.92,0c.33,0,.59.13.86,0l.13-.13v-.86a.5.5,0,0,0-.07-.33.23.23,0,0,0-.2-.13Z" transform="translate(-450.04 -152.32)"/><path class="cls-4" d="M461.33,162c-.13,0-.26,0-.33.13s0,.2.07.33a3.78,3.78,0,0,0,1,1.06c.13.07.33.13.46,0s.13-.33.07-.46a1.24,1.24,0,0,0-.13-.53.23.23,0,0,0-.07-.13.23.23,0,0,1,.07-.13v-.07a.29.29,0,0,0-.2-.26,4.36,4.36,0,0,0-.92.07Z" transform="translate(-450.04 -152.32)"/><path class="cls-4" d="M460,160.38a.13.13,0,0,0,.2.07,1.64,1.64,0,0,1,.53-.07,1.81,1.81,0,0,0,.86-.13.35.35,0,0,0,.26-.2c0-.07-.07-.13-.07-.2a7.13,7.13,0,0,1-.66-2.31c0-.13-.07-.26-.2-.26a.06.06,0,0,0-.07.07,1.47,1.47,0,0,0-.33.73c-.13.46-.2.86-.33,1.32-.07.26-.13.46-.2.73v.26Z" transform="translate(-450.04 -152.32)"/><path class="cls-3" d="M460.93,156.22V156l-.2-1.19c-.07-.07-.07-.13-.13-.13h-.07a2.67,2.67,0,0,0-.33.59,3.3,3.3,0,0,0,.07,1.78c.07,0,.07.13.13.07s.53-.53.53-.92Z" transform="translate(-450.04 -152.32)"/><path class="cls-3" d="M460,157.4c-.07.13-.26.26-.4.4a4,4,0,0,1-.53.53c-.07.07-.13.07-.2.13h0c-.13,0-.2-.13-.13-.2s.13-.2.2-.26.53-.66.79-1c.13-.13.26-.07.33.07a.49.49,0,0,1-.07.33Z" transform="translate(-450.04 -152.32)"/><path class="cls-3" d="M462.65,154.43a.06.06,0,0,1-.07-.07h-.07a3.33,3.33,0,0,1,.33-1.52c.07-.07.2-.07.2.07a6.12,6.12,0,0,1-.26,1.52c0,.07-.13.07-.13,0Z" transform="translate(-450.04 -152.32)"/><path class="cls-3" d="M465,153a.24.24,0,0,1,.26-.26l.53.13c.13,0,.2,0,.26.07a.6.6,0,0,1,.2.46.84.84,0,0,1-.07.4,2.81,2.81,0,0,0-.13.73c0,.07,0,.13-.07.13s-.07,0-.13,0a1.41,1.41,0,0,1-.73-.66,2.26,2.26,0,0,1-.13-1Z" transform="translate(-450.04 -152.32)"/><path class="cls-8" d="M463.31,152.58c-.07-.13.13-.26.26-.26a3.56,3.56,0,0,0,.66.2c.07.07.07.07.13.07a.49.49,0,0,1,.07.33,2,2,0,0,0,.2,1.06,2.1,2.1,0,0,0,.66.66c.13.13.33.2.4.4v.07h-.07a4.55,4.55,0,0,1-.53.2,1.54,1.54,0,0,0-.46.46c-.13.2-.2.46-.33.66s-.13.26-.33.26-.26-.07-.4-.2a2.31,2.31,0,0,1-.33-.86l-.2-.4c-.07,0-.07-.07,0-.13a6.53,6.53,0,0,0,.26-2.51Z" transform="translate(-450.04 -152.32)"/><path class="cls-3" d="M464.69,156.81c-.26.53-.33,1.12-.59,1.59a7.86,7.86,0,0,1-.59,1c0,.07-.07.2,0,.26a.24.24,0,0,0,.2.07c.07,0,.13-.07.2-.13l.4-.4a9.76,9.76,0,0,0,1.06-1.78,4.42,4.42,0,0,0,.33-1.25c0-.13-.13-.2-.2-.13a3,3,0,0,0-.79.79Z" transform="translate(-450.04 -152.32)"/><path class="cls-3" d="M464.17,157.27a4.49,4.49,0,0,1-.53,1.59c-.07.07-.07.13-.2.2h0c-.07,0-.07-.13-.07-.2a13.51,13.51,0,0,0,.33-1.59c.07-.13.13-.13.26-.13s.13.07.2.13Z" transform="translate(-450.04 -152.32)"/><path class="cls-3" d="M467.14,153.38c.07,0,.13,0,.13.07a.23.23,0,0,1,.07.13,2.35,2.35,0,0,1-.13.66,5.18,5.18,0,0,1-.33.92l-.07.07c-.07.07-.13,0-.2,0s-.13-.07-.2-.07l-.07-.07V155c.07-.4.13-.86.2-1.25,0-.13.07-.26.07-.4s.2-.2.26-.13.2.07.26.13Z" transform="translate(-450.04 -152.32)"/><path class="cls-8" d="M465.88,157a9.63,9.63,0,0,1-1.85,3c0,.07.13.07.2.07s.13-.07.2-.13a6.1,6.1,0,0,0,1.12-1.45,6.1,6.1,0,0,1,.33-.66,6.94,6.94,0,0,0,.4-2.18c0-.13-.13-.13-.13-.07-.07.26-.2,1.19-.26,1.39Z" transform="translate(-450.04 -152.32)"/><path class="cls-3" d="M461,171.07a.4.4,0,0,0-.07-.26,2.34,2.34,0,0,1-.66-1.45.24.24,0,0,0-.07-.2.91.91,0,0,0-.53-.33c-.07,0-.07,0-.13.07s-.07.07-.13.13a4.08,4.08,0,0,0-.26,1.45c.07.53.26,1.65.92,1.85.2.07.66-.86.92-1.25Z" transform="translate(-450.04 -152.32)"/><path class="cls-3" d="M460.73,170.08a1.68,1.68,0,0,1-.26-1.06h0c0-.07.07,0,.07,0a1.16,1.16,0,0,0,.26.33c.2.2.59.26.86.46a2.87,2.87,0,0,1,.4.46v.07a.06.06,0,0,1-.07.07c-.07.13-.13.13-.26.26a.23.23,0,0,0-.07.13.2.2,0,0,1-.26,0,3.1,3.1,0,0,1-.66-.73Z" transform="translate(-450.04 -152.32)"/><path class="cls-8" d="M460.2,167.11a1.09,1.09,0,0,0,0-.79c-.07-.07-.13-.13-.2-.13s-.2-.13-.26-.07-.13.07-.2.13a3.1,3.1,0,0,0-.92,1.78c-.13.66-.33,2.44-.33,2.51a.84.84,0,0,1-.07.4c0,.13,0,.33.07.4s.2.2.26.26.26.07.4.13.13-.07.13-.2a.5.5,0,0,1-.07-.33c-.07-.13-.59-.92.26-2.64.07-.13.33,0,.46.07s.4.26.46.13-.07-1.12,0-1.65Z" transform="translate(-450.04 -152.32)"/><path class="cls-3" d="M459.48,165.86h-.13a2,2,0,0,0-.79.73,3.5,3.5,0,0,0-.53,1.12,3.86,3.86,0,0,0-.13.86,5,5,0,0,1,0,1,.34.34,0,0,1-.13.26h-.07v.07a2.38,2.38,0,0,0-.13.73.84.84,0,0,0-.07.4,1,1,0,0,0,.46.46H458c.07-.07.07-.07.07-.13a15.52,15.52,0,0,1,.07-1.72,7.89,7.89,0,0,1,.26-2.18,2.81,2.81,0,0,1,1.06-1.39h0a.2.2,0,0,0,.07-.13Z" transform="translate(-450.04 -152.32)"/><path class="cls-2" d="M471,159.12c.13.2.07.46.13.66a.23.23,0,0,0,.07.13.12.12,0,0,0,.2,0c.07,0,.2-.07.26-.07s.26.13.2.26a5.41,5.41,0,0,1-2.31,1.92,1.27,1.27,0,0,1-.66.2c-.13.07-.2.07-.26,0a.32.32,0,0,1-.13-.4,9.1,9.1,0,0,0,1.78-2.84l.07-.07c0-.13.2-.2.33-.13a.8.8,0,0,1,.33.33Z" transform="translate(-450.04 -152.32)"/><path class="cls-3" d="M471,158.59c.59-.33.66-1.12,1.19-1.52a.44.44,0,0,1,.4-.07.34.34,0,0,1,.13.26.54.54,0,0,1-.07.46,2.75,2.75,0,0,1-.59,1.06c-.13.26-.4.46-.4.73v.13a.67.67,0,0,1-.2-.07c-.13-.26-.13-.46-.33-.66,0-.07-.07-.13-.13-.2v-.13Z" transform="translate(-450.04 -152.32)"/><path class="cls-3" d="M474,157.73a1.11,1.11,0,0,1,.13.33,1.45,1.45,0,0,1-.2.33,1.35,1.35,0,0,1-.53.53l-.07.07c-.07,0-.07-.07-.13-.07a1.56,1.56,0,0,1-.33-.86,1.87,1.87,0,0,1,.26-.86c.07-.07.07-.13.13-.13a.2.2,0,0,1,.26,0,4.63,4.63,0,0,1,.46.66Z" transform="translate(-450.04 -152.32)"/><path class="cls-3" d="M474.34,158.59a.16.16,0,0,1,.26.07.5.5,0,0,1,.13.26c-.07.07-.13.2-.2.26-.4.4-1,.66-1.39,1.06a7,7,0,0,0-.66.79c-.46.4-.92.79-1.39,1.12a10.69,10.69,0,0,1-1.19.66,1.69,1.69,0,0,1-1,0,.14.14,0,0,1-.13-.13c0-.07.07-.07.13-.07a5,5,0,0,0,2.51-1.25,27.22,27.22,0,0,1,2-1.85,5.91,5.91,0,0,0,.86-.92Z" transform="translate(-450.04 -152.32)"/><path class="cls-3" d="M472.62,158.53c-.2,0-.53.79-.4,1.19,0,.07,0,.13.07.13h.07a.88.88,0,0,0,.46-.53c.07-.2.07-.86-.2-.79Z" transform="translate(-450.04 -152.32)"/><path class="cls-6" d="M465.88,174a2.25,2.25,0,0,0,.66.07l.73-.2a.5.5,0,0,0,.26-.13c.26-.13.4-.46.53-.66s.73-.13,1.06-.33c.13-.07.13-.26.2-.33s0-.07.07-.13h.13c.26-.07.53-.07.73-.13a.63.63,0,0,1,.46.13.24.24,0,0,1-.07.2c-.46,1.65-3.57,2.18-3.9,2.25a.59.59,0,0,1-.33.07c-.13,0-.2-.07-.33-.13s-.13-.2-.2-.26-.07-.46,0-.4Z" transform="translate(-450.04 -152.32)"/><path class="cls-3" d="M465.75,173.65c-.07-.07,0-.26.07-.26a3.05,3.05,0,0,0,1.92-.53c.13-.13,0-.4.2-.4a4.92,4.92,0,0,0,1,0,.23.23,0,0,1,.13.07h0c-.07.07-.07.13-.13.13a6.36,6.36,0,0,1-.79.13c-.2.07-.26.33-.46.59s-.92.46-1.12.53-.66,0-.79-.26Z" transform="translate(-450.04 -152.32)"/><path class="cls-3" d="M466.35,175.17a.06.06,0,0,1,.07-.07,12.47,12.47,0,0,0,2.91-.92,3,3,0,0,0,1.52-1.65c0-.13.13.07.13.07a.12.12,0,0,1,0,.2,3.13,3.13,0,0,1-1.45,1.59,15.93,15.93,0,0,1-2.38.86c-.46.2-.66.07-.79-.07Z" transform="translate(-450.04 -152.32)"/><path class="cls-3" d="M467.8,168.57c.07-.13.2-.13.2-.07a3.9,3.9,0,0,1,.59,1.32.29.29,0,0,1,0,.33c0,.07-.07.07-.13.13a2.3,2.3,0,0,1-1,.46h0c-.07,0-.07,0-.07-.07a2.1,2.1,0,0,1,.4-2.11Z" transform="translate(-450.04 -152.32)"/><path class="cls-4" d="M467.8,167.51l.07.4a.24.24,0,0,1-.07.2,1.51,1.51,0,0,0-.53.79,2.92,2.92,0,0,0-.13,1.32v.33a.91.91,0,0,1-.2.26c-.26.2-1.19.26-1.45-.33-.07-.07-.07-.13-.07-.26s.26-.79.33-1.12.07-.66.07-.86a.14.14,0,0,1,.13-.13l1.59-.73c.13-.07.26,0,.26.13Z" transform="translate(-450.04 -152.32)"/><path class="cls-3" d="M465.55,171.14c.13.07.53.07.66.13s.13.26,0,.4a3.46,3.46,0,0,1-1.19.66,3.29,3.29,0,0,1-1.32.2c-.07-.07-.2-.33.13-.53a4.05,4.05,0,0,0,1.25-1.12.06.06,0,0,1,.07-.07c0-.07.13-.07.13,0a.71.71,0,0,0,.26.33Z" transform="translate(-450.04 -152.32)"/><path class="cls-3" d="M469,170.74v.07a.06.06,0,0,1-.07.07,5.16,5.16,0,0,1-1.32.73c0,.07-.07.07-.13.07s-.13-.33-.07-.4.2-.2.26-.26a2.49,2.49,0,0,0,1-.59c.07-.07.2-.07.2,0s.13.2.13.33Z" transform="translate(-450.04 -152.32)"/><path class="cls-3" d="M467.2,171.34c-.26.2-.53.53-.79.73a4.29,4.29,0,0,1-2.64.79h0c-.13.07-.13-.2,0-.2a5.38,5.38,0,0,0,1.65-.26c.66-.26,1.12-.92,1.78-1.12,0-.07.07-.07.07,0Z" transform="translate(-450.04 -152.32)"/><path class="cls-4" d="M453.47,168.83c-.13.33-.33.59-.46.92a.93.93,0,0,0,.07.92c.13.2.33.26.46.4a2.28,2.28,0,0,1,.66.73,6.28,6.28,0,0,0,.66,1.12,2,2,0,0,0,1.39.46,6.51,6.51,0,0,0,1.58-.33c.07-.07.2-.2.13-.33a2.54,2.54,0,0,0-1-.66c0-.07-.07-.07-.13-.07s-.2,0-.33,0a1.89,1.89,0,0,1-1.45-.4,3.23,3.23,0,0,1-.92-1.19,10.21,10.21,0,0,1-.46-1.52l-.13-.13-.07.07Z" transform="translate(-450.04 -152.32)"/><path class="cls-3" d="M454.26,168.76c-.13.07-.13.13-.13.2a2.85,2.85,0,0,0,.59,1.72,2.1,2.1,0,0,0,.73.79,1.62,1.62,0,0,0,1,.33c.07,0,.13-.07.2-.13a.23.23,0,0,0-.07-.13c-.4-.4-.79-.73-1.19-1.12a4.56,4.56,0,0,1-.86-1.32c-.07-.13-.2-.4-.26-.33Z" transform="translate(-450.04 -152.32)"/><path class="cls-3" d="M453.14,171.07a5.09,5.09,0,0,1,.13,1,.49.49,0,0,0,.07.33c.07,0,.07.07.13.07h.13c0-.07,0-.07.07-.07,0-.2.07-.33.07-.53v-.26c0-.07,0-.07-.07-.13a.89.89,0,0,0-.46-.4s-.07-.07-.07,0Z" transform="translate(-450.04 -152.32)"/><path class="cls-8" d="M475.06,166.12c0-.13-.13-.2-.26-.13a3.2,3.2,0,0,1-1.19.46,1,1,0,0,0-.59.13c-.2.07-.26.26-.4.4a8.79,8.79,0,0,0-.92,1.25c-.07.07-.07.2.13.2A3.49,3.49,0,0,0,473,168a5,5,0,0,1,.73-.53c.33-.2.73-.2,1.06-.4s.26-.59.26-.92Z" transform="translate(-450.04 -152.32)"/><path class="cls-3" d="M468.86,167.51c-.07.07.07.2.13.26a4.79,4.79,0,0,0,1.85.66.24.24,0,0,0,.2.07c.07-.07.13-.07.2-.13.59-.53.66-1.45,1.25-1.92.2-.07.4-.13.66-.2a7.39,7.39,0,0,0,.86-.33,1.45,1.45,0,0,1,.33-.2.18.18,0,0,0-.13-.26c0,.07-.07.07-.13.07a3,3,0,0,1-1.06-.2.67.67,0,0,0-.59-.13.91.91,0,0,0-.26.2c-.33.33-.53.73-.86,1.06a1.78,1.78,0,0,1-1,.73,5.77,5.77,0,0,0-1.45.33Z" transform="translate(-450.04 -152.32)"/><path class="cls-3" d="M473.54,168.76c-.13-.07.07-.73.2-1a1.44,1.44,0,0,1,.53-.33c.07-.07.2.07.13.13a3.87,3.87,0,0,0-.66,1.12c-.07,0-.07.07-.2.07Z" transform="translate(-450.04 -152.32)"/><path class="cls-3" d="M460.4,175.63a.16.16,0,0,0-.07-.26c-.13,0-.4-.07-.46-.07a2,2,0,0,0-1.52.46c-.07,0,0,.13.07.13a.24.24,0,0,1,.2-.07,2.86,2.86,0,0,1,1.06-.07c.26,0,.46.07.66-.07a.06.06,0,0,0,.07-.07Z" transform="translate(-450.04 -152.32)"/><path class="cls-3" d="M462.25,173c.13-.07.13-.26-.07-.33a2.46,2.46,0,0,0-1.32-.13,2.54,2.54,0,0,0-.53,1.12,8,8,0,0,1-.33,1.19c-.07.07,0,.13.13.2h0a.84.84,0,0,1,.4.07c.07,0,.13,0,.13-.07.13-.26.26-.59.4-.86a1.56,1.56,0,0,1,.79-.92.5.5,0,0,1,.26-.13h.07c0-.07.07-.07.07-.13Z" transform="translate(-450.04 -152.32)"/><path class="cls-7" d="M459.48,173.32c-.2.2-.33.46-.53.66a4.42,4.42,0,0,0-.92.59.8.8,0,0,0,.07,1h0c0,.07.07.07.13,0a1,1,0,0,1,.4-.33h.07v-.07a2.41,2.41,0,0,1,1-.2c.07,0,.07,0,.13-.07a2.18,2.18,0,0,1,.2-.4h0v-.07h0v-.07h0v-.13h0l.07-.07h0v-.26a3.72,3.72,0,0,1,.26-.79,1.17,1.17,0,0,1,.33-.53,5.18,5.18,0,0,0-1.19.73Z" transform="translate(-450.04 -152.32)"/><path class="cls-3" d="M458.82,172.79h0a.06.06,0,0,1,.07.07,2,2,0,0,1-.07.66.84.84,0,0,1-.53.53,11.26,11.26,0,0,0,.33-1.19c0-.07,0-.07.07-.07v-.07c.07,0,.07,0,.13.07Z" transform="translate(-450.04 -152.32)"/><path class="cls-1" d="M454.13,188.84a.81.81,0,0,1,.2-.13,1.52,1.52,0,0,0,.59-.2c.13,0,.26-.07.4-.07s.13-.07.26-.07.13-.07.2-.13a.59.59,0,0,0,.33-.07.4.4,0,0,0,.26-.07.6.6,0,0,0,.33-.07h.13a.24.24,0,0,1,.2-.07,2.86,2.86,0,0,1,.33-.07c.07,0,.07,0,.13-.07h.2c.13,0,.26-.07.4-.07s.07,0,.13-.07h.2c.13,0,.26-.07.4-.07a.24.24,0,0,0,.2-.07h.2c.13,0,.26-.07.4-.07a1.12,1.12,0,0,0,.46-.07h.4a1.12,1.12,0,0,1,.46-.07c.26,0,.59-.07.86-.07h.46c.13,0,.26-.07.46-.07h2a.5.5,0,0,0,.26.07h.86a1.29,1.29,0,0,0,.46.07h.2a.4.4,0,0,1,.26.07h.4a9.89,9.89,0,0,1,1.59.26c.53.07,1.06.2,1.45.26a.24.24,0,0,1,.2.07h.13c.13,0,.2.07.33.07s.07.07.13.07h.13a.5.5,0,0,0,.26.07c.4.13.66.2.92.26a1.52,1.52,0,0,0,.59.2.81.81,0,0,1,.2.13.29.29,0,0,0-.2-.07h-.26a.6.6,0,0,0-.33-.07.24.24,0,0,1-.2-.07h-.26c-.13,0-.33-.07-.53-.07a.5.5,0,0,1-.26-.07h-.26a.59.59,0,0,1-.33-.07h-.33c-.13,0-.2-.07-.33-.07h-.33c-.13,0-.26-.07-.4-.07h-.4a.84.84,0,0,0-.4-.07h-.4c-.07,0-.13-.07-.2-.07h-.59a.84.84,0,0,1-.4-.07h-.86a1.12,1.12,0,0,1-.46-.07h-3.5c-.07.07-.07.07-.13.07h-1.19a.84.84,0,0,1-.4.07h-.46c-.13,0-.26.07-.4.07h-.4c-.13,0-.26.07-.4.07a9,9,0,0,0-1.39.13c-.46.07-.86.07-1.25.13-.13,0-.33.07-.46.07h-.26a.24.24,0,0,1-.2.07.5.5,0,0,0-.33.07h-.26a.29.29,0,0,0-.2.07Z" transform="translate(-450.04 -152.32)"/><polygon class="cls-9" points="34.4 27.41 34.4 11.95 40.48 20.01 41.66 20.01 47.67 11.95 47.67 27.41 49.59 27.41 49.59 8.98 47.74 8.98 41.07 17.9 34.4 8.98 32.42 8.98 32.42 27.41 34.4 27.41"/><path class="cls-9" d="M513.24,163.61l4.16,9.31H509Zm-7.13,16.11,2.25-5.09h9.71l2.25,5.09h2.11l-8.26-18.56h-1.85l-8.26,18.56Z" transform="translate(-450.04 -152.32)"/><path class="cls-9" d="M528.76,163.08H535c2.51,0,4,1.19,4,3.3s-1.45,3.3-4,3.3h-6.21Zm0,16.64v-8.26h5.68l5.75,8.26h2.31l-5.94-8.45a4.87,4.87,0,0,0,4.36-5c0-3-2.25-5-5.81-5h-8.26v18.43Z" transform="translate(-450.04 -152.32)"/><polygon class="cls-9" points="97.73 8.98 97.73 27.41 99.72 27.41 99.72 18.03 109.49 27.41 112.26 27.41 101.76 17.43 110.81 8.98 108.24 8.98 99.72 16.97 99.72 8.98 97.73 8.98"/><rect class="cls-3" x="116.36" y="8.98" width="1.98" height="18.43"/><path class="cls-9" d="M580.27,180.06a8.15,8.15,0,0,0,4.82-1.39,4.59,4.59,0,0,0,2-3.9,4.26,4.26,0,0,0-1.25-3.17,5.17,5.17,0,0,0-1.45-1.06,13.77,13.77,0,0,0-1.58-.66,12.29,12.29,0,0,0-1.85-.59l-1.06-.33-1.19-.33-.86-.33a2.06,2.06,0,0,1-.86-.4,2.44,2.44,0,0,1-1.19-2.11c0-1.65,1.45-3,4.42-3a10,10,0,0,1,5.68,1.72v-2a10.8,10.8,0,0,0-5.75-1.52,7.61,7.61,0,0,0-4.69,1.32,4.22,4.22,0,0,0-1.65,3.43,4.56,4.56,0,0,0,1.12,3,6.29,6.29,0,0,0,1.39.92c.59.26,1.19.46,1.65.66s1.12.33,1.92.59a10.29,10.29,0,0,1,1.39.4l1.19.4a6.12,6.12,0,0,1,1.12.53,2.67,2.67,0,0,1,1.52,2.51c0,2.11-2.11,3.5-5,3.5a10.59,10.59,0,0,1-3.76-.73,8.62,8.62,0,0,1-2.91-1.65v2.25a12.11,12.11,0,0,0,6.87,1.92Z" transform="translate(-450.04 -152.32)"/></svg>