<svg id="Слой_1" data-name="Слой 1" xmlns="http://www.w3.org/2000/svg" viewBox="0 0 110.36 25.36"><defs><style>.cls-1{fill-rule:evenodd;}</style></defs><title>05</title><path class="cls-1" d="M251.65,434.57h7.6l-8.39,11,9.31,12.28h-7.53l-5.28-7.4-.07-.13-.13.13-5.28,7.4h-7.59l9.38-12.28-8.39-11h7.53l4.49,6.08Zm-56.6,24.17h.13a12.69,12.69,0,0,0,10.17-5.15l-4.42-3.37a7.19,7.19,0,0,1-13-4.16,7.15,7.15,0,0,1,7.2-7.07,7.29,7.29,0,0,1,5.15,2.11l4.42-3.37a12.94,12.94,0,0,0-9.58-4.36,12.68,12.68,0,1,0-.07,25.36Zm29.32-24.17h7.53l-8.39,11,9.38,12.28H225.3l-5.28-7.4-.13-.13-.07.13-5.28,7.4H207l9.31-12.28-8.39-11h7.59l4.36,6.08Zm-74.56,0h5.09L164,446.79l9-12.22h5.15v23.31H172.8V444.8l-8.78,12-8.85-12v13.08h-5.35Zm56.4,5.28v.07a14.18,14.18,0,0,1,1.39,6.74H190c-.59-.13-.59-.73-.13-1Z" transform="translate(-149.81 -433.38)"/></svg>