<svg id="Слой_1" data-name="Слой 1" xmlns="http://www.w3.org/2000/svg" viewBox="0 0 166.86 36.83"><defs><style>.cls-1{fill:#141515;}.cls-2,.cls-3{fill:none;stroke-miterlimit:10;stroke-width:0.23px;}.cls-2{stroke:#141515;}.cls-3{stroke:#d3202b;}.cls-4{fill:#dd2a1b;fill-rule:evenodd;}</style></defs><title>13</title><path class="cls-1" d="M792.4,174.51a10.64,10.64,0,0,1,0-7.73,11.56,11.56,0,0,1,2.11-3.17,10.45,10.45,0,0,1,3.17-2.18,9.49,9.49,0,0,1,7.59,0,9.7,9.7,0,0,1,3.17,2.18,9.21,9.21,0,0,1,2.11,3.17,9.81,9.81,0,0,1,0,7.73,9.21,9.21,0,0,1-2.11,3.17,9.7,9.7,0,0,1-3.17,2.18,9.49,9.49,0,0,1-7.59,0,10.45,10.45,0,0,1-3.17-2.18,11.56,11.56,0,0,1-2.11-3.17Zm2.64-6.6a6.54,6.54,0,0,0-.59,2.77,6.46,6.46,0,0,0,.59,2.71,6.13,6.13,0,0,0,1.52,2.31,6.91,6.91,0,0,0,2.25,1.59,7.33,7.33,0,0,0,2.71.53,7.89,7.89,0,0,0,2.71-.53,7.69,7.69,0,0,0,2.25-1.59,6.7,6.7,0,0,0,1.52-2.31,7.68,7.68,0,0,0,.53-2.77,6.88,6.88,0,0,0-2-5,6.44,6.44,0,0,0-2.25-1.52,6.69,6.69,0,0,0-2.71-.59,6.24,6.24,0,0,0-2.71.59,5.89,5.89,0,0,0-2.25,1.52A6.7,6.7,0,0,0,795,167.9Zm18.1,12.48V160.9h7a8,8,0,0,1,2.25.33,5.65,5.65,0,0,1,1.78.92,6.39,6.39,0,0,1,1.25,1.45,7.6,7.6,0,0,1,.79,1.65,8.32,8.32,0,0,1,.26,1.85,6.13,6.13,0,0,1-1.32,3.83,5.83,5.83,0,0,1-3.7,2.11l6.08,7.33H824l-7.07-8.52v-1.39h3.24a3.29,3.29,0,0,0,2.58-1,3.52,3.52,0,0,0,0-4.76,3.29,3.29,0,0,0-2.58-1h-4.29v16.64Zm14.93,0v-2.84h3.57v-13.8h-3.57V160.9H838v2.84h-3.57v13.8H838v2.84Zm10.7-5.75a10.05,10.05,0,0,1-.73-4,9.63,9.63,0,0,1,.73-4,8.63,8.63,0,0,1,2-3.17,9.84,9.84,0,0,1,3-2,10.24,10.24,0,0,1,3.7-.73,8.87,8.87,0,0,1,2.31.26,9.88,9.88,0,0,1,2.25.73,9.27,9.27,0,0,1,2,1.39,8.23,8.23,0,0,1,1.65,2,8.82,8.82,0,0,1,1,2.71h-3a4.55,4.55,0,0,0-.92-2,5.76,5.76,0,0,0-1.52-1.32,7.23,7.23,0,0,0-3.76-.92,6.38,6.38,0,0,0-4.76,2,7.14,7.14,0,0,0-1.92,5.09,7.42,7.42,0,0,0,1.92,5.15,6.44,6.44,0,0,0,4.76,2,6.57,6.57,0,0,0,4.56-1.72,5.66,5.66,0,0,0,1.52-2.31h-7.13v-2.77h10.43a16.09,16.09,0,0,1-.53,3.37v-.07a8.11,8.11,0,0,1-2.11,3.24,9.4,9.4,0,0,1-3.17,2.18,9.83,9.83,0,0,1-3.57.73,10.32,10.32,0,0,1-3.76-.73,9.54,9.54,0,0,1-3-2,8.93,8.93,0,0,1-2-3.1Zm17.7,5.75,7.79-19.75h2L874,180.39h-3l-2.31-5.75h-6.93c-1.12,2.71-1.92,4.62-2.31,5.75Zm6.41-8.39h4.76l-2.31-6.87ZM875,180.39V160.9h2.25l6.41,9.44L890,160.9h2.25v19.48h-2.77V166.65l-5.09,7.59h-1.52l-5.09-7.59v13.74Zm19.68,0v-2.84h3.57v-13.8H894.7V160.9h10v2.84h-3.57v13.8h3.57v2.84Zm10.7-1.59a1.69,1.69,0,0,1,1.65-1.78,1.69,1.69,0,0,1,1.25.53,1.76,1.76,0,0,1,0,2.38,1.65,1.65,0,0,1-1.25.53,1.43,1.43,0,0,1-1.19-.53,1.55,1.55,0,0,1-.46-1.12Z" transform="translate(-741.91 -158.28)"/><path class="cls-1" d="M822.85,190.43V184H823l2.64,3.9,2.64-3.9h.13v6.41h-.13v-6.21l-2.58,3.9h-.13l-2.58-3.9v6.21Zm6.47-1.72V184h.13v4.69a1,1,0,0,0,.13.59,1.73,1.73,0,0,0,.79.79,4.55,4.55,0,0,1,.53.2,1.83,1.83,0,0,0,.59.07,3.32,3.32,0,0,0,.79-.13A2.76,2.76,0,0,0,833,190a1.78,1.78,0,0,0,.46-.53,1.51,1.51,0,0,0,.2-.73V184h.13v4.69a1.76,1.76,0,0,1-.2.79,1.35,1.35,0,0,1-.53.53,1.47,1.47,0,0,1-.73.33,1.68,1.68,0,0,1-.79.13,1.83,1.83,0,0,1-.59-.07l-.59-.2a3.66,3.66,0,0,1-.53-.4,1,1,0,0,1-.33-.53,1,1,0,0,1-.13-.59Zm5.35,1.72V184h.13v6.27h3.43v.13Zm2.25-6.27V184h4.56v.13h-2.18v6.34h-.2v-6.34Zm4.82,6.27v-.13h1.32v-6.14h-1.32V184h2.84v.13h-1.39v6.14h1.39v.13Zm3.37,0V184h2.58a1.22,1.22,0,0,1,.86.26,1.38,1.38,0,0,1,.53.66,2.71,2.71,0,0,1,0,1.19,2,2,0,0,1-.79.86,1.09,1.09,0,0,1,.79.33,4,4,0,0,1,.46.66,2.48,2.48,0,0,1,.07.66v.2a1.76,1.76,0,0,1-.2.79,2.52,2.52,0,0,1-.59.59,1.65,1.65,0,0,1-.86.2Zm.13-.13h2.71a2,2,0,0,0,.66-.13.89.89,0,0,0,.46-.4,2,2,0,0,0,.33-.46,2.71,2.71,0,0,0,0-1.19,1.44,1.44,0,0,0-.33-.53,2.88,2.88,0,0,0-.46-.4,2,2,0,0,0-.66-.13h-2.71Zm0-3.37h2.44a1.41,1.41,0,0,0,.79-.2,3.64,3.64,0,0,0,.46-.59,2.71,2.71,0,0,0,0-1.19,3.63,3.63,0,0,0-.46-.59,1.41,1.41,0,0,0-.79-.2h-2.44Zm5,3.5V184h2.18a3.34,3.34,0,0,1,.86.13,3.63,3.63,0,0,1,.59.46,1.28,1.28,0,0,1,.33.59,2.35,2.35,0,0,1,.13.66,2.81,2.81,0,0,1-.13.73,2.68,2.68,0,0,1-.33.59,3.1,3.1,0,0,1-.59.4,1.83,1.83,0,0,1-.86.2h-1.06l3,2.64h-.2l-3-2.64v-.13h1.25a1.76,1.76,0,0,0,.79-.2,1,1,0,0,0,.53-.4,1.44,1.44,0,0,0,.33-.53,2,2,0,0,0,.13-.66,1.93,1.93,0,0,0-.13-.59,1.74,1.74,0,0,0-.33-.59,3.67,3.67,0,0,0-.53-.4,3.31,3.31,0,0,0-.79-.13h-2v6.27Zm4.36,0,2.58-6.54h.13l2.58,6.54h-.13l-.86-2.18h-3.24l-.86,2.18Zm1.12-2.31h3.1l-1.59-4Zm4.62,2.31V184h.13l4.23,6.14V184h.13v6.41h-.13l-4.23-6.14v6.14Zm5.35,0V184h2.18a3.45,3.45,0,0,1,1.39.26,2.76,2.76,0,0,1,1,.73,5.27,5.27,0,0,1,.53,1.06,3.09,3.09,0,0,1,.2,1.12,3.2,3.2,0,0,1-.2,1.19,5.27,5.27,0,0,1-.53,1.06,3.85,3.85,0,0,1-1,.73,3.45,3.45,0,0,1-1.39.26Zm.13-.13h2a3,3,0,0,0,1.32-.26,2.52,2.52,0,0,0,.92-.73,2.59,2.59,0,0,0,.53-.92,3.74,3.74,0,0,0,.2-1.19,3.66,3.66,0,0,0-.2-1.12,2.59,2.59,0,0,0-.53-.92,2.52,2.52,0,0,0-.92-.73,3,3,0,0,0-1.32-.26h-2Zm9-1.78a3,3,0,0,1-.26-1.32,2.86,2.86,0,0,1,.26-1.25,3.76,3.76,0,0,1,1.72-1.78,4.26,4.26,0,0,1,1.25-.26,3.86,3.86,0,0,1,1.25.26,3.52,3.52,0,0,1,1.78,1.78,3.27,3.27,0,0,1,0,2.58,3.77,3.77,0,0,1-.73,1.06,6,6,0,0,1-1.06.73,3.85,3.85,0,0,1-1.25.2,4.15,4.15,0,0,1-1.25-.2,3.85,3.85,0,0,1-1-.73,2.77,2.77,0,0,1-.73-1.06ZM875,186a2.59,2.59,0,0,0-.26,1.19,2.68,2.68,0,0,0,.26,1.25,2.61,2.61,0,0,0,.66,1,2.76,2.76,0,0,0,1,.73,3.74,3.74,0,0,0,1.19.2,3.2,3.2,0,0,0,1.19-.2,3.77,3.77,0,0,0,1.06-.73,3.7,3.7,0,0,0,.66-1,3.84,3.84,0,0,0,.2-1.25,3.74,3.74,0,0,0-.2-1.19,3.7,3.7,0,0,0-.66-1,3.77,3.77,0,0,0-1.06-.73,3.2,3.2,0,0,0-1.19-.2,3.74,3.74,0,0,0-1.19.2,2.76,2.76,0,0,0-1,.73,2.61,2.61,0,0,0-.66,1Zm6.8,2.71V184H882v4.69a1,1,0,0,0,.13.59.76.76,0,0,0,.33.46,1.19,1.19,0,0,0,.46.33,4.55,4.55,0,0,0,.53.2,1.83,1.83,0,0,0,.59.07,4.48,4.48,0,0,0,1.45-.4,1.78,1.78,0,0,0,.46-.53,1.51,1.51,0,0,0,.2-.73V184h.13v4.69a1.76,1.76,0,0,1-.2.79,2,2,0,0,1-.53.53,1.47,1.47,0,0,1-.73.33,1.68,1.68,0,0,1-.79.13,1.83,1.83,0,0,1-.59-.07c-.26-.07-.46-.13-.66-.2s-.33-.26-.46-.4a1,1,0,0,1-.33-.53,1,1,0,0,1-.13-.59Zm5-4.56V184h4.56v.13h-2.18v6.34H889v-6.34Zm5.09,6.27V184H892v6.27h3.43v.13Zm4.16,0V184h3.5v.13h-3.37v3h3.3v.2h-3.3v3h3.37v.13Zm3.83-6.27V184h4.56v.13h-2.18v6.34h-.13v-6.34Z" transform="translate(-741.91 -158.28)"/><line class="cls-2" x1="1.88" y1="5.4" x2="3.66" y2="20.72"/><polyline class="cls-2" points="31.34 0.18 20.37 6.39 9.48 0.18 7.5 14.51 0.23 12.2 13.97 0.64"/><polyline class="cls-2" points="38.93 5.4 37.15 20.72 7.5 14.51 20.37 36.64 40.58 12.2 26.85 0.64"/><line class="cls-2" x1="0.23" y1="12.2" x2="20.44" y2="36.64"/><polyline class="cls-2" points="9.08 25.94 9.21 23.1 7.5 14.51 27.18 28.38 28.76 28.71"/><polygon class="cls-3" points="20.37 36.64 37.15 20.72 40.58 12.2 38.93 5.4 31.34 0.18 26.85 0.64 20.37 6.39 13.97 0.64 9.48 0.18 1.88 5.4 0.23 12.2 3.67 20.72 20.37 36.64"/><polygon class="cls-4" points="7.5 13.85 7.76 13.92 7.96 14.05 8.09 14.31 8.16 14.51 8.09 14.78 7.96 15.04 7.76 15.11 7.5 15.24 7.23 15.11 7.03 15.04 6.9 14.78 6.83 14.51 6.9 14.31 7.03 14.05 7.23 13.92 7.5 13.85"/><polygon class="cls-2" points="7.5 13.85 7.76 13.92 7.96 14.05 8.09 14.31 8.16 14.51 8.09 14.78 7.96 15.04 7.76 15.11 7.5 15.24 7.23 15.11 7.03 15.04 6.9 14.78 6.83 14.51 6.9 14.31 7.03 14.05 7.23 13.92 7.5 13.85"/><path class="cls-1" d="M750.46,171.6a1.12,1.12,0,0,1,0-1.06,1.07,1.07,0,0,1,.26-.46,2,2,0,0,1,.46-.33,1.56,1.56,0,0,1,.53-.13,1.93,1.93,0,0,1,.59.13,2,2,0,0,1,.46.33,2.87,2.87,0,0,1,.26.46,1.12,1.12,0,0,1,0,1.06,2.86,2.86,0,0,1-.26.46,2,2,0,0,1-.46.33,1.93,1.93,0,0,1-.59.13,1.56,1.56,0,0,1-.53-.13,2,2,0,0,1-.46-.33,1.06,1.06,0,0,1-.26-.46Zm.07-1.06a1.12,1.12,0,0,0,0,1.06,1.06,1.06,0,0,0,.26.46,1.38,1.38,0,0,0,.4.26,2,2,0,0,0,.53.13,1.24,1.24,0,0,0,.53-.13,1,1,0,0,0,.73-.73,1.12,1.12,0,0,0,0-1.06,1.66,1.66,0,0,0-.26-.46,1.06,1.06,0,0,0-.46-.26,1.24,1.24,0,0,0-.53-.13,2,2,0,0,0-.53.13,1.38,1.38,0,0,0-.4.26,1.66,1.66,0,0,0-.26.46Zm2.91,1.92v-2.77h1a.6.6,0,0,1,.33.07.91.91,0,0,1,.26.2.34.34,0,0,1,.13.26.4.4,0,0,1,.07.26.6.6,0,0,1-.07.33.5.5,0,0,1-.13.26.91.91,0,0,1-.26.2c-.13,0-.2.07-.4.07H754l1.25,1.12h-.07l-1.32-1.12v-.07h.53c.13,0,.26-.07.4-.07l.2-.2a.34.34,0,0,0,.13-.26c.07-.07.07-.13.07-.26a.4.4,0,0,0-.07-.26A.5.5,0,0,0,755,170c-.07-.07-.13-.13-.2-.13a.84.84,0,0,0-.4-.07h-.86v2.71Zm2,0v-.07H756v-2.64h-.59v-.07h1.19v.07H756v2.64h.59v.07Zm1.25-1.39a1.29,1.29,0,0,1,.07-.53,2.8,2.8,0,0,1,.33-.46,1.75,1.75,0,0,1,.4-.33,1.64,1.64,0,0,1,.53-.07,1.29,1.29,0,0,1,.53.07,1.18,1.18,0,0,1,.46.33,1.07,1.07,0,0,1,.26.46h-.07a1.05,1.05,0,0,0-.46-.59,1.39,1.39,0,0,0-.73-.26,1.22,1.22,0,0,0-.46.13,1,1,0,0,0-.4.33,1.76,1.76,0,0,0-.33.4,1.46,1.46,0,0,0-.07.53,1.29,1.29,0,0,0,.07.53,1.18,1.18,0,0,0,.33.46.61.61,0,0,0,.4.26,1.22,1.22,0,0,0,.46.13,1.93,1.93,0,0,0,.59-.13c.13-.13.33-.26.46-.4a.75.75,0,0,0,.2-.53h-1.19v-.07h1.32c-.07.07-.07.2-.13.26a.67.67,0,0,1-.26.46,1.18,1.18,0,0,1-.46.33,1.55,1.55,0,0,1-.53.13,2,2,0,0,1-.53-.13,1.75,1.75,0,0,1-.4-.33,2.79,2.79,0,0,1-.33-.46,1.29,1.29,0,0,1-.07-.53Zm2.71,1.39v-.07H760v-2.64h-.59v-.07h1.25v.07H760v2.64h.59v.07Zm1.52,0v-2.77H761l1.78,2.71v-2.71h.07v2.77h-.07L761,169.82v2.64Zm2.11,0,1.12-2.84h.07l1.12,2.84h-.07l-.4-.92h-1.39l-.4.92Zm.46-1h1.39l-.66-1.72Zm2,1v-2.77h.07v2.71h1.52v.07Zm1.59-.66h.07a.36.36,0,0,0,.2.33.66.66,0,0,0,.33.26c.13,0,.26.07.4.07a2.86,2.86,0,0,1,.33-.07c.13-.07.2-.13.33-.2a.91.91,0,0,0,.2-.26v-.4c0-.07-.07-.13-.13-.2s-.07-.07-.13-.13-.2-.07-.26-.07-.2,0-.26-.07h-.26c-.13,0-.2,0-.26-.07s-.2-.07-.26-.07-.13-.13-.13-.2a.4.4,0,0,1-.07-.26v-.07c0-.2,0-.33.13-.4a.91.91,0,0,1,.2-.26,2.86,2.86,0,0,0,.33-.07c.07-.07.13-.07.26-.07a.2.2,0,0,1,.13.07.6.6,0,0,1,.33.07c.07.07.2.13.26.2a.5.5,0,0,1,.13.33h-.07c0-.13-.07-.2-.13-.33a1.45,1.45,0,0,0-.33-.2c-.13,0-.2-.07-.33-.07H768a.94.94,0,0,0-.4.13c-.13,0-.2.13-.33.2a.94.94,0,0,0-.13.4v.07c.07.13.07.2.13.26a.35.35,0,0,0,.26.2c.13,0,.2.07.33.07a933.7,933.7,0,0,0,.66.13c.13,0,.2.07.33.13a.34.34,0,0,1,.13.26v.33a.34.34,0,0,1-.13.26l-.2.2c-.13.07-.2.13-.33.13a2.86,2.86,0,0,1-.33.07c-.07,0-.2-.07-.26-.07s-.2-.07-.33-.13l-.2-.2c-.07-.13-.13-.2-.13-.33Zm7.66.66v-2.77h.07l1.19,1.72,1.12-1.72h.07v2.77h-.07v-2.71L776,171.47H776l-1.12-1.72v2.71Zm2.84,0v-2.77h1.52v.07h-1.45v1.32h1.39v.07h-1.39v1.25h1.45v.07Z" transform="translate(-741.91 -158.28)"/><path class="cls-2" d="M750.46,171.6a1.12,1.12,0,0,1,0-1.06,1.07,1.07,0,0,1,.26-.46,2,2,0,0,1,.46-.33,1.56,1.56,0,0,1,.53-.13,1.93,1.93,0,0,1,.59.13,2,2,0,0,1,.46.33,2.87,2.87,0,0,1,.26.46,1.12,1.12,0,0,1,0,1.06,2.86,2.86,0,0,1-.26.46,2,2,0,0,1-.46.33,1.93,1.93,0,0,1-.59.13,1.56,1.56,0,0,1-.53-.13,2,2,0,0,1-.46-.33,1.06,1.06,0,0,1-.26-.46Zm.07-1.06a1.12,1.12,0,0,0,0,1.06,1.06,1.06,0,0,0,.26.46,1.38,1.38,0,0,0,.4.26,2,2,0,0,0,.53.13,1.24,1.24,0,0,0,.53-.13,1,1,0,0,0,.73-.73,1.12,1.12,0,0,0,0-1.06,1.66,1.66,0,0,0-.26-.46,1.06,1.06,0,0,0-.46-.26,1.24,1.24,0,0,0-.53-.13,2,2,0,0,0-.53.13,1.38,1.38,0,0,0-.4.26,1.66,1.66,0,0,0-.26.46Zm2.91,1.92v-2.77h1a.6.6,0,0,1,.33.07.91.91,0,0,1,.26.2.34.34,0,0,1,.13.26.4.4,0,0,1,.07.26.6.6,0,0,1-.07.33.5.5,0,0,1-.13.26.91.91,0,0,1-.26.2c-.13,0-.2.07-.4.07H754l1.25,1.12h-.07l-1.32-1.12v-.07h.53c.13,0,.26-.07.4-.07l.2-.2a.34.34,0,0,0,.13-.26c.07-.07.07-.13.07-.26a.4.4,0,0,0-.07-.26A.5.5,0,0,0,755,170c-.07-.07-.13-.13-.2-.13a.84.84,0,0,0-.4-.07h-.86v2.71Zm2,0v-.07H756v-2.64h-.59v-.07h1.19v.07H756v2.64h.59v.07Zm1.25-1.39a1.29,1.29,0,0,1,.07-.53,2.8,2.8,0,0,1,.33-.46,1.75,1.75,0,0,1,.4-.33,1.64,1.64,0,0,1,.53-.07,1.29,1.29,0,0,1,.53.07,1.18,1.18,0,0,1,.46.33,1.07,1.07,0,0,1,.26.46h-.07a1.05,1.05,0,0,0-.46-.59,1.39,1.39,0,0,0-.73-.26,1.22,1.22,0,0,0-.46.13,1,1,0,0,0-.4.33,1.76,1.76,0,0,0-.33.4,1.46,1.46,0,0,0-.07.53,1.29,1.29,0,0,0,.07.53,1.18,1.18,0,0,0,.33.46.61.61,0,0,0,.4.26,1.22,1.22,0,0,0,.46.13,1.93,1.93,0,0,0,.59-.13c.13-.13.33-.26.46-.4a.75.75,0,0,0,.2-.53h-1.19v-.07h1.32c-.07.07-.07.2-.13.26a.67.67,0,0,1-.26.46,1.18,1.18,0,0,1-.46.33,1.55,1.55,0,0,1-.53.13,2,2,0,0,1-.53-.13,1.75,1.75,0,0,1-.4-.33,2.79,2.79,0,0,1-.33-.46,1.29,1.29,0,0,1-.07-.53Zm2.71,1.39v-.07H760v-2.64h-.59v-.07h1.25v.07H760v2.64h.59v.07Zm1.52,0v-2.77H761l1.78,2.71v-2.71h.07v2.77h-.07L761,169.82v2.64Zm2.11,0,1.12-2.84h.07l1.12,2.84h-.07l-.4-.92h-1.39l-.4.92Zm.46-1h1.39l-.66-1.72Zm2,1v-2.77h.07v2.71h1.52v.07Zm1.59-.66h.07a.36.36,0,0,0,.2.33.66.66,0,0,0,.33.26c.13,0,.26.07.4.07a2.86,2.86,0,0,1,.33-.07c.13-.07.2-.13.33-.2a.91.91,0,0,0,.2-.26v-.4c0-.07-.07-.13-.13-.2s-.07-.07-.13-.13-.2-.07-.26-.07-.2,0-.26-.07h-.26c-.13,0-.2,0-.26-.07s-.2-.07-.26-.07-.13-.13-.13-.2a.4.4,0,0,1-.07-.26v-.07c0-.2,0-.33.13-.4a.91.91,0,0,1,.2-.26,2.86,2.86,0,0,0,.33-.07c.07-.07.13-.07.26-.07a.2.2,0,0,1,.13.07.6.6,0,0,1,.33.07c.07.07.2.13.26.2a.5.5,0,0,1,.13.33h-.07c0-.13-.07-.2-.13-.33a1.45,1.45,0,0,0-.33-.2c-.13,0-.2-.07-.33-.07H768a.94.94,0,0,0-.4.13c-.13,0-.2.13-.33.2a.94.94,0,0,0-.13.4v.07c.07.13.07.2.13.26a.35.35,0,0,0,.26.2c.13,0,.2.07.33.07a933.7,933.7,0,0,0,.66.13c.13,0,.2.07.33.13a.34.34,0,0,1,.13.26v.33a.34.34,0,0,1-.13.26l-.2.2c-.13.07-.2.13-.33.13a2.86,2.86,0,0,1-.33.07c-.07,0-.2-.07-.26-.07s-.2-.07-.33-.13l-.2-.2c-.07-.13-.13-.2-.13-.33Zm7.66.66v-2.77h.07l1.19,1.72,1.12-1.72h.07v2.77h-.07v-2.71L776,171.47H776l-1.12-1.72v2.71Zm2.84,0v-2.77h1.52v.07h-1.45v1.32h1.39v.07h-1.39v1.25h1.45v.07Z" transform="translate(-741.91 -158.28)"/><path class="cls-1" d="M772.92,172.46l-.4-.4a1.39,1.39,0,0,1-.92.46,1,1,0,0,1-.66-.2.92.92,0,0,1-.2-.59.6.6,0,0,1,.2-.46,1.83,1.83,0,0,1,.53-.33c-.13-.07-.13-.13-.2-.2s-.07-.13-.13-.26-.07-.13-.07-.26a.68.68,0,0,1,.66-.66.75.75,0,0,1,.53.2c.13.07.13.26.13.4v.33l-.2.2c-.13.07-.2.13-.26.13a.34.34,0,0,1-.26.13l.86.86a4,4,0,0,0,.33-1.06H773a3.16,3.16,0,0,1-.4,1.19l.53.53Zm-1.72-2.25a.5.5,0,0,0,.13.33c0,.07.13.2.2.33.13-.07.26-.07.33-.13s.13-.07.2-.13.13-.13.13-.2.07-.13.07-.26,0-.26-.13-.33a.56.56,0,0,0-.4-.13.47.47,0,0,0-.53.53Zm1.19,1.72-.86-.92c-.2.13-.4.2-.46.33a.57.57,0,0,0-.2.4.6.6,0,0,0,.2.46.65.65,0,0,0,.53.2.86.86,0,0,0,.79-.46Z" transform="translate(-741.91 -158.28)"/><path class="cls-2" d="M772.92,172.46l-.4-.4a1.39,1.39,0,0,1-.92.46,1,1,0,0,1-.66-.2.92.92,0,0,1-.2-.59.6.6,0,0,1,.2-.46,1.83,1.83,0,0,1,.53-.33c-.13-.07-.13-.13-.2-.2s-.07-.13-.13-.26-.07-.13-.07-.26a.68.68,0,0,1,.66-.66.75.75,0,0,1,.53.2c.13.07.13.26.13.4v.33l-.2.2c-.13.07-.2.13-.26.13a.34.34,0,0,1-.26.13l.86.86a4,4,0,0,0,.33-1.06H773a3.16,3.16,0,0,1-.4,1.19l.53.53Zm-1.72-2.25a.5.5,0,0,0,.13.33c0,.07.13.2.2.33.13-.07.26-.07.33-.13s.13-.07.2-.13.13-.13.13-.2.07-.13.07-.26,0-.26-.13-.33a.56.56,0,0,0-.4-.13.47.47,0,0,0-.53.53Zm1.19,1.72-.86-.92c-.2.13-.4.2-.46.33a.57.57,0,0,0-.2.4.6.6,0,0,0,.2.46.65.65,0,0,0,.53.2.86.86,0,0,0,.79-.46Z" transform="translate(-741.91 -158.28)"/></svg>