<svg id="Слой_1" data-name="Слой 1" xmlns="http://www.w3.org/2000/svg" viewBox="0 0 78.13 28.93"><defs><style>.cls-1{fill:#d02229;fill-rule:evenodd;}</style></defs><title>06</title><path class="cls-1" d="M254.7,410.7H250.6l5.81-5.81h4.09l-5.81,5.81Z" transform="translate(-225.04 -404.89)"/><path d="M238,422.46a29,29,0,0,0-4.62-1.32c-2.18-.53-3.57-1-4.09-1.52a2.3,2.3,0,0,1-.79-1.85,2.58,2.58,0,0,1,1.12-2.18,5.85,5.85,0,0,1,3.63-.92,5.47,5.47,0,0,1,3.57,1,4.37,4.37,0,0,1,1.45,2.77h2.64a6.09,6.09,0,0,0-1.06-3.24,5.28,5.28,0,0,0-2.71-2.18,9.53,9.53,0,0,0-4-.79,10.4,10.4,0,0,0-3.83.73,5.76,5.76,0,0,0-2.58,2,5.36,5.36,0,0,0-.86,3,4.22,4.22,0,0,0,.73,2.58,5.34,5.34,0,0,0,2.18,2,17.19,17.19,0,0,0,4,1.25c1.85.46,3.1.86,3.63,1.06a4.34,4.34,0,0,1,1.92,1.19,3.27,3.27,0,0,1,.53,1.72,2.9,2.9,0,0,1-.59,1.78,3.74,3.74,0,0,1-1.78,1.32,7.19,7.19,0,0,1-2.77.46,8,8,0,0,1-3.17-.59,5.25,5.25,0,0,1-2-1.65,4.84,4.84,0,0,1-.86-2.31H225a6.84,6.84,0,0,0,4.09,6.21,12.2,12.2,0,0,0,4.69.79,9.75,9.75,0,0,0,4-.79,6.61,6.61,0,0,0,2.71-2.31,5.2,5.2,0,0,0,.92-3.1,5.07,5.07,0,0,0-.86-3,5.79,5.79,0,0,0-2.64-2.11Zm29.72-17.57h-2.84v28.93h2.84V416.91a3,3,0,0,1,1.06-1.32,6.08,6.08,0,0,1,3.7-.92,5.55,5.55,0,0,1,3.7,1.06,3.48,3.48,0,0,1,1.45,2.84v15.26h2.77l-.07-15.39a5.67,5.67,0,0,0-1-3.24,6.41,6.41,0,0,0-2.77-2.18,10.24,10.24,0,0,0-4.23-.79,11.22,11.22,0,0,0-3.57.59l-1.06.4Zm-14.79,7.33a10.73,10.73,0,1,0,10.7,10.7,10.65,10.65,0,0,0-10.7-10.7Zm0,19a8.26,8.26,0,0,1,0-16.51,8.26,8.26,0,0,1,0,16.51Zm39.63-16.51a8.26,8.26,0,1,1-8.26,8.26,8.29,8.29,0,0,1,8.26-8.26ZM303.17,423v-.07a10.73,10.73,0,1,0,0,.07Z" transform="translate(-225.04 -404.89)"/></svg>