<?xml version="1.0" encoding="utf-8"?>
<!-- Generator: Adobe Illustrator 22.1.0, SVG Export Plug-In . SVG Version: 6.00 Build 0)  -->
<svg version="1.1" id="Слой_1" xmlns="http://www.w3.org/2000/svg" xmlns:xlink="http://www.w3.org/1999/xlink" x="0px" y="0px"
	 viewBox="0 0 123.4 20.5" style="enable-background:new 0 0 123.4 20.5;" xml:space="preserve">
<title>08</title>
<path d="M119,19.4c-2.4,0.8-4.8,1.1-7.3,1.1c-2.8,0.1-5.6-0.4-8.3-1.3c-3.2-1.3-4.8-3.2-4.8-5.9c0-2.9,1.7-5,5-6.3
	c2.8-1,5.7-1.5,8.6-1.5c2.3-0.1,4.6,0.3,6.7,1c1.8,0.5,3.3,1.7,4.2,3.3l-1.4,0.4c-1.1-2.4-4.3-3.7-9.5-3.7c-2.6-0.1-5.2,0.4-7.6,1.3
	c-3,1.2-4.4,3-4.4,5.5c0,2.3,1.4,4,4.3,5.1c2.3,0.8,4.8,1.2,7.2,1.1c2.2,0,4.5-0.3,6.6-1c1.6-0.4,3-1.5,3.8-3l1.4,0.3l0,0
	C122.8,17.5,121.2,18.7,119,19.4L119,19.4z M92.5,5.8h1.6v14.4h-1.6V5.8z M93.3,2.8c-0.3,0-0.5-0.1-0.7-0.3V0.4
	C92.7,0.2,93,0,93.3,0c0.3,0,0.6,0.1,0.9,0.3v2.1C93.9,2.7,93.6,2.8,93.3,2.8L93.3,2.8z M85.1,20.1v-9.4c0-1.6-1.1-2.8-3.4-3.6
	c-1.8-0.5-3.6-0.7-5.4-0.7c-2.2,0-4.3,0.3-6.3,1.1c-2.6,1-3.9,2.5-3.9,4.6v8h-1.6V5.9h1.6v3c1.2-1.5,2.8-2.4,4.7-2.8
	c1.8-0.4,3.6-0.6,5.5-0.6c2.5-0.1,5,0.3,7.3,1.2c2.1,0.9,3.2,2.2,3.2,3.8v9.7L85.1,20.1z M47.1,6.5c-2.5-0.1-5,0.3-7.3,1.2
	c-3,1.2-4.4,3-4.4,5.4c0,2.4,1.4,4.1,4.4,5.3c4.8,1.6,9.9,1.6,14.7,0c2.9-1.2,4.4-2.9,4.4-5.3s-1.4-4.2-4.3-5.4
	C52.1,6.8,49.6,6.4,47.1,6.5L47.1,6.5z M47.1,20.5c-2.8,0.1-5.7-0.4-8.3-1.4c-3.2-1.3-4.9-3.3-4.9-6.1s1.6-4.8,5-6.1
	C44.3,5,50.2,5,55.6,6.9c3.2,1.3,4.9,3.3,4.9,6.1s-1.6,4.8-5,6.1C52.8,20.1,49.9,20.5,47.1,20.5L47.1,20.5z M26.4,19.4
	c-2.4,0.8-4.8,1.1-7.3,1.1c-2.8,0.1-5.6-0.4-8.3-1.3C7.5,17.9,6,15.9,6,13.3c0-2.9,1.7-5,5-6.3c2.7-1,5.7-1.5,8.6-1.5
	c2.3-0.1,4.6,0.3,6.7,1c1.8,0.5,3.3,1.7,4.2,3.3L29,10.2c-1.1-2.4-4.3-3.7-9.5-3.7c-2.6-0.1-5.2,0.4-7.6,1.3c-2.9,1.2-4.4,3-4.4,5.5
	c0,2.3,1.4,4,4.3,5.1c2.3,0.8,4.8,1.2,7.2,1.1c2.2,0,4.5-0.3,6.6-1c1.6-0.4,3-1.5,3.8-3l1.4,0.3C30.1,17.5,28.6,18.7,26.4,19.4
	L26.4,19.4z M0,5.8h1.6v14.4H0V5.8z M0.7,2.8C0.4,2.8,0.1,2.7,0,2.5V0.4C0.1,0.2,0.4,0,0.7,0C1,0,1.3,0.1,1.5,0.3v2.1
	C1.3,2.7,1,2.8,0.7,2.8L0.7,2.8z"/>
</svg>
