<svg id="Слой_1" data-name="Слой 1" xmlns="http://www.w3.org/2000/svg" viewBox="0 0 99.73 63.01"><defs><style>.cls-1{fill-rule:evenodd;}</style></defs><title>12</title><path d="M634.69,145.58l4.82,11.16H642l-4.42-10.24,30,3.43,30,3.5-2.44,3.3h2.91l2.64-3.57,1.19-1.65-2-.2-32-3.7-32-3.7-2-.26ZM669.83,191l-8.19,11-4.76-11h-2.58l6,13.8.79,1.92L662.3,205,672.73,191Z" transform="translate(-615.67 -143.67)"/><path d="M688.71,184h1.52v-.79h-2.38v5.61h2.38V188h-1.52V186.4H690v-.79h-1.25Zm-2.77,0c.33,0,.46.2.46.59v.53c0,.46-.2.59-.53.59h-.33V184Zm1.45,4.82a2,2,0,0,1-.13-.66v-.86c0-.59-.13-1.06-.59-1.25.4-.13.59-.53.59-1.12v-.4c0-.92-.4-1.32-1.25-1.32h-1.39v5.61h.92v-2.31h.26c.4,0,.59.2.59.73v.92a5.1,5.1,0,0,0,.07.66Zm-6-1.39c0,.92.46,1.45,1.32,1.45a1.3,1.3,0,0,0,1.39-1.45v-2.91a1.28,1.28,0,0,0-1.39-1.39,1.23,1.23,0,0,0-1.32,1.39Zm.86-2.91c0-.4.2-.59.46-.59s.46.2.46.59v3c0,.4-.13.59-.46.59s-.46-.2-.46-.59Zm-3.9-.53h.92v4.82h.86V184h1v-.79h-2.77Zm-2.84.53c0,1.59,1.72,1.85,1.72,3,0,.4-.13.59-.46.59s-.46-.2-.46-.59v-.4h-.79v.33c0,.92.4,1.45,1.32,1.45s1.25-.53,1.25-1.45c0-1.59-1.72-1.78-1.72-2.91,0-.4.2-.59.46-.59s.46.2.46.59v.2h.79v-.2c0-.86-.4-1.39-1.25-1.39a1.23,1.23,0,0,0-1.32,1.39Zm-4.23-.53h.92v4.82h.86V184H674v-.79h-2.71Zm-1.52,0c.26,0,.46.13.46.53v.86c0,.4-.2.53-.46.53h-.4V184Zm0-.79h-1.32v5.61h.92v-2.11h.4a1.23,1.23,0,0,0,1.32-1.39v-.73a1.21,1.21,0,0,0-1.32-1.39Zm-3.37.79h1.52v-.79h-2.38v5.61h2.38V188h-1.52V186.4h1.19v-.79h-1.19Zm-2.25,2.71v.79c0,.4-.2.59-.46.59s-.46-.2-.46-.59v-3c0-.4.2-.59.46-.59s.46.2.46.59v.59h.79v-.59c0-.86-.4-1.39-1.25-1.39s-1.32.53-1.32,1.39v2.91c0,.92.4,1.45,1.32,1.45s1.25-.53,1.25-1.45v-.73Zm-3.24,2.11h.86v-5.61H661v3.37l-.86-3.37H659v5.61h.79v-4.09Zm-5.15-1.39c0,.92.46,1.45,1.32,1.45s1.32-.53,1.32-1.45v-2.91a1.32,1.32,0,1,0-2.64,0Zm.86-2.91c0-.4.2-.59.46-.59s.46.2.46.59v3c0,.4-.2.59-.46.59s-.46-.2-.46-.59Zm-2.18,2.18v.79c0,.4-.13.59-.46.59s-.46-.2-.46-.59v-3c0-.4.2-.59.46-.59s.46.2.46.59v.59h.86v-.59a1.32,1.32,0,1,0-2.64,0v2.91c0,.92.46,1.45,1.32,1.45s1.32-.53,1.32-1.45v-.73Zm-4.49,2.11h.92v-5.61h-.79v3.37l-.92-3.37H648v5.61h.79v-4.09ZM646,184h1.52v-.79h-2.38v5.61h2.38V188H646V186.4h1.25v-.79H646Zm-4-.79h-1.25v5.61h.79v-4l.66,4H643l.66-4v4h.79v-5.61h-1.19l-.59,4Z" transform="translate(-615.67 -143.67)"/><path class="cls-1" d="M638.65,185.47a.58.58,0,0,1,.59.53.59.59,0,1,1-1.19,0,.58.58,0,0,1,.59-.53Z" transform="translate(-615.67 -143.67)"/><path class="cls-1" d="M692.41,185.47a.57.57,0,0,1,.53.53.58.58,0,0,1-.53.59.59.59,0,0,1-.59-.59.58.58,0,0,1,.59-.53Z" transform="translate(-615.67 -143.67)"/><path d="M700.6,159.39h4.29l10.5,21.33H711Zm4.16,21.2-4.09.13V161.56l4.09,8.06Zm6.41-21,4.16-.2v19.15l-4.16-8Zm-17.9-.2-5,21.33h-4.09L689,159.39Zm-.59,7.2,1.52-7.2h1.12L700,180.72h-4.09l-1.19-4.49H690.3l.73-3.3h3.1Zm-24.57,4v10.1h-3.9V159.45Zm7.4,9.51h-3.43l-6.93-20.74H669l4.82,13.74,4.82-13.74h3.76Zm7.73-20.74v21.33h-3.76V171.6l-.07-.86Zm-29.72,21.33c-3.63,0-5.42-1.52-5.42-4.62V159.39h4.09v16.38c0,.92.73,1.39,2.25,1.39v3.57Zm2-3.57c1.52-.07,2.25-.53,2.25-1.39V159.39h4.09v16.71c0,3.1-1.78,4.62-5.42,4.62h-.92Zm-20,3.57h-4.16V159.39h4.16Zm1.19-21.33h3.1c3.63,0,5.42,1.59,5.42,4.69V168c0,2.38-1,3.9-3,4.62l3.9,8.12h-4.42l-3.3-8.12h-1.65v-3.3h2.38c1.39,0,2-.4,2-1.32v-3.63c0-.86-.66-1.32-2-1.32h-2.38Zm-21.07,0h13.74V163H615.67Zm9.18,21.33h-4.09V164.14h4.09Zm0-16.58v0" transform="translate(-615.67 -143.67)"/></svg>