<svg id="Слой_1" data-name="Слой 1" xmlns="http://www.w3.org/2000/svg" viewBox="0 0 140.41 25.56"><title>07</title><path d="M315.14,398.06a6.08,6.08,0,0,1,4.62,2.31v.13l.13.13h0a3.61,3.61,0,0,0,2.77,1.32,3.55,3.55,0,0,0,3.57-3.57,3.46,3.46,0,0,0-.92-2.38,12,12,0,0,0-10.17-4.76c-7.66,0-13.41,5.28-13.41,12.75s5.68,12.75,13.27,12.81h.4a12.47,12.47,0,0,0,9.91-4.42,3.7,3.7,0,0,0,.86-2.31,3.46,3.46,0,0,0-6.08-2.31,6.45,6.45,0,0,1-5,2.31c-3.5,0-5.48-2.51-5.48-6.08s2-5.94,5.48-5.94Zm50.33,18.76h.26c7.53-.07,13.34-5.35,13.34-12.68,0-7.53-5.88-12.88-13.47-12.88s-13.47,5.35-13.47,12.88c0,7.33,5.81,12.61,13.34,12.68Zm31,0h.33a12.42,12.42,0,0,0,10-4.42,3.77,3.77,0,0,0,.92-2.31,3.54,3.54,0,0,0-3.57-3.5,3.4,3.4,0,0,0-2.58,1.19,6.35,6.35,0,0,1-5,2.31c-3.5,0-5.48-2.51-5.48-6.08s2-5.94,5.48-5.94a5.75,5.75,0,0,1,4.56,2.31l.13.13a.23.23,0,0,0,.07.13h0A3.61,3.61,0,0,0,404.1,402a3.55,3.55,0,0,0,3.57-3.57,3.46,3.46,0,0,0-.92-2.38,12,12,0,0,0-10.17-4.76c-7.66,0-13.41,5.28-13.41,12.75s5.68,12.75,13.27,12.81Zm25.1,0h.4c7.59-.07,9.91-3.7,9.91-8.19,0-5.15-4.49-6.8-8.06-7.66-3.3-.73-4.89-.86-4.89-2.25,0-1,.86-1.45,2.64-1.45a7.67,7.67,0,0,1,4.76,1.85,3.15,3.15,0,0,0,2,.79,3,3,0,0,0,3-3,3.09,3.09,0,0,0-1-2.25,12,12,0,0,0-8.92-3.37c-5.22,0-9.44,2.25-9.44,7.79,0,5.09,3.7,6.93,7.07,7.79,4,1.06,5.48,1.06,5.48,2.38,0,1.06-.79,1.52-3.3,1.52a8.36,8.36,0,0,1-5.35-2l.07.07a3.08,3.08,0,0,0-4.82,3.7c0,.07.07.07.07.13a.91.91,0,0,0,.2.26.51.51,0,0,0,.13.2l.2.2c0,.07.07.07.13.13a14.23,14.23,0,0,0,9.64,3.37Zm-55.94-6.54c-3.43,0-5.55-2.58-5.55-6.14s2.11-6.21,5.55-6.21,5.55,2.51,5.55,6.21-2.11,6.14-5.55,6.14Z" transform="translate(-301.73 -391.26)"/><path d="M348.23,392.84a6.29,6.29,0,0,0-3.83-.59,10.74,10.74,0,0,0-6.14,3v.07h0v-.07a3.92,3.92,0,0,0-4-3.63,4,4,0,0,0-4,3.9v17.3a4,4,0,0,0,7.93-.07V408.1c0-6.47,3.76-8.06,5.81-8.12a12.7,12.7,0,0,0,3.1.33,4,4,0,0,0,1.06-7.46Z" transform="translate(-301.73 -391.26)"/><path d="M433.69,392.71h.07V392a2.86,2.86,0,0,1,.07-.33v-.26l.2-.2h.33a.26.26,0,0,1,.26.13c.07.07.13.07.13.2a.72.72,0,0,1,.07.4v.73h.33c.2,0,.26,0,.33.07a.5.5,0,0,1,.13.26c0,.13-.07.2-.2.26a.77.77,0,0,1-.46.13h-.13v2.18c0,.13,0,.2.07.2a.34.34,0,0,0,.26.13.24.24,0,0,0,.2-.07h.26a.24.24,0,0,1,.2.07.34.34,0,0,1,.13.26.44.44,0,0,1-.26.33,1.41,1.41,0,0,1-.79.2,1.19,1.19,0,0,1-.73-.2.84.84,0,0,1-.33-.46c0-.13-.07-.4-.07-.73v-1.92h-.13a.5.5,0,0,1-.33-.13c-.07-.07-.07-.13-.07-.26a.4.4,0,0,1,.07-.26c.07-.07.2-.07.4-.07Z" transform="translate(-301.73 -391.26)"/><path d="M439.76,394.76v1.32a.77.77,0,0,1-.13.46.6.6,0,0,1-.46.2.36.36,0,0,1-.33-.2c-.13-.07-.13-.26-.13-.46v-1.65c0-.2-.07-.4-.07-.59a.45.45,0,0,0-.46-.46.66.66,0,0,0-.66.33,2.2,2.2,0,0,0-.2,1v1.39a.56.56,0,0,1-.13.46.4.4,0,0,1-.4.2c-.13,0-.2-.07-.33-.2a.56.56,0,0,1-.13-.46v-2.91c0-.2,0-.33.13-.4a.36.36,0,0,1,.33-.2.5.5,0,0,1,.33.13.49.49,0,0,1,.13.4v.13a1.22,1.22,0,0,1,.59-.46,1.2,1.2,0,0,1,1.32,0,.79.79,0,0,1,.46.46.88.88,0,0,1,.53-.46,1.12,1.12,0,0,1,.66-.2,1.33,1.33,0,0,1,.73.2.58.58,0,0,1,.4.46c.13.13.13.4.2.73v2.18c-.07.2-.07.33-.2.4a.36.36,0,0,1-.33.2.4.4,0,0,1-.4-.2.56.56,0,0,1-.13-.46v-1.72c0-.2-.07-.4-.07-.53a.5.5,0,0,0-.13-.33.56.56,0,0,0-.4-.13.5.5,0,0,0-.33.13.8.8,0,0,0-.33.33,3,3,0,0,0-.07.92Z" transform="translate(-301.73 -391.26)"/></svg>