<?xml version="1.0" encoding="UTF-8"?>
<!DOCTYPE svg PUBLIC "-//W3C//DTD SVG 1.1//EN" "http://www.w3.org/Graphics/SVG/1.1/DTD/svg11.dtd">
<!-- Creator: CorelDRAW X7 -->
<svg xmlns="http://www.w3.org/2000/svg" xml:space="preserve" width="29.7cm" height="21cm" version="1.1" style="shape-rendering:geometricPrecision; text-rendering:geometricPrecision; image-rendering:optimizeQuality; fill-rule:evenodd; clip-rule:evenodd"
viewBox="0 0 29700 21000"
 xmlns:xlink="http://www.w3.org/1999/xlink">
 <defs>
  <style type="text/css">
   <![CDATA[
    .fil0 {fill:#2B2A29}
    .fil1 {fill:#2B2A29;fill-rule:nonzero}
   ]]>
  </style>
 </defs>
 <g id="Слой_x0020_1">
  <metadata id="CorelCorpID_0Corel-Layer"/>
  <g id="_2348700406032">
   <path class="fil0" d="M217 10780c57,-29 56,-57 86,-146 79,-239 375,-1100 432,-1267 5,-10 16,-51 12,-69 -27,-45 -105,-65 -169,-73 -34,-5 -155,-18 -167,-28 -21,-16 -15,-31 -12,-51 10,-37 44,-38 82,-38 56,0 1040,0 1078,0 68,1 65,89 19,98 -192,13 -370,19 -446,151 -65,187 -448,1240 -483,1354 -6,23 -9,56 13,74l10 9c30,27 70,42 114,53 45,9 86,16 134,20 47,6 61,8 71,26 8,23 8,52 -10,64 -19,12 -51,14 -51,14l-1064 0c-23,-4 -36,-20 -39,-39 -1,-22 -1,-41 17,-54 28,-21 101,-25 101,-25 33,0 108,-10 193,-39 15,-5 24,-8 37,-13l42 -21z"/>
   <path class="fil0" d="M8649 9109c0,0 -931,0 -908,0 -73,6 -75,32 -76,45 -4,29 10,50 41,58 76,11 146,2 215,22 17,8 36,19 22,47 -36,36 -1364,1308 -1402,1325 -19,-22 -257,-1166 -278,-1256 -8,-33 -11,-84 62,-94 93,-22 139,-20 221,-32 32,-5 33,-27 34,-48 -1,-33 -14,-57 -53,-61 22,0 -881,0 -865,0 -8,3 -47,-3 -57,31 -5,15 -7,30 1,43 14,23 40,32 79,36 9,5 166,20 205,75 27,45 99,417 106,467 -24,29 -759,735 -865,832 -7,8 -25,12 -27,-4 -28,-85 -43,-187 -68,-282 -2,-17 -197,-922 -207,-971 -7,-34 16,-62 43,-83 74,-25 154,-34 234,-31 20,-8 53,-5 73,-25 4,-13 13,-30 5,-46 -9,-24 -28,-35 -49,-41 32,0 -795,-1 -966,0 -49,0 -71,-5 -101,12 -10,12 -17,28 -14,40 4,19 16,39 36,47 63,20 174,4 305,63 51,28 56,102 69,159 18,88 40,161 53,249 29,116 162,725 179,799 11,48 80,368 80,368 13,57 53,100 105,115 42,4 75,10 113,-22l1040 -997c8,4 7,16 10,29 34,152 169,855 212,950 5,16 36,85 136,43 10,-3 26,-13 41,-27 26,-26 1616,-1538 1666,-1571 1,-1 124,-112 261,-133 137,-28 187,-19 296,-38 18,-7 25,-24 23,-43 0,-22 -4,-43 -30,-50z"/>
   <path class="fil0" d="M3653 9925c18,42 17,102 7,149 -9,34 -15,56 -23,85 -17,50 -153,422 -196,568 -8,18 10,31 27,28 52,-12 37,-10 69,-25 4,-3 162,-90 225,-141 39,-25 59,-54 100,-32 18,7 30,33 33,55 -4,19 -10,23 -22,39 -74,66 -117,92 -196,142 -59,35 -181,98 -192,104 -50,26 -170,66 -170,66 -103,20 -135,11 -147,14 -47,-3 -88,-33 -110,-76 -38,-95 28,-183 54,-268 7,-30 25,-61 30,-91 20,-40 34,-97 52,-142 21,-48 32,-101 55,-150 27,-88 74,-170 60,-261 -11,-37 -41,-42 -74,-44 -51,3 -78,10 -123,24 -82,28 -153,56 -225,101 -32,21 -134,81 -171,114 0,0 -246,212 -280,244 -43,44 -83,82 -118,127 0,0 -148,198 -226,350 -9,18 -11,29 -39,53 -38,27 -95,26 -136,5 -48,-28 -64,-102 -56,-135 17,-67 44,-123 61,-186 76,-201 145,-408 224,-611 6,-14 11,-29 -5,-40 -27,-14 -58,4 -84,10 -40,10 -214,90 -288,123 -65,28 -91,-17 -92,-43 0,0 5,-41 51,-58 52,-20 386,-177 504,-199 80,-18 189,-41 261,10 10,3 64,66 27,150 -21,52 -49,132 -41,150 4,8 7,13 28,4 35,-24 303,-175 333,-185 119,-59 253,-101 387,-133 0,2 126,-30 207,-18 98,13 187,42 219,123z"/>
   <path class="fil0" d="M13049 9824c36,7 59,3 96,59 17,29 24,57 23,95 -3,22 -19,100 -40,155 -9,18 -29,56 11,58 15,3 214,-167 226,-177 65,-42 108,-82 188,-117 33,-17 51,-21 79,-31 54,-16 88,-23 140,-29 35,-4 134,14 140,19 34,8 102,32 116,97 7,99 -42,144 -67,165 -49,35 -126,55 -181,22 -26,-21 -21,-51 -21,-82 -14,-97 -104,-46 -130,-34 -133,60 -189,121 -189,121 0,0 -108,77 -164,150 0,0 -399,448 -470,561 -24,30 -50,68 -74,99 -30,41 -95,56 -144,46 -32,-10 -74,-49 -80,-78 -12,-71 33,-118 45,-181 7,-8 184,-513 192,-529 19,-60 46,-118 63,-180 1,-14 -8,-43 -43,-39 -33,0 -39,4 -77,14 -151,53 -231,94 -231,94 -15,10 -24,17 -45,29 0,0 -36,21 -70,16 -13,-4 -24,-10 -28,-38 2,-42 33,-63 33,-63 0,0 88,-67 173,-102 81,-31 166,-69 251,-92 109,-31 254,-32 278,-28z"/>
   <path class="fil0" d="M9145 9801c73,7 131,16 200,38 52,13 120,48 156,89 20,24 36,67 31,105 -4,14 -2,20 -13,47 -11,26 -31,75 -101,114 -71,46 -124,66 -124,66 -83,34 -327,121 -365,135 -28,8 -180,52 -191,57 -51,15 -103,28 -156,40 -68,13 -233,46 -315,59 -60,11 -123,19 -221,39 -29,12 -21,50 -17,78 6,34 8,51 23,78 3,1 31,54 80,64 36,11 66,16 139,17 138,-13 367,-57 361,-55 35,-8 240,-65 249,-69 102,-34 201,-70 296,-114 20,-10 44,-21 65,-31 23,-8 39,-9 56,0 19,13 30,22 19,56 -30,63 -106,75 -163,103 -37,12 -156,64 -182,74 -22,5 -140,50 -162,56 -25,11 -193,58 -254,76 -83,21 -300,59 -307,56 -41,6 -156,11 -161,10 -35,4 -117,-3 -137,-5 -86,-6 -167,-41 -230,-93 -47,-50 -62,-97 -69,-115 -9,-27 -13,-39 -17,-74 -8,-96 15,-183 60,-258 31,-50 67,-93 93,-121 55,-68 185,-176 185,-176 67,-56 183,-129 304,-181 67,-37 319,-111 372,-124 91,-26 273,-44 273,-44 116,-11 152,-1 223,3zm2047 21c-279,27 -377,50 -427,68 -45,11 -202,52 -320,107 -41,23 -89,43 -129,69 -113,57 -346,249 -434,357 -16,7 -112,145 -139,211 -47,82 -38,187 -22,213 55,145 148,141 216,141 156,-5 236,-25 355,-53 21,-3 125,-38 152,-46 99,-27 491,-218 566,-260 15,-5 48,-31 63,-26l-15 52c-19,58 -51,142 -51,198 -2,14 8,110 110,129 87,14 137,-2 197,-14 17,-5 23,-7 44,-15 56,-13 406,-205 464,-246 29,-18 57,-38 70,-66 21,-44 -20,-69 -24,-69 -38,-8 -57,6 -88,28 -51,42 -88,64 -164,111 -59,29 -109,61 -175,68 -21,-2 -25,-8 -25,-8 -23,-20 -8,-50 -1,-76 11,-32 184,-510 201,-564 6,-13 54,-148 61,-169 9,-21 14,-41 19,-67 0,-28 -21,-37 -43,-44 -151,-29 -292,-31 -461,-29zm-2242 83c-45,4 -85,12 -171,31 -43,11 -100,25 -120,34 -63,22 -124,49 -185,76 -252,115 -347,295 -359,319 -13,15 -42,87 -50,97 6,-6 33,-9 61,-15 0,0 252,-48 295,-59 49,-10 91,-19 150,-35 151,-40 390,-137 430,-154 52,-21 129,-72 161,-118 21,-33 30,-68 19,-103 -6,-20 -25,-36 -39,-48 0,0 -34,-39 -192,-25zm2352 57c-39,119 -85,243 -127,365 -8,20 -13,55 -48,90 -39,32 -122,77 -130,79 -11,12 -345,173 -470,217 -33,11 -162,53 -200,61 -170,40 -184,-58 -185,-72 -6,-18 0,-78 5,-91 30,-99 81,-184 148,-258 56,-75 193,-189 287,-239 181,-102 328,-137 335,-139 83,-17 327,-45 366,-44 33,2 19,31 19,31z"/>
  </g>
  <g id="_2348700401616">
   <g>
    <path class="fil1" d="M21089 9907l0 -161 -422 0 0 -265 -53 0 -387 350 0 76 151 0 1 801c0,119 26,200 82,256 59,60 151,89 278,89 206,0 325,-110 356,-144l4 -4 28 -31c0,0 -19,-17 -36,-36 -13,-15 -43,-43 -43,-43 -11,7 -28,24 -47,36 -15,8 -33,20 -46,23 -26,10 -52,14 -78,14 -66,0 -113,-16 -145,-48 -54,-54 -61,-152 -61,-250l0 -663 418 0z"/>
    <path class="fil1" d="M29280 10274c164,0 222,-4 235,-22 16,-23 12,-60 9,-101 -6,-86 -57,-229 -126,-299 -95,-97 -224,-150 -383,-150 -398,0 -698,309 -698,719 0,110 25,271 146,416 113,135 296,212 505,212 180,0 417,-81 559,-289l17 -29c0,0 -28,-29 -45,-41 -18,-12 -53,-31 -58,-31l-27 33c-117,104 -179,124 -289,128 -151,3 -280,-50 -373,-144 -97,-98 -151,-240 -151,-398l679 -4zm-55 -234l0 0c2,26 8,43 -15,62 -29,22 -213,22 -339,22l-254 -2c17,-81 99,-278 358,-278 77,-1 147,31 188,68 46,41 60,105 62,128z"/>
    <polygon class="fil1" points="21798,9426 22081,9072 21715,9072 21561,9427 "/>
    <path class="fil1" d="M16107 10893l-129 -12c-99,-7 -152,-114 -150,-249 4,-241 17,-487 27,-681 8,-139 16,-283 26,-432 140,309 363,734 452,910 59,115 247,493 282,596l108 0c53,-125 223,-450 347,-677 0,0 430,-782 448,-816l9 1100c2,115 -26,237 -157,249l-102 12 1 121c0,0 313,-9 431,-9 118,0 422,9 422,9l0 -120 -108 -10c-109,-10 -160,-135 -165,-242 -13,-282 -24,-693 -29,-1010l-4 -235c-5,-120 38,-240 199,-250 -1,0 100,-8 100,-8l0 -132c0,0 -239,13 -324,13 -64,0 -130,0 -237,-9l-29 -2 -2 29c-5,127 -92,284 -235,544 0,0 -263,500 -329,613 -45,77 -131,245 -201,360 -57,-99 -111,-200 -167,-306 0,0 -397,-739 -397,-739 -76,-144 -177,-350 -163,-467l4 -34 -34 2c-105,9 -189,9 -263,9 -76,0 -299,-12 -299,-12 0,0 0,43 0,71 1,30 0,60 0,60l81 7c154,21 193,111 190,224 -4,144 -13,392 -35,654 -25,290 -37,476 -59,637 -17,130 -93,211 -179,222 0,0 -100,10 -100,10l0 124c0,0 266,-10 371,-10 125,0 399,7 399,7l0 -121z"/>
    <path class="fil1" d="M19890 9741l-43 3 -350 3 -35 -4 -20 146c-79,-120 -251,-162 -365,-162 -441,0 -682,333 -682,745 0,157 63,315 171,423 130,131 278,142 414,146 50,2 84,-1 133,-11l188 -178 0 -15c0,0 -116,40 -226,39 -84,-1 -160,-37 -229,-104 -89,-87 -130,-257 -130,-418 0,-222 82,-471 364,-477 163,-3 259,106 289,166 24,49 37,64 37,269 0,0 3,347 3,347 0,0 2,199 2,199l5 156c0,0 324,-12 444,-5 0,0 57,5 76,5l5 -116 0 -1 -52 -6c-84,-16 -144,-36 -169,-88 -20,-41 -18,-282 -18,-282 0,0 0,-335 2,-436 3,-109 22,-180 80,-205 47,-19 106,-27 106,-27l0 -112z"/>
    <path class="fil1" d="M23407 10594c-3,180 -30,259 -95,282 -49,17 -106,17 -106,17l0 123 51 -2c91,-6 185,-6 299,-6 112,0 208,0 299,6l50 2 0 -121c0,0 -47,-3 -104,-14 -57,-10 -100,-53 -102,-237l1 -516c0,-96 -33,-210 -101,-279 -71,-71 -171,-124 -298,-124 -165,0 -330,80 -458,174 0,0 5,-158 5,-158 0,0 -134,8 -229,9 -69,1 -256,-9 -256,-9l0 108c40,5 96,32 123,52 31,23 64,86 64,148l-1 545c-2,180 -35,265 -99,287 -48,17 -103,17 -103,17l0 118 51 -2c91,-6 186,-9 298,-9 113,0 208,3 299,9l51 2 0 -122c0,0 -58,-1 -102,-14 -66,-19 -100,-52 -102,-236l1 -450c0,-58 11,-111 46,-154 36,-45 123,-102 244,-102 92,0 163,33 209,78 43,44 66,115 66,176l-1 402z"/>
    <path class="fil1" d="M27450 9741c0,0 83,10 281,9 0,0 116,0 207,-6 0,0 -2,201 -2,417l0 559c0,110 104,173 207,184 0,0 -3,40 -3,57 0,20 1,53 0,52l-54 -2c-83,1 -246,-16 -324,-4l-86 12 -22 -177c-113,94 -302,195 -470,195 -127,0 -227,-40 -297,-120 -64,-73 -101,-175 -101,-292l0 -515c-2,-148 -40,-208 -97,-235 -37,-17 -76,-26 -76,-26l0 -108c0,0 54,8 251,7 113,0 214,-7 214,-7 0,0 0,212 0,369l0 447c0,84 28,157 68,209 39,51 99,82 191,82 121,0 229,-76 265,-121 35,-43 41,-77 41,-158l0 -459c-2,-144 -36,-205 -101,-236 -49,-24 -91,-25 -91,-25l-1 -108z"/>
    <path class="fil1" d="M21406 9867c39,5 86,20 116,40 23,15 68,55 68,116l0 94 0 476c-2,179 -32,253 -94,281 -53,24 -107,24 -107,24l0 116 51 -2c91,-5 182,-5 295,-5 113,0 212,0 303,5l50 2 0 -116c0,0 -40,1 -102,-15 -62,-17 -99,-56 -101,-240l0 -551c0,-198 18,-352 18,-352 0,0 -155,16 -243,12 -21,0 -272,-10 -272,-10 0,0 1,36 1,64 1,31 -1,58 -1,58l18 3z"/>
   </g>
   <polygon class="fil1" points="24521,9426 24803,9072 24436,9072 24283,9427 "/>
   <path class="fil1" d="M24128 9867c39,5 86,20 116,40 23,15 68,55 68,116l0 94 0 476c-2,179 -32,253 -94,281 -53,24 -107,24 -107,24l0 116 51 -2c91,-5 183,-5 295,-5 113,0 212,0 303,5l50 2 0 -116c0,0 -41,1 -102,-15 -62,-17 -99,-56 -101,-240l0 -551c0,-198 18,-352 18,-352 0,0 -155,16 -244,12 -20,0 -270,-10 -270,-10 0,0 0,36 0,64 1,31 0,58 0,58l17 3z"/>
   <g>
    <g>
     <path class="fil1" d="M25988 11018c259,-101 417,-327 417,-654 0,-413 -286,-694 -702,-694 -418,0 -713,309 -713,708 0,396 261,654 589,682 0,0 11,3 94,8l209 323 418 1 -364 -353c49,-19 52,-21 52,-21zm-206 -91l0 0c-206,44 -427,-115 -458,-513 -23,-298 76,-551 334,-573 252,-21 400,202 425,507 24,298 -60,526 -301,579z"/>
    </g>
   </g>
  </g>
 </g>
</svg>
